<svg width="785" height="1368" viewBox="0 0 785 1368" fill="none" xmlns="http://www.w3.org/2000/svg">
<path d="M364.166 1121.5L446.666 799.5C457.166 753 471.666 742 482.166 742L759.666 799.5C766.466 802.3 762.833 810.334 760.166 814L755.166 820L769.666 832.5C789.166 835 785.666 844.5 781.666 859.5L704.166 1180.5C703.366 1188.9 691.666 1233.5 685.666 1252C684.066 1256.4 668.333 1255.5 660.666 1254.5L487.166 1232L364.166 1121.5Z" fill="#90583C"/>
<path d="M505.43 777.696L514.687 780.049L434.166 1096L424.666 1096L505.43 777.696Z" fill="#814D36"/>
<path d="M483.165 772.5C467.667 768.5 478.166 754 486.665 756.5L760.666 815L756.666 821.5L769.166 832L483.165 772.5Z" fill="#EAD9BD"/>
<path d="M454.166 1239C478.166 1156 470.666 1121.5 466.166 1097.5C534.566 1091.1 561.666 1084.83 566.666 1082.5C583.066 1036.9 620.166 993.834 636.666 978C647.066 972.8 662.333 957.167 668.666 950L676.666 937.5C682.666 926.3 696.499 926.5 702.666 928C721.066 938.8 715.999 959.834 711.166 969C693.166 990.6 679.666 1011.33 675.166 1019C686.366 1017.4 718.833 1007.33 733.666 1002.5C748.066 991.3 755.333 975.5 756.666 969C811.166 1000.5 769.166 1029.5 766.666 1039.5C774.666 1063.1 763.333 1083.67 756.666 1091C759.466 1111.8 748.833 1130 743.166 1136.5C741.666 1171.5 715.333 1175.33 702.666 1181C693.866 1183.8 648.999 1190.83 627.666 1194L597.166 1198C569.166 1208.5 505.166 1231 454.166 1239Z" fill="#FFCCA9"/>
<path d="M739.666 1064L765.666 1039.5V1042.5L743.166 1066.5H739.666V1064Z" fill="#CF9069"/>
<path d="M739.666 1111C740.866 1104.6 751.833 1094.67 757.166 1090.5V1093.5C751.566 1095.1 745.499 1105.83 743.166 1111C743.166 1112.2 740.833 1111.5 739.666 1111Z" fill="#CF9069"/>
<path d="M734.666 1143.5C734.666 1141.9 740.333 1137.83 743.166 1136H744.166V1141L741.166 1143.5C738.999 1144.17 734.666 1145.1 734.666 1143.5Z" fill="#CF9069"/>
<path d="M16.165 1296C-12.3347 1243.5 16.1647 1222 25.665 1209.5C25.665 1228.7 67.3317 1234.17 88.165 1234.5C140.665 1352.5 258.665 1358 312.665 1367H409.165L452.665 1239.5H456.165L492.165 1232.5L597.665 1246.5L601.665 1368H6.16508C4.16508 1355.2 11.9983 1314.67 16.165 1296Z" fill="#B54E3F"/>
<path d="M443.664 1367.5C487.164 1306 495.664 1275 508.664 1235.5L519.164 1236.5C507.664 1276 479.164 1343 455.664 1367.5H443.664Z" fill="#A24537"/>
<path d="M565.664 1243L556.164 1242C552.664 1279.5 542.664 1334.5 529.664 1367.5H538.164C553.664 1334.5 563.164 1280 565.664 1243Z" fill="#A24537"/>
<path d="M148.165 1326C83.1647 1328.5 60.1647 1321.5 40.6647 1311C34.6644 1309 36.4647 1298.2 47.6647 1305C63.665 1317 123.365 1318.6 142.165 1319C149.665 1318 152.964 1322.4 148.165 1326Z" fill="#A24536"/>
<path d="M170.666 552.5C211.066 512.1 209.166 477 209.166 452V270.5L241.166 246.5L291.166 251L303.166 270.5L323.166 392.5L340.666 507.5L423.666 576.5V582.5C407.666 600.5 407.333 625 409.166 635L438.666 696H351.166L161.5 614L170.666 552.5Z" fill="#FFCCA9"/>
<path d="M292.666 389.5C273.166 389.5 269.166 383 262.166 379L260.666 384L262.166 385C272.566 394.6 285.833 395 291.166 394C294.766 391.6 293.666 390 292.666 389.5Z" fill="#D0936B"/>
<path d="M251.665 286C254.465 276.8 256.499 283.834 257.165 288.5C259.165 294.036 270.332 299.473 275.665 301.5C282.065 306.7 276.665 310 273.165 311C265.565 309 264.332 317.5 264.665 322C265.465 332.8 274.998 343.5 279.665 347.5C281.265 351.5 278.998 353.167 277.665 353.5C267.665 349.9 261.498 338.667 259.665 333.5C254.865 319.1 261.665 307.834 265.665 304C250.865 299.2 250.165 290 251.665 286Z" fill="#D0916B"/>
<path d="M511.666 50.5002C502.066 40.9002 429.666 38.5002 394.666 38.5002L311.666 90.5002L346.166 355.5L468.666 467.5L582.166 392.5L585.666 386.5C596.466 389.7 606.833 389.5 610.666 389C625.066 386.2 629.666 380.167 630.166 377.5C631.766 369.9 629.499 363 628.166 360.5C627.366 354.1 595.833 292.834 580.166 263V253.5C590.166 231.5 587.166 193.5 581.666 171C583.666 114 547.166 77.4548 529.166 66.0002C527.333 64.8336 521.266 60.1002 511.666 50.5002Z" fill="#FFCCA9"/>
<path d="M519.667 292.5C517.667 270.1 525.167 258.167 529.167 255C549.968 255 544.167 281.667 538.666 295C537.066 302.2 531.667 304 529.167 304C521.968 302.4 519.834 295.667 519.667 292.5Z" fill="#3C3934"/>
<path d="M478.665 246C480.665 242.8 491.498 240 496.665 239C512.664 232.639 541.665 234.683 554.166 236.5C559.766 238.5 566.499 237.334 569.166 236.5C572.766 226.5 565.666 219.334 561.666 217C549.666 211.4 527.333 212.334 517.666 213.5C498.866 214.7 479.832 229.334 472.665 236.5C466.665 240.5 476.165 250 478.665 246Z" fill="#8B8A87"/>
<path d="M587.165 387L582.665 391.5C581.465 390.3 573.499 389 569.666 388.5C562.466 389.7 552.999 389 549.166 388.5C543.966 386.1 542.332 383.167 542.165 382C540.965 373.2 544.331 370.667 546.165 370.5C548.965 370.9 548.665 376.334 548.165 379C545.365 382.2 560.332 382.667 568.165 382.5C574.165 382.1 583.332 385.334 587.165 387Z" fill="#CD9068"/>
<path d="M208.162 454C234.962 443.6 254.329 400.666 260.662 380.5C225.863 350.499 220.162 303 221.661 283C229.261 245 263.161 249.833 279.161 257L298.661 268C324.161 374.5 310.161 363 310.161 406C302.661 501.5 348.161 533.5 366.661 542C383.461 565.2 411.661 578.333 423.661 582C444.061 597.2 466.828 597.667 475.661 596C513.661 623.5 533.661 617.257 554.661 613C591.661 605.5 619.161 543 584.161 482C580.961 473.6 578.161 450.167 577.161 439.5C601.161 413.9 591.494 398.833 583.661 394.5C554.161 387.5 506.161 388 476.661 441C464.161 389.5 420.661 376 395.661 363C361.661 337.8 358.661 299 354.661 279C395.161 193 362.161 161.5 351.161 141.5L352.161 136.5C363.361 130.5 374.494 108 378.661 97.5C392.661 97.5 408.494 112.5 414.661 120L424.661 138.5C436.161 97.5 410.661 80 396.661 69C420.661 65.8 442.328 79 450.161 86C447.761 66 422.494 47.6667 410.161 41C462.561 37.4 519.661 60.1667 541.661 72C528.461 21.6 448.494 16.3332 410.161 19.9998C369.661 6.49999 315.161 -5.00023 253.161 24.4998C202.361 32.4998 179.161 80.4998 176.661 106.5C127.861 125.7 116.329 172.5 116.663 193.5C60.1634 260 96.161 320 112.162 341C107.662 393 143.163 418.5 154.662 423.5L156.662 426.5C173.462 450.1 197.996 454.666 208.162 454Z" fill="#B6AB9F"/>
<path d="M515.605 441.678C511.838 446.609 516.319 446.746 519.031 446.199C536.842 431.406 536.157 417.435 536.157 412.504C533.074 406.915 531.162 410.175 530.591 412.504C530.591 427.296 520.6 438.117 515.605 441.678Z" fill="#8E8E8E"/>
<path d="M535.686 434.478C532.675 434.807 529.414 437.908 528.16 439.418H540.285C543.295 436.454 547.113 434.341 548.646 433.654C558.011 426.08 559.516 417.05 559.098 413.482C556.088 403.931 553.663 410.051 552.827 414.305C550.82 425.174 543.211 432.008 535.686 434.478Z" fill="#8E8E8E"/>
<path d="M411.483 19.4393C512.966 13.3889 540.326 52.8403 541.321 73.3223C525.552 62.3662 477.111 40.562 409.502 40.9934C422.834 47.6737 449.62 66.1327 450.113 86.5268C443.775 79.511 424.213 66.1458 396.67 68.8111C411.216 77.4627 437.219 103.543 424.863 138.651L413.896 119.41C408.403 112.874 393.707 99.3915 378.863 97.7492C370.888 116.972 361.888 129.438 352.026 137C349.161 179.5 242.877 102.656 176.661 110.5C176.661 53.0002 240.31 21.2365 252.529 23.2756C309.398 -7.70557 382.194 7.80922 411.483 19.4393Z" fill="#B6AB9F"/>
<path d="M523.66 444C529.26 434 559.993 437.167 574.66 440C577.06 442 573.993 444.167 572.16 445C548.96 443 534.493 444.834 530.16 446C524.96 447.6 523.66 445.334 523.66 444Z" fill="#8E8E8E"/>
<path d="M255.786 64.2525C243.786 64.2525 250.786 57.5858 255.786 54.2525C293.387 33.4525 331.119 39.9192 345.285 45.7525C350.885 46.9525 347.618 50.5858 345.285 52.2525C329.685 46.6525 310.785 47.5858 303.285 48.7525C296.085 49.1525 283.618 52.5858 278.285 54.2525C296.285 59.0525 306.452 70.5858 309.285 75.7525C315.285 88.1525 311.785 90.2525 309.285 89.7525C290.885 57.7525 265.952 59.4192 255.786 64.2525Z" fill="#8E8E8E"/>
<path d="M553.161 567.5C542.361 577.5 541.159 567.5 546.661 561C556.261 544.2 549.327 525.333 544.66 518C537.86 505.6 543.16 505.833 546.661 507.5C566.661 527.1 559.327 555.667 553.161 567.5Z" fill="#8E8E8E"/>
<path d="M242.666 240C226.473 248.744 230.228 235.157 238.915 229C253.73 218.5 257.166 177.5 238.915 167.637C234.544 150.504 242.447 158.392 246.166 161.5C261.666 178.5 271.666 203 242.666 240Z" fill="#8E8E8E"/>
<path d="M307.166 262.5C297.667 270 299.585 262.527 303.166 252.5C308.166 238.5 310.491 210 297.667 187.5C292.586 170.564 303.321 181.049 307.166 184C315.166 206.5 320.166 223 307.166 262.5Z" fill="#8E8E8E"/>
<path d="M403.66 480C418.66 487 425.66 488 420.659 479C388.175 462.5 382.16 420.5 383.659 406C383.757 391.858 378.448 399.372 376.159 402.5C372.16 438.5 392.615 472.513 403.66 480Z" fill="#8E8E8E"/>
<path d="M182.769 423.287C193.391 427.526 198.259 427.941 194.455 421.929C171.399 411.825 165.598 383.091 166.062 373.03C165.574 363.271 162.207 368.662 160.751 370.91C159.408 395.9 174.856 418.557 182.769 423.287Z" fill="#8E8E8E"/>
<path d="M164.401 313.398C176.249 324.958 182.526 328.213 180.777 318.067C155.562 291.766 155.961 265.192 162.163 252C168.161 240.4 170.997 224.167 171.666 217.5C172.866 209.1 169.499 207.334 167.666 207.5C164.866 208.3 164.323 214.5 164.401 217.5C164.401 224.7 158.909 238.834 156.163 245C140.502 277.661 156.447 302.684 164.401 313.398Z" fill="#8E8E8E"/>
<path d="M459.662 534.5C451.662 542.5 453.256 537.993 456.662 527C460.068 516.007 463.162 510 468.663 489C471.806 477 473.104 483.587 475.662 486.5C475.662 509 470.162 513.5 459.662 534.5Z" fill="#8E8E8E"/>
<path d="M6.16222 1074C3.66584 1024.5 -43.8351 687.5 170.666 552.5L167.666 608.5L351.666 696H438.666L410.166 636C449.166 676 467.166 708.5 483.666 741.5C462.466 741.5 452.166 780.5 446.166 798.5L370.666 1096L468.666 1098C484.666 1219.5 423.166 1313.5 410.166 1368C315.666 1364 158.666 1382.5 88.166 1234.5C62.166 1232.9 44.3327 1227.5 38.666 1225C31.066 1221 26.4992 1213 25.1658 1209.5C11.1658 1188.3 6.66342 1110.33 6.16222 1074Z" fill="#EAD7BC"/>
<path d="M323.667 1108C308.067 1138.4 232.5 1207.33 196.667 1238C193.067 1245.2 204.5 1241 210.667 1238C253.067 1216.8 303.667 1153.5 323.667 1124.5C337.267 1106.5 329.334 1106 323.667 1108Z" fill="#CEBDA6"/>
<path d="M354.166 983.5C355.366 1006.3 344.999 1044.67 339.666 1061C375.666 1017.8 367.666 881.334 359.166 818.5C356.366 812.1 354.666 815.834 354.166 818.5C359.166 865.5 358.166 937.5 354.166 983.5Z" fill="#CEBDA6"/>
<path d="M357.675 1097.01C291.165 1087.5 240.665 1087.5 173.165 1116.5C165.187 1115.43 174.631 1105.89 180.579 1102.48C231.665 1080.5 273.165 1076.5 311.165 1080.5C333.698 1079.38 362.516 1093.44 357.675 1097.01Z" fill="#CEBDA6"/>
<path d="M357.666 1088C360.066 1092.4 358.666 1095.5 357.666 1096.5L347.666 1089.5L335.166 1065.5L329.666 1057H340.166L342.166 1060.5C345.166 1063.5 354.666 1082.5 357.666 1088Z" fill="#CEBDA6"/>
<path d="M308.165 1052.5C313.365 1054.5 325.665 1057 331.165 1058L334.665 1064.5C260.665 1075 185.665 969 171.165 933C167.965 919.4 172.498 919.334 175.165 921C218.165 1013 277.165 1040.58 308.165 1052.5Z" fill="#CEBDA6"/>
<path d="M314.665 922.5C318.265 984.1 327.165 1038.83 331.165 1058.5C335.999 1062.33 344.465 1067.7 339.665 1058.5C334.865 1049.3 330.665 999 329.165 975C329.965 947.4 318.165 844.5 312.665 814C297.165 700 239.165 671 200.665 656C192.265 656.8 197.165 660.334 200.665 662C322.665 725 300.165 850 314.665 922.5Z" fill="#CEBDA6"/>
<path d="M383.341 1187.99C373.91 1218.14 334.167 1276.5 296.167 1312C294.021 1319.13 304.454 1315.75 309.664 1312C365.618 1256.3 373.654 1238 389.654 1199.5C399.273 1180.92 388.253 1185.23 383.341 1187.99Z" fill="#CEBDA6"/>
<path d="M81.166 1222.5L95.666 1242.5C50.166 1125.5 53.666 847.5 53.666 846.5C53.666 845.7 52.9993 844.5 52.666 844C45.466 839.6 43.9993 853.834 44.166 861.5C41.666 1017 52.166 1110 69.666 1187C17.3324 1113.5 14.166 1065.5 3.66602 1014C3.66648 1043.5 4.66602 1063 6.66602 1079.5C23.666 1145 55.666 1192 81.166 1222.5Z" fill="#CFBFA6"/>
</svg>
