<svg width="41" height="47" viewBox="0 0 41 47" fill="none" xmlns="http://www.w3.org/2000/svg">
<path d="M0.381006 33.2671L0.944826 14.7757C1.12769 8.77846 8.30729 2.99459 11.3059 3.08602L15.304 3.20792L15.1364 8.70537L13.6371 8.65965C10.6385 8.56822 7.01823 12.4597 6.94204 14.9585L6.37822 33.4499C6.29288 36.2486 9.69891 39.384 12.1773 40.1298L13.1769 40.1603L12.994 46.1575L11.9945 46.127C2.39893 45.8344 0.254019 37.4318 0.381006 33.2671Z" fill="#AB2B2B"/>
<path d="M34.9329 32.5097L38.2368 14.3071C39.3084 8.40354 33.4924 1.24988 30.5406 0.71412L26.6049 -0.000232458L25.6227 5.41135L27.0986 5.67923C30.0504 6.215 32.7798 10.7757 32.3333 13.2356L29.0294 31.4382C28.5294 34.1931 24.5445 36.5495 21.965 36.7621L20.9811 36.5835L19.9096 42.4871L20.8935 42.6657C30.3392 44.3801 34.1888 36.6094 34.9329 32.5097Z" fill="#AB2B2B"/>
</svg>
