<svg width="697" height="841" viewBox="0 0 697 841" fill="none" xmlns="http://www.w3.org/2000/svg">
<path d="M663.5 279.532C681.5 596.532 601.5 775.532 573.5 840.032C554.3 795.632 526.833 776.199 515.5 772.032C609 571.032 606.5 343.032 599.5 239.032H605.5C639.9 271.032 658.5 279.366 663.5 279.532Z" fill="#F1C1A7"/>
<path d="M23.5 769.032C29.5 739.832 10.3333 715.532 0 707.032L517 772.532C546.6 785.332 567.667 822.866 574.5 840.032L23.5 769.032Z" fill="#EFBBA0"/>
<path d="M0 707.032C102 494.032 76 323.032 69.5 240.032L600.5 239.032C606 387.532 605.5 586.032 516 772.532L0 707.032Z" fill="#FFEED6"/>
<path d="M118.5 519.032C120.5 511.032 123.333 487.366 124.5 476.532L369 476.032L363.5 519.032H118.5Z" fill="#E5B194"/>
<rect x="131" y="301.032" width="421" height="44" fill="#E5B194"/>
<path d="M129 432.532C130.2 427.332 131.167 401.699 131.5 389.532H551C549.4 394.732 548.333 420.366 548 432.532H129Z" fill="#E5B194"/>
<path d="M453.002 575.537C370.499 571.539 339 689.037 422.503 705.537C518.5 716.032 545.5 580.019 453.002 575.537Z" fill="#EFC4A6"/>
<path d="M21.0039 201.532C21.0038 210.532 27.5001 214.532 33.0039 215.032L602.5 214.532C611.3 213.332 618 210.032 619 198.032L625 104.532C625 99.3322 619 96.3656 616 95.5322H39.5C31.1 95.9322 26.5 103.532 26.5 107.032L21.0039 201.532Z" fill="#769FE9" stroke="#4D84E4"/>
<path d="M25.5 212.032L26.0496 212.541C27.4783 213.501 30.7917 214.248 32.5 214.532H602C611 214.532 618 210.032 619 198.032L625.5 106.532C625.5 102.132 619.833 97.3656 617 95.5322C620.2 95.5322 623.333 97.8656 624.5 99.0322L689 159.032C698 166.532 695.5 176.032 695.5 182.032L687 262.532C687 270.032 672.5 290.532 651 276.532L605 241.032H63.5C57.5 241.032 53.6667 238.366 52.5 237.032L26.0496 212.541C25.8057 212.377 25.6167 212.207 25.5 212.032Z" fill="#5784D6"/>
<path d="M25.5 212.032L52.5 237.032C53.6667 238.366 57.5 241.032 63.5 241.032H605L651 276.532C672.5 290.532 687 270.032 687 262.532L695.5 182.032C695.5 176.032 698 166.532 689 159.032L624.5 99.0322C623.333 97.8656 620.2 95.5322 617 95.5322C619.833 97.3656 625.5 102.132 625.5 106.532L619 198.032C618 210.032 611 214.532 602 214.532H32.5C30.5 214.199 26.3 213.232 25.5 212.032Z" stroke="#2561CD"/>
<path d="M220 95.032C220 42.032 175 27.0322 157 51.532C177.5 36.5322 190.1 81.4319 188.5 95.032H220Z" fill="#C2CBE7" stroke="#AEBDE2"/>
<path d="M179.5 162.533C159.5 211.033 107.5 186.533 107.5 162.533C143 195.532 166 167.334 166 162.533C167.5 158.032 167 150.532 160.5 146.532C158 143.7 153 137.134 153 133.533C179.5 133.532 179.5 150.532 179.5 162.533Z" fill="#5582D5"/>
<path d="M166.5 158.533C168 166.033 145.5 197.533 107.5 162.533C85.4998 129.532 85.4998 113.032 85.4998 95.5322C85.0998 71.1322 91.3331 54.3662 94.4998 49.0331C118 1.03223 149.5 1.03223 166.5 1.03223C234.5 8.03223 237 63.5322 239 94.0331H219.5C226.5 60.5314 182.5 20.0321 158 49.0331C133.5 93.0331 149.9 127.033 152 133.033C154.8 141.033 157.166 143.366 158 143.533C165.6 149.533 166.833 156.033 166.5 158.533Z" fill="#E4EBF8"/>
<path d="M131 175.035C89 157.535 88.5 113.535 87.5 94.0348C87.5 20.4366 137.5 -2.96777 175 1.53344C231.5 12.5325 237 62.0325 239 93.5348H220C222.5 71.5337 199.5 25.5341 164.5 44.0348C155.3 49.2348 149 65.5348 147 73.0348C139 106.535 145 124.868 155 141.535C156.2 143.535 160.5 148.368 162.5 150.535C166.5 155.335 164.833 161.868 163.5 164.535C160 174.035 141 179.201 131 175.035Z" fill="#E5E9F8" stroke="#EFF5F8"/>
<path d="M107.5 110.532C90.2999 108.932 96.9999 75.1988 102.5 58.5321C112.9 29.732 132.833 18.1987 141.5 16.0321C160.5 13.0322 161 29.0321 147 40.0321C135.4 46.4321 129.5 72.0321 128 84.0321C127.6 109.232 114.167 112.199 107.5 110.532Z" fill="#F8F8FF"/>
<path d="M399.519 96.0643C399.519 43.0643 354.519 28.0645 336.519 52.5643C357.019 37.5645 369.619 82.4641 368.019 96.0643H399.519Z" fill="#C2CBE7" stroke="#AEBDE2"/>
<path d="M359.019 163.565C339.019 212.065 287.019 187.565 287.019 163.565C322.519 196.564 345.519 168.366 345.519 163.565C347.019 159.064 346.519 151.564 340.019 147.564C337.519 144.732 332.519 138.166 332.519 134.565C359.019 134.565 359.019 151.564 359.019 163.565Z" fill="#5582D5"/>
<path d="M346.018 159.565C347.518 167.065 325.018 198.565 287.018 163.565C265.018 130.564 265.018 114.064 265.018 96.5645C264.618 72.1645 270.852 55.3984 274.018 50.0654C297.518 2.06445 329.018 2.06445 346.018 2.06445C414.018 9.06445 416.518 64.5645 418.518 95.0654H399.018C406.018 61.5636 362.018 21.0643 337.518 50.0654C313.018 94.0654 329.418 128.065 331.518 134.065C334.318 142.065 336.685 144.399 337.518 144.565C345.118 150.565 346.352 157.065 346.018 159.565Z" fill="#E4EBF8"/>
<path d="M310.519 176.067C268.519 158.567 268.019 114.567 267.019 95.067C267.019 21.4688 317.019 -1.93555 354.519 2.56567C411.019 13.5647 416.519 63.0647 418.519 94.567H399.519C402.019 72.5659 379.019 26.5664 344.019 45.067C334.819 50.267 328.519 66.567 326.519 74.067C318.519 107.567 324.519 125.9 334.519 142.567C335.719 144.567 340.019 149.4 342.019 151.567C346.019 156.367 344.352 162.9 343.019 165.567C339.519 175.067 320.519 180.234 310.519 176.067Z" fill="#E5E9F8" stroke="#EFF5F8"/>
<path d="M287.018 111.564C269.818 109.964 276.518 76.231 282.018 59.5643C292.418 30.7642 312.352 19.2309 321.019 17.0643C340.019 14.0645 340.519 30.0643 326.519 41.0643C314.919 47.4643 309.019 73.0643 307.519 85.0643C307.119 110.264 293.685 113.231 287.018 111.564Z" fill="#F8F8FF"/>
<path d="M579.519 96.0643C579.519 43.0643 534.519 28.0645 516.519 52.5643C537.019 37.5645 549.619 82.4641 548.019 96.0643H579.519Z" fill="#C2CBE7" stroke="#AEBDE2"/>
<path d="M539.019 163.565C519.019 212.065 467.019 187.565 467.019 163.565C502.519 196.564 525.519 168.366 525.519 163.565C527.019 159.064 526.519 151.564 520.019 147.564C517.519 144.732 512.519 138.166 512.519 134.565C539.019 134.565 539.019 151.564 539.019 163.565Z" fill="#5582D5"/>
<path d="M526.018 159.565C527.518 167.065 505.018 198.565 467.018 163.565C445.018 130.564 445.018 114.064 445.018 96.5645C444.618 72.1645 450.852 55.3984 454.018 50.0654C477.518 2.06445 509.018 2.06445 526.018 2.06445C594.018 9.06445 596.518 64.5645 598.518 95.0654H579.018C586.018 61.5636 542.018 21.0643 517.518 50.0654C493.018 94.0654 509.418 128.065 511.518 134.065C514.318 142.065 516.685 144.399 517.518 144.565C525.118 150.565 526.352 157.065 526.018 159.565Z" fill="#E4EBF8"/>
<path d="M490.519 176.067C448.519 158.567 448.019 114.567 447.019 95.067C447.019 21.4688 497.019 -1.93555 534.519 2.56567C591.019 13.5647 596.519 63.0647 598.519 94.567H579.519C582.019 72.5659 559.019 26.5664 524.019 45.067C514.819 50.267 508.519 66.567 506.519 74.067C498.519 107.567 504.519 125.9 514.519 142.567C515.719 144.567 520.019 149.4 522.019 151.567C526.019 156.367 524.352 162.9 523.019 165.567C519.519 175.067 500.519 180.234 490.519 176.067Z" fill="#E5E9F8" stroke="#EFF5F8"/>
<path d="M467.018 111.564C449.818 109.964 456.518 76.231 462.018 59.5643C472.418 30.7642 492.352 19.2309 501.019 17.0643C520.019 14.0645 520.519 30.0643 506.519 41.0643C494.919 47.4643 489.019 73.0643 487.519 85.0643C487.119 110.264 473.685 113.231 467.018 111.564Z" fill="#F8F8FF"/>
</svg>
