<svg width="40" height="40" viewBox="0 0 40 40" fill="none" xmlns="http://www.w3.org/2000/svg">
<path d="M24.5827 19.9993C24.5827 20.9058 24.3139 21.792 23.8103 22.5457C23.3066 23.2994 22.5908 23.8869 21.7533 24.2338C20.9158 24.5807 19.9943 24.6715 19.1052 24.4946C18.2161 24.3178 17.3994 23.8812 16.7584 23.2403C16.1175 22.5993 15.6809 21.7826 15.5041 20.8935C15.3272 20.0044 15.418 19.0829 15.7649 18.2454C16.1118 17.4079 16.6993 16.6921 17.453 16.1884C18.2067 15.6848 19.0929 15.416 19.9994 15.416" stroke="white" stroke-width="1.2" stroke-linecap="round" stroke-linejoin="round"/>
<path d="M21.833 11.0163C21.2402 10.8953 20.6291 10.8342 19.9997 10.833C14.9369 10.833 10.833 14.9369 10.833 19.9997C10.833 25.0624 14.9369 29.1663 19.9997 29.1663C25.0624 29.1663 29.1663 25.0624 29.1663 19.9997C29.1651 19.3702 29.104 18.7591 28.983 18.1663" stroke="white" stroke-width="1.2" stroke-linecap="round" stroke-linejoin="round"/>
<path d="M20.0273 19.965L24.2009 15.7914M27.0948 12.9828L26.5879 11.1604C26.5677 11.091 26.5306 11.0277 26.48 10.976C26.4294 10.9243 26.3669 10.8859 26.2979 10.8641C26.2289 10.8424 26.1557 10.838 26.0846 10.8513C26.0135 10.8646 25.9468 10.8952 25.8903 10.9404C24.574 12.0157 23.1403 13.4649 24.3109 15.7502C26.6704 16.8502 28.0179 15.367 29.0501 14.1194C29.0968 14.062 29.1284 13.9938 29.1421 13.921C29.1559 13.8483 29.1512 13.7732 29.1287 13.7027C29.1061 13.6322 29.0663 13.5684 29.0129 13.5171C28.9595 13.4659 28.8941 13.4287 28.8228 13.409L27.0948 12.9828Z" stroke="white" stroke-width="1.2" stroke-linecap="round" stroke-linejoin="round"/>
</svg>
