<svg width="30" height="30" viewBox="0 0 30 30" fill="none" xmlns="http://www.w3.org/2000/svg">
<path fill-rule="evenodd" clip-rule="evenodd" d="M20.2625 5.59516L22.5452 7.49476C22.7656 7.71435 22.8891 8.01618 22.8873 8.3308C22.8855 8.64544 22.7586 8.94579 22.5358 9.16276L20.8012 11.3228L14.8978 18.6872C14.7956 18.8103 14.6581 18.8972 14.5047 18.9356L11.4439 19.6556C11.0377 19.6727 10.6875 19.3665 10.6411 18.9536L10.7843 15.866C10.7949 15.7083 10.8559 15.5586 10.958 15.44L16.6066 8.40196L18.5959 5.92036C18.9824 5.38245 19.7094 5.2406 20.2625 5.59516Z" stroke="white" stroke-linecap="round" stroke-linejoin="round"/>
<path d="M14.6305 23.8553H7.09116V23.501H22.1698V23.8553H14.6305Z" fill="black" stroke="white"/>
</svg>
