<svg width="40" height="40" viewBox="0 0 40 40" fill="none" xmlns="http://www.w3.org/2000/svg">
<path fill-rule="evenodd" clip-rule="evenodd" d="M26.262 9.59516L28.5447 11.4948C28.7651 11.7144 28.8887 12.0162 28.8868 12.3308C28.885 12.6454 28.7582 12.9458 28.5353 13.1628L26.8007 15.3228L20.8973 22.6872C20.7951 22.8103 20.6576 22.8972 20.5042 22.9356L17.4434 23.6556C17.0372 23.6727 16.687 23.3665 16.6406 22.9536L16.7838 19.866C16.7944 19.7083 16.8554 19.5586 16.9575 19.44L22.6061 12.402L24.5954 9.92036C24.9819 9.38245 25.709 9.2406 26.262 9.59516Z" stroke="white" stroke-linecap="round" stroke-linejoin="round"/>
<path d="M20.6305 27.8553H13.0912V27.501H28.1698V27.8553H20.6305Z" fill="black" stroke="white"/>
</svg>
