<svg width="36" height="64" viewBox="0 0 36 64" fill="none" xmlns="http://www.w3.org/2000/svg">
<rect x="15" y="26.9966" width="6" height="37" rx="3" fill="#2BAB69"/>
<path d="M0 30.4966V11.9966C0 5.99658 7 -0.00341797 10 -0.00341797H24C31.5 -0.00341797 36 8.49658 36 11.9966V30.4966C36 33.6966 33 42.9966 23 42.9966V36.9966C28.2 36.9966 29.8333 32.6632 30 30.4966V11.9966C29.5 7.99658 27 5.49658 23.5 5.49658H12.5C9.5 5.49658 6 9.49658 6 11.9966V30.4966C6 33.2966 9.5 36.3267 12 36.9966H13V42.9966H12C2.4 42.9966 0 34.6632 0 30.4966Z" fill="#2BAB69"/>
</svg>
