<svg width="132" height="157" viewBox="0 0 132 157" fill="none" xmlns="http://www.w3.org/2000/svg">
<rect x="52" y="78" width="25" height="25" rx="12.5" fill="white"/>
<path d="M60.4333 46.5844L59.918 86.0032L65.0473 91.1114L69.4151 85.7659L68.4308 46.3848C67.8917 44.8271 60.8939 45.0016 60.4333 46.5844Z" fill="white"/>
<path d="M104.5 29V31L122 48.5H124.5L131 42V39.5L113 23.5H111L104.5 29Z" fill="white"/>
<path d="M104.5 34.5L103 35L121 52.5V49.5L123 48.5C115.8 40.1 107.667 33.3333 104.5 31V34.5Z" fill="#CECECE"/>
<path d="M53.5 21.5L56.5 25H73.5L76.5 21V17H53.5V21.5Z" fill="#CECECE"/>
<rect x="42" width="47" height="17" rx="8.5" fill="white"/>
<path d="M69.5 25C104.018 25 132 52.9822 132 87.5V94.5C132 129.018 104.018 157 69.5 157H62.5C27.9822 157 0 129.018 0 94.5V87.5C1.80416e-06 52.9822 27.9822 25 62.5 25H69.5ZM66.5 40C38.6096 40 16 62.6096 16 90.5C16 118.39 38.6096 141 66.5 141C94.3904 141 117 118.39 117 90.5C117 62.6096 94.3904 40 66.5 40Z" fill="white"/>
</svg>
