<svg width="143" height="177" viewBox="0 0 143 177" fill="none" xmlns="http://www.w3.org/2000/svg">
<rect x="34.1035" width="73" height="18" rx="9" fill="#D9E3EB"/>
<rect x="46.1035" y="18" width="50" height="10" fill="#ABBFDB"/>
<path d="M46.1037 59.5V28H96.1035V59.5L97.1035 61.5L142.104 138C147.104 167.5 123.604 177 114.604 177H27.6035C12.8035 177 3.77031 161.333 1.1037 153.5C-1.2963 144.7 0.77037 137.5 2.1037 135L46.1037 61.5V59.5Z" fill="#D7E0EA"/>
<path d="M100.103 105H42.6026C36.2019 105 34.6035 108.5 33.6035 110L16.6026 137.5C9.40263 152.3 22.6035 162.5 30.1026 163.5H113.103C125.103 163.5 132.103 146.5 127.103 139.5L109.603 110C107.603 105.6 102.436 104.834 100.103 105Z" fill="#5A84D3"/>
<rect x="56.1035" y="80" width="17" height="17" rx="8.5" fill="#AFC0D7"/>
<rect x="77.1035" y="120" width="17" height="17" rx="8.5" fill="#C7D6EB"/>
<rect x="45.1035" y="134" width="17" height="17" rx="8.5" fill="#C7D6EB"/>
</svg>
