<svg width="21" height="24" viewBox="0 0 21 24" fill="none" xmlns="http://www.w3.org/2000/svg">
<rect x="5.53418" width="9.70519" height="2.39306" rx="1.19653" fill="white"/>
<path d="M7.12938 7.3787V2.56836H13.7767V7.3787L13.9097 7.64459L19.8923 17.8151C20.5571 21.7371 17.4328 23.0001 16.2363 23.0001H4.66983C2.7022 23.0001 1.50125 20.9172 1.14673 19.8758C0.82766 18.7058 1.10242 17.7486 1.27968 17.4163L7.12938 7.64459V7.3787Z" stroke="white"/>
<path d="M14.3085 13.5606H6.66399C5.81303 13.5606 5.60053 14.0259 5.46758 14.2254L3.20735 17.8814C2.25012 19.849 4.00515 21.2051 5.00214 21.338H16.0368C17.6322 21.338 18.5628 19.0779 17.8981 18.1473L15.5715 14.2254C15.3056 13.6404 14.6187 13.5385 14.3085 13.5606Z" fill="white" stroke="white"/>
<rect x="9.02401" y="10.8021" width="1.13006" height="1.13006" rx="0.565028" fill="white" stroke="white" stroke-width="1.13006"/>
<rect x="11.8155" y="16.12" width="1.13006" height="1.13006" rx="0.565028" fill="#222222" stroke="#222222" stroke-width="1.13006"/>
<rect x="7.56161" y="17.9813" width="1.13006" height="1.13006" rx="0.565028" fill="#222222" stroke="#222222" stroke-width="1.13006"/>
</svg>
