<svg width="265" height="299" viewBox="0 0 265 299" fill="none" xmlns="http://www.w3.org/2000/svg">
<path d="M55 0C11 0 0 36 0 60.5L0.5 177C0.5 198.2 15 219.5 22 226.5C49.2 256.5 86.6667 280 102 288C131.6 307.6 150 295 163 288C191.8 276 230.667 240 246.5 223.5C261.3 208.7 264.333 181.667 264 170V49.5C264 24.5 241.5 0 206 0H55Z" fill="#9BADC0"/>
<path d="M30.9043 170.486L30.499 76.0322C30.4987 65.7239 30.2087 54.5569 33.8604 45.8105C35.6118 41.6155 38.2207 38.1518 42.165 35.6865C46.1457 33.1987 51.852 31.5 60.1631 31.5H192.969C201.176 31.5 207.94 31.661 213.547 32.4365C219.145 33.2108 223.206 34.5525 226.212 36.6465C231.907 40.6142 235.48 48.5504 235.479 67.1328V164.895L235.481 164.958C235.605 169.298 235.097 176.724 233.127 184.454C231.143 192.236 227.804 199.833 222.613 205.024L222.58 205.058L222.548 205.091C216.242 211.664 205.289 222.182 193.041 232.244C180.715 242.37 167.421 251.747 156.385 256.347L156.179 256.433L155.982 256.538C150.398 259.546 144.838 263.016 137.735 264.144C130.942 265.222 122.339 264.153 111.158 256.748L110.963 256.619L110.756 256.511L109.566 255.881C96.963 249.109 68.9858 231.261 48.1826 208.728L47.165 207.616L47.0908 207.534L47.0137 207.457L46.5352 206.963C44.0525 204.331 40.2527 199.245 37.002 192.85C33.5354 186.03 30.9043 178.135 30.9043 170.505V170.486Z" fill="#74889F" stroke="#667A91" stroke-width="9"/>
<rect x="95" y="49" width="73" height="18" rx="9" fill="#D9E3EB"/>
<rect x="107" y="67" width="50" height="10" fill="#ABBFDB"/>
<path d="M107 108.5V77H157V108.5L158 110.5L203 187C208 216.5 184.5 226 175.5 226H88.5C73.7 226 64.6668 210.333 62.0002 202.5C59.6002 193.7 61.6669 186.5 63.0002 184L107 110.5V108.5Z" fill="#D7E0EA"/>
<path d="M160.999 154H103.499C97.0984 154 95.5 157.5 94.5 159L77.4991 186.5C70.2991 201.3 83.5 211.5 90.9991 212.5H173.999C185.999 212.5 192.999 195.5 187.999 188.5L170.499 159C168.499 154.6 163.332 153.834 160.999 154Z" fill="#7193AE"/>
<rect x="117" y="129" width="17" height="17" rx="8.5" fill="#B0C1DA"/>
<rect x="138" y="169" width="17" height="17" rx="8.5" fill="#B0C1DA"/>
<rect x="106" y="183" width="17" height="17" rx="8.5" fill="#B0C1DA"/>
</svg>
