<svg width="145" height="115" viewBox="0 0 145 115" fill="none" xmlns="http://www.w3.org/2000/svg">
<path d="M14.607 97.7926C8.38626 97.7926 8.73197 94.6823 8.73197 91.572L14.607 84.3146L88.5629 81.8955L133.835 87.0793L136.945 92.2632C136.669 94.4749 137.637 97.447 132.453 97.447L85.1071 98.4838C83.0335 101.94 69.5555 109.197 58.8423 97.7926H58.4967H14.607Z" fill="#EAB764"/>
<path d="M8.38672 91.9188V6.21278C33.6147 -5.88427 67.828 1.71917 69.9016 11.7422C71.5604 15.0604 73.8182 13.1248 74.7398 11.7422C86.1442 -6.22888 132.453 1.71942 137.291 6.55837V92.9556C133.49 87.7718 92.7104 78.7865 75.7766 94.6836C74.0486 96.4115 70.3623 95.3747 69.9016 94.6836C67.828 91.5733 41.2177 77.4041 8.38672 91.9188Z" fill="#FDE3B3"/>
<path d="M70.9385 94.6823V13.1233C72.3208 14.7822 74.5096 12.4322 75.4311 11.0498V94.3368C73.4958 95.7191 71.6297 95.1431 70.9385 94.6823Z" fill="#FDD58B"/>
<g filter="url(#filter0_i_1586_55)">
<path d="M0.0966797 15.8884C1.20256 12.2943 6.08689 7.93986 8.39082 6.21191L8.7364 93.9915C8.7364 96.7562 12.1923 97.4474 13.9202 97.4474H56.7733C57.5781 97.4474 59.5478 97.6461 60.57 98.8298C67.1362 106.433 79.5774 103.322 83.3789 98.8298C83.8397 98.369 85.1068 97.4474 86.4892 97.4474H132.112C135.982 97.4474 136.95 94.2219 136.95 92.6092V6.21191C137.641 6.90309 144.898 12.7781 144.898 16.5796V98.8298C144.898 104.636 136.95 107.469 134.531 107.469H87.5307C83.038 111.617 69.2145 119.911 56.7733 107.469L9.77317 107.124C2.30845 107.124 0.211876 101.134 0.0966797 98.1386V15.8884Z" fill="#A95B20"/>
</g>
<path d="M8.49219 6.21191C7.00386 7.24868 -0.944012 13.1237 0.0927553 16.9252L4.51791 12.7781L8.49219 7.93986V6.21191Z" fill="#A95B20"/>
<path d="M136.95 6.21191C138.678 7.93986 145.936 13.8149 144.899 17.6164L140.924 12.7781L136.95 7.93986V6.21191Z" fill="#A95B20"/>
<defs>
<filter id="filter0_i_1586_55" x="0.0966797" y="6.21191" width="144.802" height="107.928" filterUnits="userSpaceOnUse" color-interpolation-filters="sRGB">
<feFlood flood-opacity="0" result="BackgroundImageFix"/>
<feBlend mode="normal" in="SourceGraphic" in2="BackgroundImageFix" result="shape"/>
<feColorMatrix in="SourceAlpha" type="matrix" values="0 0 0 0 0 0 0 0 0 0 0 0 0 0 0 0 0 0 127 0" result="hardAlpha"/>
<feOffset dy="1"/>
<feGaussianBlur stdDeviation="0.05"/>
<feComposite in2="hardAlpha" operator="arithmetic" k2="-1" k3="1"/>
<feColorMatrix type="matrix" values="0 0 0 0 0 0 0 0 0 0 0 0 0 0 0 0 0 0 0.25 0"/>
<feBlend mode="normal" in2="shape" result="effect1_innerShadow_1586_55"/>
</filter>
</defs>
</svg>
