<svg width="64" height="64" viewBox="0 0 64 64" fill="none" xmlns="http://www.w3.org/2000/svg">
<rect width="64" height="64" rx="8" fill="white"/>
<path d="M10.154 53.5654V19.2622V19.1186H16.1821C18.0767 19.1186 19.4594 20.5539 19.9139 21.2716L31.9702 38.782L44.0984 21.128C44.7199 20.0516 46.9667 19.0469 47.7572 19.0469H53.4995V53.7807C53.4995 55.7327 51.7771 57.3689 50.7007 57.3689H44.0984V37.6338L31.9702 50.5457L19.555 37.6338V57.3689H13.0246C11.5175 57.3689 10.1061 54.8332 10.154 53.5654Z" fill="#1990FE"/>
<path d="M8 13.3199L31.5386 6L54.8746 13.3199L50.0538 14.6117L31.8974 12.5305L31.5386 13.3199L48.1879 15.1659L31.5386 19.6271L8 13.3199Z" fill="#686868"/>
<path d="M31.5387 19.6022L15.033 15.0449V19.8853C15.0027 20.6567 15.5204 22.7778 17.2561 23.0879L31.5387 27.9843V19.6022Z" fill="#5E5E5E"/>
<path d="M48.5467 15.0449L31.5386 19.6022V27.9843C35.8408 27.018 44.8531 23.7654 46.4846 23.0879C48.1161 22.4103 48.5467 20.4638 48.5467 19.8853V15.0449Z" fill="#585656"/>
<g filter="url(#filter0_d_2027_399)">
<path d="M31.9185 19.8846L11.4712 14.0996H53.1231L31.9185 19.8846Z" fill="#BABABA" fill-opacity="0.01"/>
</g>
<path d="M52.9243 24.0156C52.8669 24.0156 52.6372 24.1592 52.6372 24.2309V24.3027H54.5748V24.1592C54.46 24.0443 54.3356 24.0156 54.2878 24.0156H52.9243Z" fill="#F0AB07"/>
<path d="M52.8525 27.0269C52.8525 26.9695 53.0439 26.6681 53.1396 26.5245C53.3549 26.381 53.8429 26.137 54.0725 26.3092C54.3022 26.4815 54.3596 26.8116 54.3596 26.9551L54.0725 27.0269C53.6659 27.0508 52.8525 27.0843 52.8525 27.0269Z" fill="#F0AB07"/>
<path d="M51.6328 35.4947C51.6328 30.4999 52.1352 27.6006 53.0681 26.3807C53.0681 25.6763 53.3121 24.6902 54.2881 26.3807C55.2641 28.0711 55.6516 33.161 55.7234 35.4947H51.6328Z" fill="#F0AB07"/>
<rect x="51.9194" y="23.5117" width="3.44468" height="3.44468" rx="1.72234" fill="#F0AB07"/>
<path d="M54.4313 24.1591V13.3945L52.7808 13.8251V24.1591H54.4313Z" fill="#F0AB07"/>
<defs>
<filter id="filter0_d_2027_399" x="8.47119" y="13.0996" width="47.6519" height="11.7852" filterUnits="userSpaceOnUse" color-interpolation-filters="sRGB">
<feFlood flood-opacity="0" result="BackgroundImageFix"/>
<feColorMatrix in="SourceAlpha" type="matrix" values="0 0 0 0 0 0 0 0 0 0 0 0 0 0 0 0 0 0 127 0" result="hardAlpha"/>
<feOffset dy="2"/>
<feGaussianBlur stdDeviation="1.5"/>
<feColorMatrix type="matrix" values="0 0 0 0 0 0 0 0 0 0 0 0 0 0 0 0 0 0 0.37 0"/>
<feBlend mode="normal" in2="BackgroundImageFix" result="effect1_dropShadow_2027_399"/>
<feBlend mode="normal" in="SourceGraphic" in2="effect1_dropShadow_2027_399" result="shape"/>
</filter>
</defs>
</svg>
