<svg width="54" height="48" viewBox="0 0 54 48" fill="none" xmlns="http://www.w3.org/2000/svg">
<path d="M12 13.1538L27 42L42 13.1538" stroke="white" stroke-width="5" stroke-linecap="round"/>
<path d="M37.6933 6.54458C37.8487 6.54549 37.9312 6.22545 37.5157 6.22545C37.1047 6.17812 37.2117 5.48947 37.736 5.56307C38.3029 5.64265 38.3282 6.56286 37.6933 6.54458Z" fill="white"/>
<path d="M50.3067 6.54458C50.1513 6.54549 50.0688 6.22545 50.4843 6.22545C50.8953 6.17812 50.7883 5.48947 50.264 5.56307C49.6971 5.64265 49.6718 6.56286 50.3067 6.54458Z" fill="white"/>
<path d="M36.7816 1.49065V1H51.2941V1.51519L50.7067 1.51419V1.71145L50.462 2.0549V2.71728C50.3886 2.70911 50.2368 2.69766 50.2172 2.71728C50.1977 2.73691 50.1601 2.90537 50.1438 2.98714H37.8828L37.8339 2.76635H37.4913V2.0549L37.2221 1.73598V1.4914L36.7816 1.49065Z" fill="white"/>
<path d="M39.9883 5.17055C39.9883 5.29236 39.9011 5.35666 39.8457 5.37358V6.43948L39.9408 6.6425H40.6064L40.6777 6.43948V5.37358C40.6381 5.3482 40.5636 5.27206 40.5826 5.17055H39.9883Z" fill="white"/>
<path d="M40.8204 5.17055C40.8204 5.29236 40.7332 5.35666 40.6777 5.37358V6.43948L40.7728 6.6425H41.4385L41.5098 6.43948V5.37358C41.4702 5.3482 41.3957 5.27206 41.4147 5.17055H40.8204Z" fill="white"/>
<path d="M41.6525 5.17055C41.6525 5.29236 41.5653 5.35666 41.5098 5.37358V6.43948L41.6049 6.6425H42.2706L42.3419 6.43948V5.37358C42.3023 5.3482 42.2278 5.27206 42.2468 5.17055H41.6525Z" fill="white"/>
<path d="M42.4845 5.17055C42.4845 5.29236 42.3974 5.35666 42.3419 5.37358V6.43948L42.437 6.6425H43.1027L43.174 6.43948V5.37358C43.1344 5.3482 43.0599 5.27206 43.0789 5.17055H42.4845Z" fill="white"/>
<path d="M43.3166 5.17055C43.3166 5.29236 43.2295 5.35666 43.174 5.37358V6.43948L43.2691 6.6425H43.9347L44.0061 6.43948V5.37358C43.9664 5.3482 43.892 5.27206 43.911 5.17055H43.3166Z" fill="white"/>
<path d="M44.1487 5.17055C44.1487 5.29236 44.0615 5.35666 44.0061 5.37358V6.43948L44.1012 6.6425H44.7668L44.8382 6.43948V5.37358C44.7985 5.3482 44.724 5.27206 44.7431 5.17055H44.1487Z" fill="white"/>
<path d="M44.9808 5.17055C44.9808 5.29236 44.8936 5.35666 44.8382 5.37358V6.43948L44.9332 6.6425H45.5989L45.6702 6.43948V5.37358C45.6306 5.3482 45.5561 5.27206 45.5751 5.17055H44.9808Z" fill="white"/>
<path d="M45.8129 5.17055C45.8129 5.29236 45.7257 5.35666 45.6702 5.37358V6.43948L45.7653 6.6425H46.431L46.5023 6.43948V5.37358C46.4627 5.3482 46.3882 5.27206 46.4072 5.17055H45.8129Z" fill="white"/>
<path d="M46.645 5.17055C46.645 5.29236 46.5578 5.35666 46.5023 5.37358V6.43948L46.5974 6.6425H47.2631L47.3344 6.43948V5.37358C47.2948 5.3482 47.2203 5.27206 47.2393 5.17055H46.645Z" fill="white"/>
<path d="M47.477 5.17055C47.477 5.29236 47.3899 5.35666 47.3344 5.37358V6.43948L47.4295 6.6425H48.0952L48.1665 6.43948V5.37358C48.1269 5.3482 48.0524 5.27206 48.0714 5.17055H47.477Z" fill="white"/>
<path d="M39.9925 8.9731C39.6009 8.63946 39.7396 8.43339 39.8457 8.33526L48.1175 8.31072C48.4699 8.68362 48.1828 8.90768 47.9952 8.9731H39.9925Z" fill="white"/>
<path d="M39.9925 9.29203L39.9925 8.9731H48.0441V9.41469C48.2791 9.68946 48.0931 9.83992 47.9707 9.88081H39.9925C39.7576 9.76305 39.8946 9.43922 39.9925 9.29203Z" fill="white"/>
<path d="M40.1393 10.1016L40.017 9.90534L47.9952 9.88081L47.8728 10.1016H40.1393Z" fill="white"/>
<path d="M40.1638 39.4181V10.1261H47.8239V39.4181H40.1638Z" fill="white"/>
<path d="M40.4085 38.3141V11.3773C40.4085 11.0093 40.9714 11.0584 40.9714 11.3773V38.3141C40.9714 38.6821 40.4085 38.6576 40.4085 38.3141Z" fill="white"/>
<path d="M41.7056 38.3141V11.3773C41.7056 11.0093 42.2685 11.0584 42.2685 11.3773V38.3141C42.2685 38.6821 41.7056 38.6576 41.7056 38.3141Z" fill="white"/>
<path d="M43.0027 38.3141V11.3773C43.0027 11.0093 43.5656 11.0584 43.5656 11.3773V38.3141C43.5656 38.6821 43.0027 38.6576 43.0027 38.3141Z" fill="white"/>
<path d="M44.2997 38.3141V11.3773C44.2997 11.0093 44.8626 11.0584 44.8626 11.3773V38.3141C44.8626 38.6821 44.2997 38.6576 44.2997 38.3141Z" fill="white"/>
<path d="M45.5968 38.3141V11.3773C45.5968 11.0093 46.1597 11.0584 46.1597 11.3773V38.3141C46.1597 38.6821 45.5968 38.6576 45.5968 38.3141Z" fill="white"/>
<path d="M46.8939 38.3141V11.3773C46.8939 11.0093 47.4568 11.0584 47.4568 11.3773V38.3141C47.4568 38.6821 46.8939 38.6576 46.8939 38.3141Z" fill="white"/>
<path d="M39.968 39.4181H40.1883L48.0686 39.4426L48.7294 40.0559V40.6447C48.7294 40.7036 48.6478 40.7837 48.607 40.8165H39.4051L39.2828 40.5957V40.0805C39.3219 39.9235 39.7559 39.5735 39.968 39.4181Z" fill="white"/>
<path d="M39.4051 40.8165H48.607C48.6641 40.8819 48.7489 41.0471 48.6315 41.1844H39.4051C39.348 41.119 39.2681 40.9538 39.4051 40.8165Z" fill="white"/>
<path d="M48.607 41.1844H39.4051C39.0381 41.3071 38.4409 41.8174 38.9891 42.8772H48.9251C49.3167 42.73 49.6055 41.6358 48.607 41.1844Z" fill="white"/>
<path d="M38.6709 44.202C38.2402 43.515 38.7199 43.0326 39.0136 42.8772H48.9496C49.7328 43.309 49.4554 43.9403 49.2188 44.202H38.6709Z" fill="white"/>
<path d="M38.6465 44.5945C38.5094 44.4571 38.622 44.2756 38.6954 44.202H49.2433C49.4391 44.3197 49.3738 44.5127 49.3167 44.5945H38.6465Z" fill="white"/>
<path d="M39.136 46.9987C37.3935 46.7435 37.7655 44.8153 38.6955 44.5945H49.3167C50.9319 45.723 49.5125 47.0477 48.8273 46.9987H39.136Z" fill="white"/>
<path d="M37.8967 2.98714C34.3236 2.98714 33.7607 8.18806 37.8827 8.18806C40.428 7.96727 40.4732 4.21377 37.6871 4.21377C35.4661 4.21377 35.4249 7.30489 37.6871 7.30489C39.3267 7.30489 39.414 4.87615 37.6871 4.87615C36.3705 4.87615 36.2237 6.76517 37.6871 6.76517C38.7465 6.76517 38.622 5.26868 37.6871 5.26868C36.9089 5.26868 36.6592 6.34811 37.6871 6.54437M37.6871 6.54437C37.6892 6.54445 37.6912 6.54452 37.6933 6.54458M37.6871 6.54437C36.7621 6.54437 36.6152 5.14601 37.6871 5.14601C39.1065 5.14601 38.9019 6.98596 37.736 6.98596C35.881 6.98596 35.8165 4.65536 37.736 4.65536C39.9035 4.65536 39.9279 7.52568 37.736 7.59928C34.9859 7.69161 34.862 3.91938 37.736 3.84578C38.666 3.89485 40.5749 4.43457 44.0011 4.36097C45.8121 4.36097 49.2834 3.84578 50.3201 3.84578M37.6933 6.54458C38.3282 6.56286 38.3029 5.64265 37.736 5.56307C37.2117 5.48947 37.1047 6.17812 37.5157 6.22545C37.9312 6.22545 37.8487 6.54549 37.6933 6.54458ZM50.1033 2.98714C53.6764 2.98714 54.2393 8.18806 50.1173 8.18806C47.572 7.96727 47.5268 4.21377 50.3129 4.21377C52.5339 4.21377 52.5751 7.30489 50.3129 7.30489C48.6733 7.30489 48.586 4.87615 50.3129 4.87615C51.6295 4.87615 51.7763 6.76517 50.3129 6.76517C49.2535 6.76517 49.378 5.26868 50.3129 5.26868C51.0911 5.26868 51.3408 6.34811 50.3129 6.54437M50.3129 6.54437C50.3108 6.54445 50.3088 6.54452 50.3067 6.54458M50.3129 6.54437C51.2379 6.54437 51.3848 5.14601 50.3129 5.14601C48.8935 5.14601 49.0981 6.98596 50.264 6.98596C52.119 6.98596 52.1835 4.65536 50.264 4.65536C48.0965 4.65536 48.0721 7.52568 50.264 7.59928C53.0141 7.69161 53.138 3.91938 50.264 3.84578M50.3067 6.54458C49.6718 6.56286 49.6971 5.64265 50.264 5.56307C50.7883 5.48947 50.8953 6.17812 50.4843 6.22545C50.0688 6.22545 50.1513 6.54549 50.3067 6.54458ZM37.2221 1.4914L36.7816 1.49065V1H51.2941V1.51519L50.7067 1.51419M37.2221 1.4914V1.73598L37.4913 2.0549M37.2221 1.4914L50.7067 1.51419M37.4913 2.0549H50.462M37.4913 2.0549V2.76635H37.8339L37.8828 2.98714H50.1438C50.1601 2.90537 50.1977 2.73691 50.2172 2.71728C50.2368 2.69766 50.3886 2.70911 50.462 2.71728V2.0549M50.462 2.0549L50.7067 1.71145V1.51419M38.4362 2.52404C38.4195 2.54079 38.3596 2.78234 38.3317 2.90102C38.2816 3.00155 38.2064 2.96386 38.1855 2.90102C38.1646 2.81725 38.1019 2.60781 38.0601 2.52404C38.0183 2.44026 37.9487 2.45422 37.893 2.46121C37.801 2.46077 37.8286 2.23082 37.893 2.23082C37.9938 2.23083 38.1132 2.22148 38.1646 2.23082C38.2142 2.24909 38.2509 2.40555 38.1646 2.46121C38.1548 2.46719 38.1382 2.48285 38.1499 2.49758L38.2325 2.8197C38.2417 2.83504 38.2656 2.85651 38.2876 2.8197L38.3519 2.49758C38.3519 2.48253 38.3482 2.45419 38.3335 2.46121M38.3395 2.46117C38.2532 2.40551 38.2899 2.24905 38.3395 2.23079C38.3909 2.22144 38.5103 2.23079 38.6111 2.23079C38.6755 2.23079 38.703 2.46073 38.6111 2.46117C38.5554 2.45419 38.4763 2.44141 38.4345 2.52519M39.5931 2.52404C39.5764 2.54079 39.5165 2.78234 39.4886 2.90102C39.4385 3.00155 39.3632 2.96386 39.3424 2.90102C39.3215 2.81725 39.2588 2.60781 39.217 2.52404C39.1752 2.44026 39.1056 2.45422 39.0499 2.46121C38.9579 2.46077 38.9855 2.23082 39.0499 2.23082C39.1507 2.23083 39.2701 2.22148 39.3215 2.23082C39.3711 2.24909 39.4078 2.40555 39.3215 2.46121C39.3117 2.46719 39.2951 2.48285 39.3068 2.49758L39.3894 2.8197C39.3986 2.83504 39.4225 2.85651 39.4445 2.8197L39.5088 2.49758C39.5088 2.48253 39.5051 2.45419 39.4904 2.46121M39.4964 2.46117C39.4101 2.40551 39.4468 2.24905 39.4964 2.23079C39.5478 2.22144 39.6671 2.23079 39.768 2.23079C39.8324 2.23079 39.8599 2.46073 39.768 2.46117C39.7123 2.45419 39.6332 2.44141 39.5914 2.52519M40.75 2.52404C40.7332 2.54079 40.6733 2.78234 40.6455 2.90102C40.5953 3.00155 40.5201 2.96386 40.4992 2.90102C40.4783 2.81725 40.4157 2.60781 40.3739 2.52404C40.3321 2.44026 40.2625 2.45422 40.2067 2.46121C40.1148 2.46077 40.1423 2.23082 40.2067 2.23082C40.3076 2.23083 40.427 2.22148 40.4783 2.23082C40.528 2.24909 40.5647 2.40555 40.4783 2.46121C40.4686 2.46719 40.452 2.48285 40.4637 2.49758L40.5463 2.8197C40.5555 2.83504 40.5794 2.85651 40.6014 2.8197L40.6657 2.49758C40.6657 2.48253 40.662 2.45419 40.6473 2.46121M40.6533 2.46117C40.567 2.40551 40.6037 2.24905 40.6533 2.23079C40.7047 2.22144 40.824 2.23079 40.9249 2.23079C40.9893 2.23079 41.0168 2.46073 40.9249 2.46117C40.8692 2.45419 40.7901 2.44141 40.7483 2.52519M41.9068 2.52404C41.8901 2.54079 41.8302 2.78234 41.8024 2.90102C41.7522 3.00155 41.677 2.96386 41.6561 2.90102C41.6352 2.81725 41.5726 2.60781 41.5308 2.52404C41.489 2.44026 41.4193 2.45422 41.3636 2.46121C41.2717 2.46077 41.2992 2.23082 41.3636 2.23082C41.4645 2.23083 41.5839 2.22148 41.6352 2.23082C41.6848 2.24909 41.7216 2.40555 41.6352 2.46121C41.6255 2.46719 41.6089 2.48285 41.6206 2.49758L41.7032 2.8197C41.7124 2.83504 41.7363 2.85651 41.7583 2.8197L41.8226 2.49758C41.8226 2.48253 41.8189 2.45419 41.8042 2.46121M41.8102 2.46117C41.7238 2.40551 41.7606 2.24905 41.8102 2.23079C41.8616 2.22144 41.9809 2.23079 42.0818 2.23079C42.1462 2.23079 42.1737 2.46073 42.0818 2.46117C42.0261 2.45419 41.947 2.44141 41.9052 2.52519M43.0637 2.52404C43.047 2.54079 42.9871 2.78234 42.9593 2.90102C42.9091 3.00155 42.8339 2.96386 42.813 2.90102C42.7921 2.81725 42.7294 2.60781 42.6877 2.52404C42.6459 2.44026 42.5762 2.45422 42.5205 2.46121C42.4286 2.46077 42.4561 2.23082 42.5205 2.23082C42.6214 2.23083 42.7407 2.22148 42.7921 2.23082C42.8417 2.24909 42.8785 2.40555 42.7921 2.46121C42.7824 2.46719 42.7657 2.48285 42.7775 2.49758L42.8601 2.8197C42.8693 2.83504 42.8931 2.85651 42.9152 2.8197L42.9794 2.49758C42.9794 2.48253 42.9758 2.45419 42.9611 2.46121M42.9671 2.46117C42.8807 2.40551 42.9174 2.24905 42.9671 2.23079C43.0184 2.22144 43.1378 2.23079 43.2387 2.23079C43.3031 2.23079 43.3306 2.46073 43.2387 2.46117C43.183 2.45419 43.1039 2.44141 43.0621 2.52519M44.2206 2.52404C44.2039 2.54079 44.144 2.78234 44.1162 2.90102C44.066 3.00155 43.9908 2.96386 43.9699 2.90102C43.949 2.81725 43.8863 2.60781 43.8445 2.52404C43.8028 2.44026 43.7331 2.45422 43.6774 2.46121C43.5855 2.46077 43.613 2.23082 43.6774 2.23082C43.7783 2.23083 43.8976 2.22148 43.949 2.23082C43.9986 2.24909 44.0353 2.40555 43.949 2.46121C43.9392 2.46719 43.9226 2.48285 43.9344 2.49758L44.017 2.8197C44.0262 2.83504 44.05 2.85651 44.0721 2.8197L44.1363 2.49758C44.1363 2.48253 44.1327 2.45419 44.118 2.46121M44.1239 2.46117C44.0376 2.40551 44.0743 2.24905 44.1239 2.23079C44.1753 2.22144 44.2947 2.23079 44.3956 2.23079C44.4599 2.23079 44.4875 2.46073 44.3956 2.46117C44.3398 2.45419 44.2607 2.44141 44.219 2.52519M45.3775 2.52404C45.3608 2.54079 45.3009 2.78234 45.273 2.90102C45.2229 3.00155 45.1477 2.96386 45.1268 2.90102C45.1059 2.81725 45.0432 2.60781 45.0014 2.52404C44.9596 2.44026 44.89 2.45422 44.8343 2.46121C44.7424 2.46077 44.7699 2.23082 44.8343 2.23082C44.9351 2.23083 45.0545 2.22148 45.1059 2.23082C45.1555 2.24909 45.1922 2.40555 45.1059 2.46121C45.0961 2.46719 45.0795 2.48285 45.0912 2.49758L45.1739 2.8197C45.183 2.83504 45.2069 2.85651 45.229 2.8197L45.2932 2.49758C45.2932 2.48253 45.2895 2.45419 45.2749 2.46121M45.2808 2.46117C45.1945 2.40551 45.2312 2.24905 45.2808 2.23079C45.3322 2.22144 45.4516 2.23079 45.5524 2.23079C45.6168 2.23079 45.6444 2.46073 45.5524 2.46117C45.4967 2.45419 45.4176 2.44141 45.3758 2.52519M46.5344 2.52404C46.5177 2.54079 46.4578 2.78234 46.4299 2.90102C46.3798 3.00155 46.3046 2.96386 46.2837 2.90102C46.2628 2.81725 46.2001 2.60781 46.1583 2.52404C46.1165 2.44026 46.0469 2.45422 45.9912 2.46121C45.8992 2.46077 45.9268 2.23082 45.9912 2.23082C46.092 2.23083 46.2114 2.22148 46.2628 2.23082C46.3124 2.24909 46.3491 2.40555 46.2628 2.46121C46.253 2.46719 46.2364 2.48285 46.2481 2.49758L46.3308 2.8197C46.3399 2.83504 46.3638 2.85651 46.3858 2.8197L46.4501 2.49758C46.4501 2.48253 46.4464 2.45419 46.4317 2.46121M46.4377 2.46117C46.3514 2.40551 46.3881 2.24905 46.4377 2.23079C46.4891 2.22144 46.6085 2.23079 46.7093 2.23079C46.7737 2.23079 46.8013 2.46073 46.7093 2.46117C46.6536 2.45419 46.5745 2.44141 46.5327 2.52519M47.6913 2.52404C47.6746 2.54079 47.6147 2.78234 47.5868 2.90102C47.5367 3.00155 47.4615 2.96386 47.4406 2.90102C47.4197 2.81725 47.357 2.60781 47.3152 2.52404C47.2734 2.44026 47.2038 2.45422 47.1481 2.46121C47.0561 2.46077 47.0837 2.23082 47.1481 2.23082C47.2489 2.23083 47.3683 2.22148 47.4197 2.23082C47.4693 2.24909 47.506 2.40555 47.4197 2.46121C47.4099 2.46719 47.3933 2.48285 47.405 2.49758L47.4876 2.8197C47.4968 2.83504 47.5207 2.85651 47.5427 2.8197L47.607 2.49758C47.607 2.48253 47.6033 2.45419 47.5886 2.46121M47.5946 2.46117C47.5083 2.40551 47.545 2.24905 47.5946 2.23079C47.646 2.22144 47.7654 2.23079 47.8662 2.23079C47.9306 2.23079 47.9581 2.46073 47.8662 2.46117C47.8105 2.45419 47.7314 2.44141 47.6896 2.52519M48.8482 2.52404C48.8314 2.54079 48.7716 2.78234 48.7437 2.90102C48.6936 3.00155 48.6183 2.96386 48.5974 2.90102C48.5766 2.81725 48.5139 2.60781 48.4721 2.52404C48.4303 2.44026 48.3607 2.45422 48.3049 2.46121C48.213 2.46077 48.2405 2.23082 48.3049 2.23082C48.4058 2.23083 48.5252 2.22148 48.5766 2.23082C48.6262 2.24909 48.6629 2.40555 48.5766 2.46121C48.5668 2.46719 48.5502 2.48285 48.5619 2.49758L48.6445 2.8197C48.6537 2.83504 48.6776 2.85651 48.6996 2.8197L48.7639 2.49758C48.7639 2.48253 48.7602 2.45419 48.7455 2.46121M48.7515 2.46117C48.6652 2.40551 48.7019 2.24905 48.7515 2.23079C48.8029 2.22144 48.9222 2.23079 49.0231 2.23079C49.0875 2.23079 49.115 2.46073 49.0231 2.46117C48.9674 2.45419 48.8883 2.44141 48.8465 2.52519M50.005 2.52404C49.9883 2.54079 49.9284 2.78234 49.9006 2.90102C49.8504 3.00155 49.7752 2.96386 49.7543 2.90102C49.7334 2.81725 49.6708 2.60781 49.629 2.52404C49.5872 2.44026 49.5175 2.45422 49.4618 2.46121C49.3699 2.46077 49.3974 2.23082 49.4618 2.23082C49.5627 2.23083 49.6821 2.22148 49.7334 2.23082C49.783 2.24909 49.8198 2.40555 49.7334 2.46121C49.7237 2.46719 49.7071 2.48285 49.7188 2.49758L49.8014 2.8197C49.8106 2.83504 49.8345 2.85651 49.8565 2.8197L49.9208 2.49758C49.9208 2.48253 49.9171 2.45419 49.9024 2.46121M49.9084 2.46117C49.822 2.40551 49.8588 2.24905 49.9084 2.23079C49.9598 2.22144 50.0791 2.23079 50.18 2.23079C50.2444 2.23079 50.2719 2.46073 50.18 2.46117C50.1243 2.45419 50.0452 2.44141 50.0034 2.52519M39.5275 5.14601H48.496M39.7233 6.69157H48.2888M39.4051 7.40302H42.0972C44.2263 7.01049 43.9327 7.23129 46.0129 7.40302H48.6315M40.6777 6.43948V5.37358M40.6777 6.43948L40.6064 6.6425H39.9408L39.8457 6.43948V5.37358C39.9011 5.35666 39.9883 5.29236 39.9883 5.17055H40.5826C40.5636 5.27206 40.6381 5.3482 40.6777 5.37358M40.6777 6.43948L40.7728 6.6425H41.4385L41.5098 6.43948M40.6777 5.37358C40.7332 5.35666 40.8204 5.29236 40.8204 5.17055H41.4147C41.3957 5.27206 41.4702 5.3482 41.5098 5.37358M41.5098 6.43948V5.37358M41.5098 6.43948L41.6049 6.6425H42.2706L42.3419 6.43948M41.5098 5.37358C41.5653 5.35666 41.6525 5.29236 41.6525 5.17055H42.2468C42.2278 5.27206 42.3023 5.3482 42.3419 5.37358M42.3419 6.43948V5.37358M42.3419 6.43948L42.437 6.6425H43.1027L43.174 6.43948M42.3419 5.37358C42.3974 5.35666 42.4845 5.29236 42.4845 5.17055H43.0789C43.0599 5.27206 43.1344 5.3482 43.174 5.37358M43.174 6.43948V5.37358M43.174 6.43948L43.2691 6.6425H43.9347L44.0061 6.43948M43.174 5.37358C43.2295 5.35666 43.3166 5.29236 43.3166 5.17055H43.911C43.892 5.27206 43.9664 5.3482 44.0061 5.37358M44.0061 6.43948V5.37358M44.0061 6.43948L44.1012 6.6425H44.7668L44.8382 6.43948M44.0061 5.37358C44.0615 5.35666 44.1487 5.29236 44.1487 5.17055H44.7431C44.724 5.27206 44.7985 5.3482 44.8382 5.37358M44.8382 6.43948V5.37358M44.8382 6.43948L44.9332 6.6425H45.5989L45.6702 6.43948M44.8382 5.37358C44.8936 5.35666 44.9808 5.29236 44.9808 5.17055H45.5751C45.5561 5.27206 45.6306 5.3482 45.6702 5.37358M45.6702 6.43948V5.37358M45.6702 6.43948L45.7653 6.6425H46.431L46.5023 6.43948M45.6702 5.37358C45.7257 5.35666 45.8129 5.29236 45.8129 5.17055H46.4072C46.3882 5.27206 46.4627 5.3482 46.5023 5.37358M46.5023 6.43948V5.37358M46.5023 6.43948L46.5974 6.6425H47.2631L47.3344 6.43948M46.5023 5.37358C46.5578 5.35666 46.645 5.29236 46.645 5.17055H47.2393C47.2203 5.27206 47.2948 5.3482 47.3344 5.37358M47.3344 6.43948V5.37358M47.3344 6.43948L47.4295 6.6425H48.0952L48.1665 6.43948V5.37358C48.1269 5.3482 48.0524 5.27206 48.0714 5.17055H47.477C47.477 5.29236 47.3899 5.35666 47.3344 5.37358M39.7253 7.37848C39.5377 7.59928 39.2946 8.09484 39.8232 8.31072H48.1196C48.348 8.2453 48.6923 7.97217 48.242 7.40302M39.9925 8.9731C39.6009 8.63946 39.7396 8.43339 39.8457 8.33526L48.1175 8.31072C48.4699 8.68362 48.1828 8.90768 47.9952 8.9731H39.9925ZM39.9925 8.9731L39.9925 9.29203C39.8946 9.43922 39.7576 9.76305 39.9925 9.88081H47.9707C48.0931 9.83992 48.2791 9.68946 48.0441 9.41469V8.9731H39.9925ZM39.4051 40.8165L39.2828 40.5957V40.0805C39.3219 39.9235 39.7559 39.5735 39.968 39.4181H40.1883L48.0686 39.4426L48.7294 40.0559V40.6447C48.7294 40.7036 48.6478 40.7837 48.607 40.8165M39.4051 40.8165H48.607M39.4051 40.8165C39.2681 40.9538 39.348 41.119 39.4051 41.1844M48.607 40.8165C48.6641 40.8819 48.7489 41.0471 48.6315 41.1844H39.4051M39.4051 41.1844H48.607C49.6055 41.6358 49.3167 42.73 48.9251 42.8772H38.9891C38.4409 41.8174 39.0381 41.3071 39.4051 41.1844ZM49.3167 44.5945H38.6465C38.5094 44.4571 38.622 44.2756 38.6954 44.202H49.2433C49.4391 44.3197 49.3738 44.5127 49.3167 44.5945ZM49.3167 44.5945C50.9319 45.723 49.5125 47.0477 48.8273 46.9987H39.136C37.3935 46.7435 37.7655 44.8153 38.6955 44.5945H49.3167ZM40.017 9.90534L40.1393 10.1016H47.8728L47.9952 9.88081L40.017 9.90534ZM40.1638 10.1261V39.4181H47.8239V10.1261H40.1638ZM40.4085 11.3773V38.3141C40.4085 38.6576 40.9714 38.6821 40.9714 38.3141V11.3773C40.9714 11.0584 40.4085 11.0093 40.4085 11.3773ZM41.7056 11.3773V38.3141C41.7056 38.6576 42.2685 38.6821 42.2685 38.3141V11.3773C42.2685 11.0584 41.7056 11.0093 41.7056 11.3773ZM43.0027 11.3773V38.3141C43.0027 38.6576 43.5656 38.6821 43.5656 38.3141V11.3773C43.5656 11.0584 43.0027 11.0093 43.0027 11.3773ZM44.2997 11.3773V38.3141C44.2997 38.6576 44.8626 38.6821 44.8626 38.3141V11.3773C44.8626 11.0584 44.2997 11.0093 44.2997 11.3773ZM45.5968 11.3773V38.3141C45.5968 38.6576 46.1597 38.6821 46.1597 38.3141V11.3773C46.1597 11.0584 45.5968 11.0093 45.5968 11.3773ZM46.8939 11.3773V38.3141C46.8939 38.6576 47.4568 38.6821 47.4568 38.3141V11.3773C47.4568 11.0584 46.8939 11.0093 46.8939 11.3773ZM39.0136 42.8772C38.7199 43.0326 38.2402 43.515 38.6709 44.202H49.2188C49.4554 43.9403 49.7328 43.309 48.9496 42.8772H39.0136Z" stroke="#6C6C6C" stroke-width="0.2"/>
<path d="M3.69333 6.54458C3.84866 6.54549 3.9312 6.22545 3.51575 6.22545C3.10468 6.17812 3.21169 5.48947 3.736 5.56307C4.30291 5.64265 4.32817 6.56286 3.69333 6.54458Z" fill="white"/>
<path d="M16.3067 6.54458C16.1513 6.54549 16.0688 6.22545 16.4843 6.22545C16.8953 6.17812 16.7883 5.48947 16.264 5.56307C15.6971 5.64265 15.6718 6.56286 16.3067 6.54458Z" fill="white"/>
<path d="M2.78156 1.49065V1H17.2941V1.51519L16.7067 1.51419V1.71145L16.462 2.0549V2.71728C16.3886 2.70911 16.2368 2.69766 16.2172 2.71728C16.1977 2.73691 16.1601 2.90537 16.1438 2.98714H3.88284L3.8339 2.76635H3.49128V2.0549L3.22207 1.73598V1.4914L2.78156 1.49065Z" fill="white"/>
<path d="M5.9883 5.17055C5.9883 5.29236 5.90113 5.35666 5.84566 5.37358V6.43948L5.94075 6.6425H6.60642L6.67774 6.43948V5.37358C6.63812 5.3482 6.56363 5.27206 6.58264 5.17055H5.9883Z" fill="white"/>
<path d="M6.82038 5.17055C6.82038 5.29236 6.73321 5.35666 6.67774 5.37358V6.43948L6.77284 6.6425H7.4385L7.50982 6.43948V5.37358C7.4702 5.3482 7.39571 5.27206 7.41473 5.17055H6.82038Z" fill="white"/>
<path d="M7.65247 5.17055C7.65247 5.29236 7.5653 5.35666 7.50982 5.37358V6.43948L7.60492 6.6425H8.27058L8.34191 6.43948V5.37358C8.30228 5.3482 8.22779 5.27206 8.24681 5.17055H7.65247Z" fill="white"/>
<path d="M8.48455 5.17055C8.48455 5.29236 8.39738 5.35666 8.34191 5.37358V6.43948L8.437 6.6425H9.10267L9.17399 6.43948V5.37358C9.13436 5.3482 9.05987 5.27206 9.07889 5.17055H8.48455Z" fill="white"/>
<path d="M9.31663 5.17055C9.31663 5.29236 9.22946 5.35666 9.17399 5.37358V6.43948L9.26908 6.6425H9.93475L10.0061 6.43948V5.37358C9.96645 5.3482 9.89196 5.27206 9.91098 5.17055H9.31663Z" fill="white"/>
<path d="M10.1487 5.17055C10.1487 5.29236 10.0615 5.35666 10.0061 5.37358V6.43948L10.1012 6.6425H10.7668L10.8382 6.43948V5.37358C10.7985 5.3482 10.724 5.27206 10.7431 5.17055H10.1487Z" fill="white"/>
<path d="M10.9808 5.17055C10.9808 5.29236 10.8936 5.35666 10.8382 5.37358V6.43948L10.9332 6.6425H11.5989L11.6702 6.43948V5.37358C11.6306 5.3482 11.5561 5.27206 11.5751 5.17055H10.9808Z" fill="white"/>
<path d="M11.8129 5.17055C11.8129 5.29236 11.7257 5.35666 11.6702 5.37358V6.43948L11.7653 6.6425H12.431L12.5023 6.43948V5.37358C12.4627 5.3482 12.3882 5.27206 12.4072 5.17055H11.8129Z" fill="white"/>
<path d="M12.645 5.17055C12.645 5.29236 12.5578 5.35666 12.5023 5.37358V6.43948L12.5974 6.6425H13.2631L13.3344 6.43948V5.37358C13.2948 5.3482 13.2203 5.27206 13.2393 5.17055H12.645Z" fill="white"/>
<path d="M13.477 5.17055C13.477 5.29236 13.3899 5.35666 13.3344 5.37358V6.43948L13.4295 6.6425H14.0952L14.1665 6.43948V5.37358C14.1269 5.3482 14.0524 5.27206 14.0714 5.17055H13.477Z" fill="white"/>
<path d="M5.9925 8.9731C5.60093 8.63946 5.73963 8.43339 5.84568 8.33526L14.1175 8.31072C14.4699 8.68362 14.1828 8.90768 13.9952 8.9731H5.9925Z" fill="white"/>
<path d="M5.99249 9.29203L5.9925 8.9731H14.0441V9.41469C14.2791 9.68946 14.0931 9.83992 13.9707 9.88081H5.99249C5.75755 9.76305 5.8946 9.43922 5.99249 9.29203Z" fill="white"/>
<path d="M6.13933 10.1016L6.01697 9.90534L13.9952 9.88081L13.8728 10.1016H6.13933Z" fill="white"/>
<path d="M6.16381 39.4181V10.1261H13.8239V39.4181H6.16381Z" fill="white"/>
<path d="M6.40854 38.3141V11.3773C6.40854 11.0093 6.97142 11.0584 6.97142 11.3773V38.3141C6.97142 38.6821 6.40854 38.6576 6.40854 38.3141Z" fill="white"/>
<path d="M7.70561 38.3141V11.3773C7.70561 11.0093 8.26849 11.0584 8.26849 11.3773V38.3141C8.26849 38.6821 7.70561 38.6576 7.70561 38.3141Z" fill="white"/>
<path d="M9.00268 38.3141V11.3773C9.00268 11.0093 9.56556 11.0584 9.56556 11.3773V38.3141C9.56556 38.6821 9.00268 38.6576 9.00268 38.3141Z" fill="white"/>
<path d="M10.2997 38.3141V11.3773C10.2997 11.0093 10.8626 11.0584 10.8626 11.3773V38.3141C10.8626 38.6821 10.2997 38.6576 10.2997 38.3141Z" fill="white"/>
<path d="M11.5968 38.3141V11.3773C11.5968 11.0093 12.1597 11.0584 12.1597 11.3773V38.3141C12.1597 38.6821 11.5968 38.6576 11.5968 38.3141Z" fill="white"/>
<path d="M12.8939 38.3141V11.3773C12.8939 11.0093 13.4568 11.0584 13.4568 11.3773V38.3141C13.4568 38.6821 12.8939 38.6576 12.8939 38.3141Z" fill="white"/>
<path d="M5.96802 39.4181H6.18828L14.0686 39.4426L14.7294 40.0559V40.6447C14.7294 40.7036 14.6478 40.7837 14.607 40.8165H5.40514L5.28278 40.5957V40.0805C5.32193 39.9235 5.75592 39.5735 5.96802 39.4181Z" fill="white"/>
<path d="M5.40514 40.8165H14.607C14.6641 40.8819 14.7489 41.0471 14.6315 41.1844H5.40515C5.34805 41.119 5.26809 40.9538 5.40514 40.8165Z" fill="white"/>
<path d="M14.607 41.1844H5.40515C5.03805 41.3071 4.44091 41.8174 4.98911 42.8772H14.9251C15.3167 42.73 15.6055 41.6358 14.607 41.1844Z" fill="white"/>
<path d="M4.67095 44.202C4.24022 43.515 4.7199 43.0326 5.01357 42.8772H14.9496C15.7328 43.309 15.4554 43.9403 15.2188 44.202H4.67095Z" fill="white"/>
<path d="M4.64648 44.5945C4.50943 44.4571 4.622 44.2756 4.69542 44.202H15.2433C15.4391 44.3197 15.3738 44.5127 15.3167 44.5945H4.64648Z" fill="white"/>
<path d="M5.13597 46.9987C3.39349 46.7435 3.76545 44.8153 4.69545 44.5945H15.3167C16.9319 45.723 15.5125 47.0477 14.8273 46.9987H5.13597Z" fill="white"/>
<path d="M3.89666 2.98714C0.323622 2.98714 -0.239289 8.18806 3.88269 8.18806C6.42803 7.96727 6.47316 4.21377 3.68706 4.21377C1.46613 4.21377 1.42491 7.30489 3.68706 7.30489C5.32675 7.30489 5.41401 4.87615 3.68706 4.87615C2.37049 4.87615 2.22365 6.76517 3.68706 6.76517C4.74653 6.76517 4.62201 5.26868 3.68706 5.26868C2.9089 5.26868 2.65919 6.34811 3.68706 6.54437M3.68706 6.54437C3.68916 6.54445 3.69125 6.54452 3.69333 6.54458M3.68706 6.54437C2.76206 6.54437 2.61522 5.14601 3.68706 5.14601C5.10649 5.14601 4.9019 6.98596 3.736 6.98596C1.88103 6.98596 1.81648 4.65536 3.736 4.65536C5.90347 4.65536 5.92794 7.52568 3.736 7.59928C0.985935 7.69162 0.862028 3.91938 3.736 3.84578C4.66598 3.89485 6.57488 4.43457 10.0011 4.36097C11.8121 4.36097 15.2834 3.84578 16.3201 3.84578M3.69333 6.54458C4.32817 6.56286 4.30291 5.64265 3.736 5.56307C3.21169 5.48947 3.10468 6.17812 3.51575 6.22545C3.9312 6.22545 3.84866 6.54549 3.69333 6.54458ZM16.1033 2.98714C19.6764 2.98714 20.2393 8.18806 16.1173 8.18806C13.572 7.96727 13.5268 4.21377 16.3129 4.21377C18.5339 4.21377 18.5751 7.30489 16.3129 7.30489C14.6733 7.30489 14.586 4.87615 16.3129 4.87615C17.6295 4.87615 17.7763 6.76517 16.3129 6.76517C15.2535 6.76517 15.378 5.26868 16.3129 5.26868C17.0911 5.26868 17.3408 6.34811 16.3129 6.54437M16.3129 6.54437C16.3108 6.54445 16.3088 6.54452 16.3067 6.54458M16.3129 6.54437C17.2379 6.54437 17.3848 5.14601 16.3129 5.14601C14.8935 5.14601 15.0981 6.98596 16.264 6.98596C18.119 6.98596 18.1835 4.65536 16.264 4.65536C14.0965 4.65536 14.0721 7.52568 16.264 7.59928C19.0141 7.69162 19.138 3.91938 16.264 3.84578M16.3067 6.54458C15.6718 6.56286 15.6971 5.64265 16.264 5.56307C16.7883 5.48947 16.8953 6.17812 16.4843 6.22545C16.0688 6.22545 16.1513 6.54549 16.3067 6.54458ZM3.22207 1.4914L2.78156 1.49065V1H17.2941V1.51519L16.7067 1.51419M3.22207 1.4914V1.73598L3.49128 2.0549M3.22207 1.4914L16.7067 1.51419M3.49128 2.0549H16.462M3.49128 2.0549V2.76635H3.8339L3.88284 2.98714H16.1438C16.1601 2.90537 16.1977 2.73691 16.2172 2.71728C16.2368 2.69766 16.3886 2.70911 16.462 2.71728V2.0549M16.462 2.0549L16.7067 1.71145V1.51419M4.43618 2.52404C4.41947 2.54079 4.35958 2.78234 4.33172 2.90102C4.28158 3.00155 4.20636 2.96386 4.18547 2.90102C4.16458 2.81725 4.1019 2.60781 4.06011 2.52404C4.01833 2.44026 3.94868 2.45422 3.89297 2.46121C3.80104 2.46077 3.82857 2.23082 3.89297 2.23082C3.99383 2.23083 4.11319 2.22148 4.16458 2.23082C4.21419 2.24909 4.25091 2.40555 4.16458 2.46121C4.1548 2.46719 4.13819 2.48285 4.14992 2.49758L4.23255 2.8197C4.24173 2.83504 4.2656 2.85651 4.28763 2.8197L4.3519 2.49758C4.3519 2.48253 4.34823 2.45419 4.33354 2.46121M4.33951 2.46117C4.25318 2.40551 4.2899 2.24905 4.33951 2.23079C4.39089 2.22144 4.51026 2.23079 4.61112 2.23079C4.67551 2.23079 4.70305 2.46073 4.61112 2.46117C4.5554 2.45419 4.47632 2.44141 4.43453 2.52519M5.59307 2.52404C5.57635 2.54079 5.51646 2.78234 5.48861 2.90102C5.43846 3.00155 5.36325 2.96386 5.34236 2.90102C5.32146 2.81725 5.25878 2.60781 5.217 2.52404C5.17521 2.44026 5.10557 2.45422 5.04985 2.46121C4.95793 2.46077 4.98546 2.23082 5.04985 2.23082C5.15071 2.23083 5.27008 2.22148 5.32146 2.23082C5.37107 2.24909 5.4078 2.40555 5.32146 2.46121C5.31169 2.46719 5.29508 2.48285 5.3068 2.49758L5.38943 2.8197C5.39861 2.83504 5.42249 2.85651 5.44452 2.8197L5.50879 2.49758C5.50879 2.48253 5.50512 2.45419 5.49043 2.46121M5.4964 2.46117C5.41006 2.40551 5.44679 2.24905 5.4964 2.23079C5.54778 2.22144 5.66715 2.23079 5.76801 2.23079C5.8324 2.23079 5.85994 2.46073 5.76801 2.46117C5.71229 2.45419 5.6332 2.44141 5.59142 2.52519M6.74996 2.52404C6.73324 2.54079 6.67335 2.78234 6.64549 2.90102C6.59535 3.00155 6.52013 2.96386 6.49924 2.90102C6.47835 2.81725 6.41567 2.60781 6.37388 2.52404C6.3321 2.44026 6.26246 2.45422 6.20674 2.46121C6.11481 2.46077 6.14235 2.23082 6.20674 2.23082C6.3076 2.23083 6.42697 2.22148 6.47835 2.23082C6.52796 2.24909 6.56468 2.40555 6.47835 2.46121C6.46858 2.46719 6.45197 2.48285 6.46369 2.49758L6.54632 2.8197C6.5555 2.83504 6.57937 2.85651 6.60141 2.8197L6.66567 2.49758C6.66567 2.48253 6.662 2.45419 6.64731 2.46121M6.65329 2.46117C6.56695 2.40551 6.60368 2.24905 6.65329 2.23079C6.70467 2.22144 6.82403 2.23079 6.92489 2.23079C6.98929 2.23079 7.01682 2.46073 6.92489 2.46117C6.86918 2.45419 6.79009 2.44141 6.7483 2.52519M7.90684 2.52404C7.89013 2.54079 7.83024 2.78234 7.80238 2.90102C7.75224 3.00155 7.67702 2.96386 7.65613 2.90102C7.63524 2.81725 7.57256 2.60781 7.53077 2.52404C7.48899 2.44026 7.41934 2.45422 7.36363 2.46121C7.2717 2.46077 7.29923 2.23082 7.36363 2.23082C7.46449 2.23083 7.58385 2.22148 7.63524 2.23082C7.68485 2.24909 7.72157 2.40555 7.63524 2.46121C7.62546 2.46719 7.60885 2.48285 7.62058 2.49758L7.70321 2.8197C7.71239 2.83504 7.73626 2.85651 7.75829 2.8197L7.82256 2.49758C7.82256 2.48253 7.81889 2.45419 7.8042 2.46121M7.81017 2.46117C7.72384 2.40551 7.76056 2.24905 7.81017 2.23079C7.86155 2.22144 7.98092 2.23079 8.08178 2.23079C8.14617 2.23079 8.17371 2.46073 8.08178 2.46117C8.02606 2.45419 7.94698 2.44141 7.90519 2.52519M9.06373 2.52404C9.04701 2.54079 8.98712 2.78234 8.95927 2.90102C8.90912 3.00155 8.83391 2.96386 8.81301 2.90102C8.79212 2.81725 8.72944 2.60781 8.68766 2.52404C8.64587 2.44026 8.57623 2.45422 8.52051 2.46121C8.42859 2.46077 8.45612 2.23082 8.52051 2.23082C8.62137 2.23083 8.74074 2.22148 8.79212 2.23082C8.84173 2.24909 8.87846 2.40555 8.79212 2.46121C8.78235 2.46719 8.76574 2.48285 8.77746 2.49758L8.86009 2.8197C8.86927 2.83504 8.89315 2.85651 8.91518 2.8197L8.97945 2.49758C8.97945 2.48253 8.97577 2.45419 8.96108 2.46121M8.96706 2.46117C8.88072 2.40551 8.91745 2.24905 8.96706 2.23079C9.01844 2.22144 9.13781 2.23079 9.23866 2.23079C9.30306 2.23079 9.33059 2.46073 9.23866 2.46117C9.18295 2.45419 9.10386 2.44141 9.06208 2.52519M10.2206 2.52404C10.2039 2.54079 10.144 2.78234 10.1162 2.90102C10.066 3.00155 9.99079 2.96386 9.9699 2.90102C9.94901 2.81725 9.88633 2.60781 9.84454 2.52404C9.80276 2.44026 9.73312 2.45422 9.6774 2.46121C9.58547 2.46077 9.61301 2.23082 9.6774 2.23082C9.77826 2.23083 9.89763 2.22148 9.94901 2.23082C9.99862 2.24909 10.0353 2.40555 9.94901 2.46121C9.93924 2.46719 9.92262 2.48285 9.93435 2.49758L10.017 2.8197C10.0262 2.83504 10.05 2.85651 10.0721 2.8197L10.1363 2.49758C10.1363 2.48253 10.1327 2.45419 10.118 2.46121M10.1239 2.46117C10.0376 2.40551 10.0743 2.24905 10.1239 2.23079C10.1753 2.22144 10.2947 2.23079 10.3956 2.23079C10.4599 2.23079 10.4875 2.46073 10.3956 2.46117C10.3398 2.45419 10.2607 2.44141 10.219 2.52519M11.3775 2.52404C11.3608 2.54079 11.3009 2.78234 11.273 2.90102C11.2229 3.00155 11.1477 2.96386 11.1268 2.90102C11.1059 2.81725 11.0432 2.60781 11.0014 2.52404C10.9596 2.44026 10.89 2.45422 10.8343 2.46121C10.7424 2.46077 10.7699 2.23082 10.8343 2.23082C10.9351 2.23083 11.0545 2.22148 11.1059 2.23082C11.1555 2.24909 11.1922 2.40555 11.1059 2.46121C11.0961 2.46719 11.0795 2.48285 11.0912 2.49758L11.1739 2.8197C11.183 2.83504 11.2069 2.85651 11.229 2.8197L11.2932 2.49758C11.2932 2.48253 11.2895 2.45419 11.2749 2.46121M11.2808 2.46117C11.1945 2.40551 11.2312 2.24905 11.2808 2.23079C11.3322 2.22144 11.4516 2.23079 11.5524 2.23079C11.6168 2.23079 11.6444 2.46073 11.5524 2.46117C11.4967 2.45419 11.4176 2.44141 11.3758 2.52519M12.5344 2.52404C12.5177 2.54079 12.4578 2.78234 12.4299 2.90102C12.3798 3.00155 12.3046 2.96386 12.2837 2.90102C12.2628 2.81725 12.2001 2.60781 12.1583 2.52404C12.1165 2.44026 12.0469 2.45422 11.9912 2.46121C11.8992 2.46077 11.9268 2.23082 11.9912 2.23082C12.092 2.23083 12.2114 2.22148 12.2628 2.23082C12.3124 2.24909 12.3491 2.40555 12.2628 2.46121C12.253 2.46719 12.2364 2.48285 12.2481 2.49758L12.3308 2.8197C12.3399 2.83504 12.3638 2.85651 12.3858 2.8197L12.4501 2.49758C12.4501 2.48253 12.4464 2.45419 12.4317 2.46121M12.4377 2.46117C12.3514 2.40551 12.3881 2.24905 12.4377 2.23079C12.4891 2.22144 12.6085 2.23079 12.7093 2.23079C12.7737 2.23079 12.8013 2.46073 12.7093 2.46117C12.6536 2.45419 12.5745 2.44141 12.5327 2.52519M13.6913 2.52404C13.6746 2.54079 13.6147 2.78234 13.5868 2.90102C13.5367 3.00155 13.4615 2.96386 13.4406 2.90102C13.4197 2.81725 13.357 2.60781 13.3152 2.52404C13.2734 2.44026 13.2038 2.45422 13.1481 2.46121C13.0561 2.46077 13.0837 2.23082 13.1481 2.23082C13.2489 2.23083 13.3683 2.22148 13.4197 2.23082C13.4693 2.24909 13.506 2.40555 13.4197 2.46121C13.4099 2.46719 13.3933 2.48285 13.405 2.49758L13.4876 2.8197C13.4968 2.83504 13.5207 2.85651 13.5427 2.8197L13.607 2.49758C13.607 2.48253 13.6033 2.45419 13.5886 2.46121M13.5946 2.46117C13.5083 2.40551 13.545 2.24905 13.5946 2.23079C13.646 2.22144 13.7654 2.23079 13.8662 2.23079C13.9306 2.23079 13.9581 2.46073 13.8662 2.46117C13.8105 2.45419 13.7314 2.44141 13.6896 2.52519M14.8482 2.52404C14.8314 2.54079 14.7716 2.78234 14.7437 2.90102C14.6936 3.00155 14.6183 2.96386 14.5974 2.90102C14.5766 2.81725 14.5139 2.60781 14.4721 2.52404C14.4303 2.44026 14.3607 2.45422 14.3049 2.46121C14.213 2.46077 14.2406 2.23082 14.3049 2.23082C14.4058 2.23083 14.5252 2.22148 14.5766 2.23082C14.6262 2.24909 14.6629 2.40555 14.5766 2.46121C14.5668 2.46719 14.5502 2.48285 14.5619 2.49758L14.6445 2.8197C14.6537 2.83504 14.6776 2.85651 14.6996 2.8197L14.7639 2.49758C14.7639 2.48253 14.7602 2.45419 14.7455 2.46121M14.7515 2.46117C14.6652 2.40551 14.7019 2.24905 14.7515 2.23079C14.8029 2.22144 14.9222 2.23079 15.0231 2.23079C15.0875 2.23079 15.115 2.46073 15.0231 2.46117C14.9674 2.45419 14.8883 2.44141 14.8465 2.52519M16.005 2.52404C15.9883 2.54079 15.9284 2.78234 15.9006 2.90102C15.8504 3.00155 15.7752 2.96386 15.7543 2.90102C15.7334 2.81725 15.6708 2.60781 15.629 2.52404C15.5872 2.44026 15.5175 2.45422 15.4618 2.46121C15.3699 2.46077 15.3974 2.23082 15.4618 2.23082C15.5627 2.23083 15.6821 2.22148 15.7334 2.23082C15.783 2.24909 15.8198 2.40555 15.7334 2.46121C15.7237 2.46719 15.7071 2.48285 15.7188 2.49758L15.8014 2.8197C15.8106 2.83504 15.8345 2.85651 15.8565 2.8197L15.9208 2.49758C15.9208 2.48253 15.9171 2.45419 15.9024 2.46121M15.9084 2.46117C15.822 2.40551 15.8588 2.24905 15.9084 2.23079C15.9598 2.22144 16.0791 2.23079 16.18 2.23079C16.2444 2.23079 16.2719 2.46073 16.18 2.46117C16.1243 2.45419 16.0452 2.44141 16.0034 2.52519M5.52751 5.14601H14.496M5.72329 6.69157H14.2888M5.40514 7.40302H8.09718C10.2263 7.01049 9.93265 7.23129 12.0129 7.40302H14.6315M6.67774 6.43948V5.37358M6.67774 6.43948L6.60642 6.6425H5.94075L5.84566 6.43948V5.37358C5.90113 5.35666 5.9883 5.29236 5.9883 5.17055H6.58264C6.56363 5.27206 6.63812 5.3482 6.67774 5.37358M6.67774 6.43948L6.77284 6.6425H7.4385L7.50982 6.43948M6.67774 5.37358C6.73321 5.35666 6.82038 5.29236 6.82038 5.17055H7.41473C7.39571 5.27206 7.4702 5.3482 7.50982 5.37358M7.50982 6.43948V5.37358M7.50982 6.43948L7.60492 6.6425H8.27058L8.34191 6.43948M7.50982 5.37358C7.5653 5.35666 7.65247 5.29236 7.65247 5.17055H8.24681C8.22779 5.27206 8.30228 5.3482 8.34191 5.37358M8.34191 6.43948V5.37358M8.34191 6.43948L8.437 6.6425H9.10267L9.17399 6.43948M8.34191 5.37358C8.39738 5.35666 8.48455 5.29236 8.48455 5.17055H9.07889C9.05987 5.27206 9.13436 5.3482 9.17399 5.37358M9.17399 6.43948V5.37358M9.17399 6.43948L9.26908 6.6425H9.93475L10.0061 6.43948M9.17399 5.37358C9.22946 5.35666 9.31663 5.29236 9.31663 5.17055H9.91098C9.89196 5.27206 9.96645 5.3482 10.0061 5.37358M10.0061 6.43948V5.37358M10.0061 6.43948L10.1012 6.6425H10.7668L10.8382 6.43948M10.0061 5.37358C10.0615 5.35666 10.1487 5.29236 10.1487 5.17055H10.7431C10.724 5.27206 10.7985 5.3482 10.8382 5.37358M10.8382 6.43948V5.37358M10.8382 6.43948L10.9332 6.6425H11.5989L11.6702 6.43948M10.8382 5.37358C10.8936 5.35666 10.9808 5.29236 10.9808 5.17055H11.5751C11.5561 5.27206 11.6306 5.3482 11.6702 5.37358M11.6702 6.43948V5.37358M11.6702 6.43948L11.7653 6.6425H12.431L12.5023 6.43948M11.6702 5.37358C11.7257 5.35666 11.8129 5.29236 11.8129 5.17055H12.4072C12.3882 5.27206 12.4627 5.3482 12.5023 5.37358M12.5023 6.43948V5.37358M12.5023 6.43948L12.5974 6.6425H13.2631L13.3344 6.43948M12.5023 5.37358C12.5578 5.35666 12.645 5.29236 12.645 5.17055H13.2393C13.2203 5.27206 13.2948 5.3482 13.3344 5.37358M13.3344 6.43948V5.37358M13.3344 6.43948L13.4295 6.6425H14.0952L14.1665 6.43948V5.37358C14.1269 5.3482 14.0524 5.27206 14.0714 5.17055H13.477C13.477 5.29236 13.3899 5.35666 13.3344 5.37358M5.72534 7.37848C5.53771 7.59928 5.29462 8.09484 5.82323 8.31072H14.1196C14.348 8.2453 14.6923 7.97217 14.242 7.40302M5.9925 8.9731C5.60093 8.63946 5.73963 8.43339 5.84568 8.33526L14.1175 8.31072C14.4699 8.68362 14.1828 8.90768 13.9952 8.9731H5.9925ZM5.9925 8.9731L5.99249 9.29203C5.8946 9.43922 5.75755 9.76305 5.99249 9.88081H13.9707C14.0931 9.83992 14.2791 9.68946 14.0441 9.41469V8.9731H5.9925ZM5.40514 40.8165L5.28278 40.5957V40.0805C5.32193 39.9235 5.75592 39.5735 5.96802 39.4181H6.18828L14.0686 39.4426L14.7294 40.0559V40.6447C14.7294 40.7036 14.6478 40.7837 14.607 40.8165M5.40514 40.8165H14.607M5.40514 40.8165C5.26809 40.9538 5.34805 41.119 5.40515 41.1844M14.607 40.8165C14.6641 40.8819 14.7489 41.0471 14.6315 41.1844H5.40515M5.40515 41.1844H14.607C15.6055 41.6358 15.3167 42.73 14.9251 42.8772H4.98911C4.44091 41.8174 5.03805 41.3071 5.40515 41.1844ZM15.3167 44.5945H4.64648C4.50943 44.4571 4.622 44.2756 4.69542 44.202H15.2433C15.4391 44.3197 15.3738 44.5127 15.3167 44.5945ZM15.3167 44.5945C16.9319 45.723 15.5125 47.0477 14.8273 46.9987H5.13597C3.39349 46.7435 3.76545 44.8153 4.69545 44.5945H15.3167ZM6.01697 9.90534L6.13933 10.1016H13.8728L13.9952 9.88081L6.01697 9.90534ZM6.16381 10.1261V39.4181H13.8239V10.1261H6.16381ZM6.40854 11.3773V38.3141C6.40854 38.6576 6.97142 38.6821 6.97142 38.3141V11.3773C6.97142 11.0584 6.40854 11.0093 6.40854 11.3773ZM7.70561 11.3773V38.3141C7.70561 38.6576 8.26849 38.6821 8.26849 38.3141V11.3773C8.26849 11.0584 7.70561 11.0093 7.70561 11.3773ZM9.00268 11.3773V38.3141C9.00268 38.6576 9.56556 38.6821 9.56556 38.3141V11.3773C9.56556 11.0584 9.00268 11.0093 9.00268 11.3773ZM10.2997 11.3773V38.3141C10.2997 38.6576 10.8626 38.6821 10.8626 38.3141V11.3773C10.8626 11.0584 10.2997 11.0093 10.2997 11.3773ZM11.5968 11.3773V38.3141C11.5968 38.6576 12.1597 38.6821 12.1597 38.3141V11.3773C12.1597 11.0584 11.5968 11.0093 11.5968 11.3773ZM12.8939 11.3773V38.3141C12.8939 38.6576 13.4568 38.6821 13.4568 38.3141V11.3773C13.4568 11.0584 12.8939 11.0093 12.8939 11.3773ZM5.01357 42.8772C4.7199 43.0326 4.24022 43.515 4.67095 44.202H15.2188C15.4554 43.9403 15.7328 43.309 14.9496 42.8772H5.01357Z" stroke="#6C6C6C" stroke-width="0.2"/>
</svg>
