<svg width="49" height="44" viewBox="0 0 49 44" fill="none" xmlns="http://www.w3.org/2000/svg">
<path d="M10 9.00002L25 37.8462L40 9" stroke="white" stroke-width="5" stroke-linecap="round"/>
<path d="M1 0.968859V0.5H15.5125V0.992302L14.9251 0.991354V1.17985L14.6804 1.50805V2.14101C14.607 2.13319 14.4553 2.12225 14.4357 2.14101C14.4161 2.15976 14.3786 2.32074 14.3623 2.39888H2.10129L2.05234 2.18789H1.70972V1.50805L1.44051 1.20329V0.969571L1 0.968859Z" fill="white"/>
<path d="M3.99276 7.1634C3.60119 6.84457 3.73989 6.64766 3.84594 6.55388L12.1178 6.53044C12.4702 6.88677 12.1831 7.10088 11.9954 7.1634H3.99276Z" fill="white"/>
<path d="M3.99276 7.46816L3.99276 7.1634H12.0444V7.58537C12.2793 7.84793 12.0933 7.99171 11.971 8.03079H3.99276C3.75781 7.91826 3.89486 7.60882 3.99276 7.46816Z" fill="white"/>
<path d="M4.1396 8.24177L4.01723 8.05423L11.9954 8.03079L11.8731 8.24177H4.1396Z" fill="white"/>
<path d="M4.16407 39.1229V8.26522H11.8241V39.1229H4.16407Z" fill="white"/>
<path d="M2.64674 43.5C2.64674 43.0235 2.69572 40.1567 2.69572 40.247H8.00635H13.317C13.317 41.5901 13.317 42.5457 13.317 43.5H2.64674Z" fill="white"/>
<path d="M1.44051 0.969571L1 0.968859V0.5H15.5125V0.992302L14.9251 0.991354M1.44051 0.969571V1.20329L1.70972 1.50805M1.44051 0.969571L14.9251 0.991354M1.70972 1.50805H14.6804M1.70972 1.50805V2.18789H2.05234L2.10129 2.39888H14.3623C14.3786 2.32074 14.4161 2.15976 14.4357 2.14101C14.4553 2.12225 14.607 2.13319 14.6804 2.14101V1.50805M14.6804 1.50805L14.9251 1.17985V0.991354M3.99276 7.1634C3.60119 6.84457 3.73989 6.64766 3.84594 6.55388L12.1178 6.53044C12.4702 6.88677 12.1831 7.10088 11.9954 7.1634H3.99276ZM3.99276 7.1634L3.99276 7.46816C3.89486 7.60882 3.75781 7.91826 3.99276 8.03079H11.971C12.0933 7.99171 12.2793 7.84793 12.0444 7.58537V7.1634H3.99276ZM2.64674 40.247H8.00635M8.00635 40.247H13.317C13.317 41.5901 13.317 42.5457 13.317 43.5H2.64674C2.64674 43.0235 2.69572 40.1567 2.69572 40.247H8.00635ZM4.01723 8.05423L4.1396 8.24177H11.8731L11.9954 8.03079L4.01723 8.05423ZM4.16407 8.26522V39.1229H11.8241V8.26522H4.16407Z" stroke="#6C6C6C" stroke-width="0.2"/>
<path d="M3 39.6789V40.1567H13V39.6789L12 39.2011H4L3 39.6789Z" fill="white" stroke="#6C6C6C" stroke-width="0.2"/>
<path d="M5 38.4355V9.3785C5 8.98155 5.58723 9.03448 5.58723 9.3785V38.4355C5.58723 38.8324 5 38.806 5 38.4355Z" fill="white"/>
<path d="M6.35319 38.4355V9.3785C6.35319 8.98155 6.94043 9.03448 6.94043 9.3785V38.4355C6.94043 38.8324 6.35319 38.806 6.35319 38.4355Z" fill="white"/>
<path d="M7.70638 38.4355V9.3785C7.70638 8.98155 8.29362 9.03448 8.29362 9.3785V38.4355C8.29362 38.8324 7.70638 38.806 7.70638 38.4355Z" fill="white"/>
<path d="M9.05957 38.4355V9.3785C9.05957 8.98155 9.64681 9.03448 9.64681 9.3785V38.4355C9.64681 38.8324 9.05957 38.806 9.05957 38.4355Z" fill="white"/>
<path d="M10.4128 38.4355V9.3785C10.4128 8.98155 11 9.03448 11 9.3785V38.4355C11 38.8324 10.4128 38.806 10.4128 38.4355Z" fill="white"/>
<path d="M5 38.4355V9.3785C5 8.98155 5.58723 9.03448 5.58723 9.3785V38.4355C5.58723 38.8324 5 38.806 5 38.4355Z" stroke="#6C6C6C" stroke-width="0.2"/>
<path d="M6.35319 38.4355V9.3785C6.35319 8.98155 6.94043 9.03448 6.94043 9.3785V38.4355C6.94043 38.8324 6.35319 38.806 6.35319 38.4355Z" stroke="#6C6C6C" stroke-width="0.2"/>
<path d="M7.70638 38.4355V9.3785C7.70638 8.98155 8.29362 9.03448 8.29362 9.3785V38.4355C8.29362 38.8324 7.70638 38.806 7.70638 38.4355Z" stroke="#6C6C6C" stroke-width="0.2"/>
<path d="M9.05957 38.4355V9.3785C9.05957 8.98155 9.64681 9.03448 9.64681 9.3785V38.4355C9.64681 38.8324 9.05957 38.806 9.05957 38.4355Z" stroke="#6C6C6C" stroke-width="0.2"/>
<path d="M10.4128 38.4355V9.3785C10.4128 8.98155 11 9.03448 11 9.3785V38.4355C11 38.8324 10.4128 38.806 10.4128 38.4355Z" stroke="#6C6C6C" stroke-width="0.2"/>
<path d="M3.52344 6.0424H2.89871H2.39871L2 5.56461H2.57102V2.41119H13.8987V5.56461H14.261L13.8987 6.0424H13.3987H12.8984L11.8984 6.52019H3.89844L3.52344 6.0424Z" fill="white"/>
<path d="M2.57102 5.56461H2L2.39871 6.0424H2.89871H3.52344L3.89844 6.52019H11.8984L12.8984 6.0424H13.3987H13.8987L14.261 5.56461H13.8987M2.57102 5.56461V2.41119H13.8987V5.56461M2.57102 5.56461H13.8987" stroke="#6C6C6C" stroke-width="0.2"/>
<path d="M3.5 4.51344V5.46903H5V4.51344C5 3.74898 4.66667 3.55786 4.5 3.55786H4C3.6 3.55786 3.5 4.19492 3.5 4.51344Z" fill="#9E9E9E"/>
<path d="M5.5 4.51344V5.46903H7V4.51344C7 3.74898 6.66667 3.55786 6.5 3.55786H6C5.6 3.55786 5.5 4.19492 5.5 4.51344Z" fill="#9E9E9E"/>
<path d="M7.5 4.51344V5.46903H9V4.51344C9 3.74898 8.66667 3.55786 8.5 3.55786H8C7.6 3.55786 7.5 4.19492 7.5 4.51344Z" fill="#9E9E9E"/>
<path d="M9.5 4.51344V5.46903H11V4.51344C11 3.74898 10.6667 3.55786 10.5 3.55786H10C9.6 3.55786 9.5 4.19492 9.5 4.51344Z" fill="#9E9E9E"/>
<path d="M11.5 4.51344V5.46903H13V4.51344C13 3.74898 12.6667 3.55786 12.5 3.55786H12C11.6 3.55786 11.5 4.19492 11.5 4.51344Z" fill="#9E9E9E"/>
<path d="M48.5127 0.968859V0.5H34.0002V0.992302L34.5875 0.991354V1.17985L34.8323 1.50805V2.14101C34.9057 2.13319 35.0574 2.12225 35.077 2.14101C35.0966 2.15976 35.1341 2.32074 35.1504 2.39888H47.4114L47.4604 2.18789H47.803V1.50805L48.0722 1.20329V0.969571L48.5127 0.968859Z" fill="white"/>
<path d="M45.5199 7.1634C45.9115 6.84457 45.7728 6.64766 45.6668 6.55388L37.3949 6.53044C37.0425 6.88677 37.3296 7.10088 37.5173 7.1634H45.5199Z" fill="white"/>
<path d="M45.5199 7.46816L45.5199 7.1634H37.4683V7.58537C37.2334 7.84793 37.4194 7.99171 37.5417 8.03079H45.5199C45.7549 7.91826 45.6178 7.60882 45.5199 7.46816Z" fill="white"/>
<path d="M45.3731 8.24177L45.4955 8.05423L37.5173 8.03079L37.6396 8.24177H45.3731Z" fill="white"/>
<path d="M45.3486 39.1229V8.26522H37.6886V39.1229H45.3486Z" fill="white"/>
<path d="M46.866 43.5C46.866 43.0235 46.817 40.1567 46.817 40.247H41.5063H36.1957C36.1957 41.5901 36.1957 42.5457 36.1957 43.5H46.866Z" fill="white"/>
<path d="M48.0722 0.969571L48.5127 0.968859V0.5H34.0002V0.992302L34.5875 0.991354M48.0722 0.969571V1.20329L47.803 1.50805M48.0722 0.969571L34.5875 0.991354M47.803 1.50805H34.8323M47.803 1.50805V2.18789H47.4604L47.4114 2.39888H35.1504C35.1341 2.32074 35.0966 2.15976 35.077 2.14101C35.0574 2.12225 34.9057 2.13319 34.8323 2.14101V1.50805M34.8323 1.50805L34.5875 1.17985V0.991354M45.5199 7.1634C45.9115 6.84457 45.7728 6.64766 45.6668 6.55388L37.3949 6.53044C37.0425 6.88677 37.3296 7.10088 37.5173 7.1634H45.5199ZM45.5199 7.1634L45.5199 7.46816C45.6178 7.60882 45.7549 7.91826 45.5199 8.03079H37.5417C37.4194 7.99171 37.2334 7.84793 37.4683 7.58537V7.1634H45.5199ZM46.866 40.247H41.5063M41.5063 40.247H36.1957C36.1957 41.5901 36.1957 42.5457 36.1957 43.5H46.866C46.866 43.0235 46.817 40.1567 46.817 40.247H41.5063ZM45.4955 8.05423L45.3731 8.24177H37.6396L37.5173 8.03079L45.4955 8.05423ZM45.3486 8.26522V39.1229H37.6886V8.26522H45.3486Z" stroke="#6C6C6C" stroke-width="0.2"/>
<path d="M46.5127 39.6789V40.1567H36.5127V39.6789L37.5127 39.2011H45.5127L46.5127 39.6789Z" fill="white" stroke="#6C6C6C" stroke-width="0.2"/>
<path d="M44.5127 38.4355V9.3785C44.5127 8.98155 43.9255 9.03448 43.9255 9.3785V38.4355C43.9255 38.8324 44.5127 38.806 44.5127 38.4355Z" fill="white"/>
<path d="M43.1595 38.4355V9.3785C43.1595 8.98155 42.5723 9.03448 42.5723 9.3785V38.4355C42.5723 38.8324 43.1595 38.806 43.1595 38.4355Z" fill="white"/>
<path d="M41.8063 38.4355V9.3785C41.8063 8.98155 41.2191 9.03448 41.2191 9.3785V38.4355C41.2191 38.8324 41.8063 38.806 41.8063 38.4355Z" fill="white"/>
<path d="M40.4531 38.4355V9.3785C40.4531 8.98155 39.8659 9.03448 39.8659 9.3785V38.4355C39.8659 38.8324 40.4531 38.806 40.4531 38.4355Z" fill="white"/>
<path d="M39.0999 38.4355V9.3785C39.0999 8.98155 38.5127 9.03448 38.5127 9.3785V38.4355C38.5127 38.8324 39.0999 38.806 39.0999 38.4355Z" fill="white"/>
<path d="M44.5127 38.4355V9.3785C44.5127 8.98155 43.9255 9.03448 43.9255 9.3785V38.4355C43.9255 38.8324 44.5127 38.806 44.5127 38.4355Z" stroke="#6C6C6C" stroke-width="0.2"/>
<path d="M43.1595 38.4355V9.3785C43.1595 8.98155 42.5723 9.03448 42.5723 9.3785V38.4355C42.5723 38.8324 43.1595 38.806 43.1595 38.4355Z" stroke="#6C6C6C" stroke-width="0.2"/>
<path d="M41.8063 38.4355V9.3785C41.8063 8.98155 41.2191 9.03448 41.2191 9.3785V38.4355C41.2191 38.8324 41.8063 38.806 41.8063 38.4355Z" stroke="#6C6C6C" stroke-width="0.2"/>
<path d="M40.4531 38.4355V9.3785C40.4531 8.98155 39.8659 9.03448 39.8659 9.3785V38.4355C39.8659 38.8324 40.4531 38.806 40.4531 38.4355Z" stroke="#6C6C6C" stroke-width="0.2"/>
<path d="M39.0999 38.4355V9.3785C39.0999 8.98155 38.5127 9.03448 38.5127 9.3785V38.4355C38.5127 38.8324 39.0999 38.806 39.0999 38.4355Z" stroke="#6C6C6C" stroke-width="0.2"/>
<path d="M45.9893 6.0424H46.614H47.114L47.5127 5.56461H46.9417V2.41119H35.614V5.56461H35.2517L35.614 6.0424H36.114H36.6143L37.6143 6.52019H45.6143L45.9893 6.0424Z" fill="white"/>
<path d="M46.9417 5.56461H47.5127L47.114 6.0424H46.614H45.9893L45.6143 6.52019H37.6143L36.6143 6.0424H36.114H35.614L35.2517 5.56461H35.614M46.9417 5.56461V2.41119H35.614V5.56461M46.9417 5.56461H35.614" stroke="#6C6C6C" stroke-width="0.2"/>
<path d="M46.0127 4.61121V5.61121H44.5127V4.61121C44.5127 3.81121 44.846 3.61121 45.0127 3.61121H45.5127C45.9127 3.61121 46.0127 4.27787 46.0127 4.61121Z" fill="#9E9E9E"/>
<path d="M44.0127 4.61121V5.61121H42.5127V4.61121C42.5127 3.81121 42.846 3.61121 43.0127 3.61121H43.5127C43.9127 3.61121 44.0127 4.27787 44.0127 4.61121Z" fill="#9E9E9E"/>
<path d="M42.0127 4.61121V5.61121H40.5127V4.61121C40.5127 3.81121 40.846 3.61121 41.0127 3.61121H41.5127C41.9127 3.61121 42.0127 4.27787 42.0127 4.61121Z" fill="#9E9E9E"/>
<path d="M40.0127 4.61121V5.61121H38.5127V4.61121C38.5127 3.81121 38.846 3.61121 39.0127 3.61121H39.5127C39.9127 3.61121 40.0127 4.27787 40.0127 4.61121Z" fill="#9E9E9E"/>
<path d="M38.0127 4.61121V5.61121H36.5127V4.61121C36.5127 3.81121 36.846 3.61121 37.0127 3.61121H37.5127C37.9127 3.61121 38.0127 4.27787 38.0127 4.61121Z" fill="#9E9E9E"/>
</svg>
