<svg width="195" height="195" viewBox="0 0 195 195" fill="none" xmlns="http://www.w3.org/2000/svg">
<rect width="195" height="195" rx="37" fill="#FFD827"/>
<rect x="85.5977" y="126.5" width="23" height="23" rx="11.5" fill="white"/>
<path d="M100.098 117.5H92.0977C88.4978 117.5 87.2644 115.167 87.0977 114V106.5C87.0977 98 98.5977 89 104.598 81.5C109.098 76.5 110.098 68 101.598 64.5C96.0977 63.5 91.0977 63 85.0977 73.5C84.5618 75.5 81.541 76.3333 80.0977 76.5H72.0977C68.0977 76.5 67.7644 69.8333 68.0977 66.5C68.0977 60 79.5977 47 92.5977 47H104.098C112.898 47 124.516 55 127.598 66.5C130.098 85.5 119.598 93 116.598 96C113.398 98 106.598 105.5 105.598 112.5C105.598 115.3 101.931 117 100.098 117.5Z" fill="white"/>
</svg>
