<svg width="410" height="496" viewBox="0 0 410 496" fill="none" xmlns="http://www.w3.org/2000/svg">
<g filter="url(#filter0_ii_1061_43)">
<path d="M263.711 261.5L261.208 175C238.682 214 186.621 223.5 162.592 227V259.5C144.171 270.3 102.522 309.333 84 327.5C85.8355 328.333 97.2155 328.7 128.052 323.5C166.597 317 169.1 318.5 243.187 312.5C317.274 306.5 353.817 315 333.794 308C317.775 302.4 280.397 274.667 263.711 261.5Z" fill="#FEB795"/>
</g>
<path d="M199.538 240.819C189.938 236.019 188.204 230.819 188.538 228.819C188.568 228.419 188.55 226.319 188.538 225.319C191.371 223.819 196.938 221.519 196.538 224.319C196.138 227.119 197.704 228.486 198.538 228.819C204.038 231.319 206.038 230.819 208.038 234.319C210.838 247.519 208.871 256.153 207.038 258.819C205.204 259.986 201.538 260.219 201.538 251.819C204.338 244.219 201.371 241.319 199.538 240.819Z" fill="#B8745D" fill-opacity="0.62"/>
<g filter="url(#filter1_i_1061_43)">
<path d="M119.676 86.5C117.676 53.3 133.176 32.675 141.176 28.3417C145.176 25.3997 146.176 27.7826 146.176 29.3418C151.343 29.0084 162.676 26.9417 166.676 21.3418C169.176 17.8418 176.176 17.8418 173.676 19.3418C171.676 20.5418 171.509 23.1751 171.676 24.3418L185.176 22.3418C183.343 23.6751 181.776 26.4418 190.176 26.8418C206.576 26.8418 211.676 24.5084 212.176 23.3417C217.343 21.3417 226.376 18.5417 221.176 23.3417C215.976 28.1417 217.009 31.675 218.176 32.8417C219.509 34.5084 227.276 37.3417 247.676 35.3417C238.476 40.9417 238.843 46.6751 240.176 48.8417H254.676L246.676 54.8417C248.343 57.3417 253.576 62.8417 261.176 64.8417C250.376 72.8417 248.676 80.5084 249.176 83.3417C250.343 85.8417 254.676 90.1417 262.676 87.3417C260.676 92.8417 259.176 118.842 259.176 124.842C259.176 129.642 263.843 128.175 266.176 126.842C266.843 125.675 269.276 120.542 273.676 109.342C278.076 98.1417 287.176 102.008 291.176 105.342C300.776 138.942 278.509 155.342 266.176 159.342C266.176 169.742 258.509 184.675 254.676 190.842C222.676 221.242 180.009 230.175 162.676 230.842C147.476 224.042 135.009 214.008 130.676 209.842C123.076 198.642 120.176 149.167 119.676 130.5C123 135 127.5 138 127.5 135.5L127 124.5C124.824 119.548 121 123.5 119.5 126L119.676 95C123.343 95.1667 124.745 92.5 128 92.5C133 92.5 139 93.5 131.5 90.5C126.5 90 125.5 86.5 119.676 86.5Z" fill="#FEB795"/>
</g>
<path d="M129.5 33.3895C130.3 36.1895 138.5 31.2229 142.5 28.3895C144.5 27.0461 145.333 29.1632 145.5 30.3896C151.1 31.1896 160.167 26.723 164 24.3896C165.5 21.8896 171.1 17.7896 173.5 19.3896C170.3 21.3896 170.5 24.223 171 25.3896L180 23.8896C184.4 22.6896 184.5 23.3896 184 23.8896C179 26.8896 193.3 30.8896 210.5 24.8896C214.9 21.6896 220 21.5563 222 21.8896C220.5 22.8896 217.2 26.3896 216 32.3896C217.6 37.5896 237 37.223 246.5 36.3896C237.3 42.3896 238 47.8896 239.5 49.8896H252.5L245 54.5C244.2 56.5 255 63.5563 260 65.8896C239 81.8896 251 96.5 262 88.5L259 116.89C258.167 124.723 259.6 139.2 268 126C274 104.5 282.5 100 287 103L290 78.8896C291.833 56.0563 287.8 8.68963 257 1.88954C218.6 -2.91046 177.333 2.55621 161.5 5.88954C137.9 14.2895 130.333 27.7229 129.5 33.3895Z" fill="#3A3A3A"/>
<path d="M269.963 141.893C273.474 139.422 282.543 120.565 286.639 111.446C288.395 110.858 291.554 110.387 290.15 113.211C286.99 120.624 285.323 125.713 284.884 127.331C288.5 127.331 290.589 128.626 290.15 129.979C288.687 131.303 287 131.5 281.812 132.626C281.11 135.097 276.253 142.187 273.913 145.423C271.865 146.305 268.208 146.835 269.963 141.893Z" fill="#B26E53" fill-opacity="0.72"/>
<rect x="113.5" y="85.3896" width="25" height="10" rx="5" fill="#423E3F"/>
<rect x="119.5" y="138.39" width="17" height="9" rx="4.5" transform="rotate(-90 119.5 138.39)" fill="#423E3F"/>
<rect x="176.5" y="84.3896" width="28" height="10" rx="5" fill="#423E3F"/>
<rect x="182.5" y="132.39" width="17" height="9" rx="4.5" transform="rotate(-90 182.5 132.39)" fill="#423E3F"/>
<path d="M172.47 197.929C167.851 199.586 160.922 200 158.035 200C156.386 200.034 155.561 195.443 158.035 195.858C160.015 196.189 164.909 195.167 167.108 194.615C169.995 193.51 176.759 191.467 180.718 192.129C187.316 194.118 183.742 196.548 181.13 197.514C180.168 196.962 177.089 196.272 172.47 197.929Z" fill="#B46D49" fill-opacity="0.67"/>
<path d="M145.5 109L140.5 109.5C141.3 113.9 141.5 149.5 141.5 163.5C143.9 169.1 148.833 168.833 151 168C152 166.167 152.6 161.1 147 155.5C145 150.7 145.167 122.5 145.5 109Z" fill="#B46F5D" fill-opacity="0.69"/>
<path d="M75.2944 312.169C76.8944 308.569 92.2943 310.669 99.7943 312.169C124.294 310.168 169.294 305.669 184.294 302.169C199.294 298.669 237.794 300.169 263.294 297.169C283.694 294.769 322.794 294.836 339.794 295.169C366.994 293.969 382.487 312.169 386.294 321.169C388.128 325.502 391.094 335.769 388.294 342.169C389.094 344.969 399.294 360.002 404.294 367.169C406.461 369.002 410.494 373.769 409.294 378.169C399.694 427.769 399.961 474.502 401.294 491.669C268.794 494.836 4.5943 499.269 7.79443 491.669C11.7946 482.169 3.79426 466.669 0.794329 460.169C-2.2056 453.669 4.29426 413.669 3.79426 395.669C3.39426 381.269 19.6276 361.002 27.7943 352.669C36.7943 347.336 55.3943 335.069 57.7944 328.669C56.9944 324.269 69.1277 315.836 75.2944 312.169Z" fill="#C27C3D"/>
<path d="M382.794 481.669C388.961 457.836 400.194 407.169 395.794 395.169C400.794 403.669 397.194 454.069 382.794 481.669Z" fill="#995222"/>
<path d="M372.968 414.131C384.93 420.246 364.994 467.158 363 492H370.476C370.642 482.446 372.47 460.184 378.451 447.572C382.438 442.794 388.419 411.742 372.968 414.131Z" fill="#853E12"/>
<path d="M336 409L288 494H293.5L336 409Z" fill="#A25B27"/>
<path d="M252 494.5C277.167 454.167 326.694 380.269 332.294 360.669C339.294 336.169 321.69 404.169 299.795 437.169C291.461 449.336 256 494.5 256 494.5H252Z" fill="#A95F29"/>
<path d="M64.5 496L50 456L69 496H64.5Z" fill="#A65F24"/>
<path d="M111 496C119.029 478.344 119.88 397.518 117.825 383.123C117.643 382.419 117.458 381.712 117.27 381C117.473 381.224 117.659 381.955 117.825 383.123C132.255 438.785 129.767 470.253 126.433 496H111Z" fill="#954E2B"/>
<path d="M162.294 333.669C120.694 343.269 89.9611 342.003 79.7944 340.169C108.294 338.169 115.294 336.169 134.294 333.669C143.83 332.415 193.794 322.669 214.794 317.669C235.794 312.669 282.794 314.169 300.794 317.669C315.194 318.069 334.794 328.503 342.794 333.669C314.794 320.869 268.461 319.003 248.794 319.669C237.294 320.336 203.894 324.069 162.294 333.669Z" fill="#A65F2A"/>
<path d="M190.794 454.669C186.464 463.33 173.5 480.5 164.5 496C177.3 486.8 190.794 465.669 202.294 447.169C218.52 421.067 217.329 387.836 213.794 374.169C214.294 410.669 195.794 444.669 190.794 454.669Z" fill="#A25B22"/>
<defs>
<filter id="filter0_ii_1061_43" x="83" y="175" width="257.72" height="152.99" filterUnits="userSpaceOnUse" color-interpolation-filters="sRGB">
<feFlood flood-opacity="0" result="BackgroundImageFix"/>
<feBlend mode="normal" in="SourceGraphic" in2="BackgroundImageFix" result="shape"/>
<feColorMatrix in="SourceAlpha" type="matrix" values="0 0 0 0 0 0 0 0 0 0 0 0 0 0 0 0 0 0 127 0" result="hardAlpha"/>
<feOffset dx="-1"/>
<feGaussianBlur stdDeviation="1.5"/>
<feComposite in2="hardAlpha" operator="arithmetic" k2="-1" k3="1"/>
<feColorMatrix type="matrix" values="0 0 0 0 0.831373 0 0 0 0 0.564706 0 0 0 0 0.439216 0 0 0 1 0"/>
<feBlend mode="normal" in2="shape" result="effect1_innerShadow_1061_43"/>
<feColorMatrix in="SourceAlpha" type="matrix" values="0 0 0 0 0 0 0 0 0 0 0 0 0 0 0 0 0 0 127 0" result="hardAlpha"/>
<feOffset dx="1.5"/>
<feGaussianBlur stdDeviation="1.5"/>
<feComposite in2="hardAlpha" operator="arithmetic" k2="-1" k3="1"/>
<feColorMatrix type="matrix" values="0 0 0 0 0.831559 0 0 0 0 0.566246 0 0 0 0 0.439194 0 0 0 1 0"/>
<feBlend mode="normal" in2="effect1_innerShadow_1061_43" result="effect2_innerShadow_1061_43"/>
</filter>
<filter id="filter1_i_1061_43" x="119.5" y="16.3896" width="174.015" height="214.452" filterUnits="userSpaceOnUse" color-interpolation-filters="sRGB">
<feFlood flood-opacity="0" result="BackgroundImageFix"/>
<feBlend mode="normal" in="SourceGraphic" in2="BackgroundImageFix" result="shape"/>
<feColorMatrix in="SourceAlpha" type="matrix" values="0 0 0 0 0 0 0 0 0 0 0 0 0 0 0 0 0 0 127 0" result="hardAlpha"/>
<feOffset dy="-2"/>
<feGaussianBlur stdDeviation="2"/>
<feComposite in2="hardAlpha" operator="arithmetic" k2="-1" k3="1"/>
<feColorMatrix type="matrix" values="0 0 0 0 0.752941 0 0 0 0 0.47451 0 0 0 0 0.341176 0 0 0 1 0"/>
<feBlend mode="normal" in2="shape" result="effect1_innerShadow_1061_43"/>
</filter>
</defs>
</svg>
