<svg width="22" height="22" viewBox="0 0 22 22" fill="none" xmlns="http://www.w3.org/2000/svg">
<path d="M15.5827 10.9998C15.5827 11.9063 15.3139 12.7925 14.8103 13.5462C14.3066 14.2999 13.5908 14.8874 12.7533 15.2343C11.9158 15.5812 10.9943 15.672 10.1052 15.4951C9.21611 15.3183 8.39944 14.8817 7.75844 14.2407C7.11745 13.5998 6.68093 12.7831 6.50409 11.894C6.32724 11.0049 6.418 10.0834 6.7649 9.24587C7.1118 8.40838 7.69926 7.69256 8.45299 7.18893C9.20671 6.68531 10.0929 6.4165 10.9994 6.4165" stroke="white" stroke-width="1.4" stroke-linecap="round" stroke-linejoin="round"/>
<path d="M12.833 2.01659C12.2402 1.89559 11.6291 1.83447 10.9997 1.83325C5.93692 1.83325 1.83301 5.93717 1.83301 10.9999C1.83301 16.0627 5.93692 20.1666 10.9997 20.1666C16.0624 20.1666 20.1663 16.0627 20.1663 10.9999C20.1651 10.3705 20.104 9.75936 19.983 9.16659" stroke="white" stroke-width="1.4" stroke-linecap="round" stroke-linejoin="round"/>
<path d="M11.0273 10.965L15.2009 6.79145M18.0948 3.98278L17.5879 2.16045C17.5677 2.09102 17.5306 2.02766 17.48 1.97598C17.4294 1.92429 17.3669 1.88588 17.2979 1.86412C17.2289 1.84237 17.1557 1.83796 17.0846 1.85127C17.0135 1.86458 16.9468 1.89521 16.8903 1.94045C15.574 3.0157 14.1403 4.46495 15.3109 6.7502C17.6704 7.8502 19.0179 6.36703 20.0501 5.11945C20.0968 5.06198 20.1284 4.99379 20.1421 4.92103C20.1559 4.84827 20.1512 4.77324 20.1287 4.70273C20.1061 4.63221 20.0663 4.56843 20.0129 4.51715C19.9595 4.46587 19.8941 4.42871 19.8228 4.40903L18.0948 3.98278Z" stroke="white" stroke-width="1.4" stroke-linecap="round" stroke-linejoin="round"/>
</svg>
