<svg width="24" height="23" viewBox="0 0 24 23" fill="none" xmlns="http://www.w3.org/2000/svg">
<path d="M17.9995 11.8C17.9995 12.8878 17.6769 13.9512 17.0726 14.8557C16.4682 15.7602 15.6093 16.4651 14.6043 16.8814C13.5993 17.2977 12.4934 17.4066 11.4265 17.1944C10.3596 16.9821 9.37962 16.4583 8.61043 15.6891C7.84124 14.9199 7.31741 13.9399 7.1052 12.873C6.89298 11.8061 7.00189 10.7003 7.41818 9.69529C7.83446 8.6903 8.53941 7.83131 9.44388 7.22697C10.3483 6.62262 11.4117 6.30005 12.4995 6.30005" stroke="white" stroke-width="2" stroke-linecap="round" stroke-linejoin="round"/>
<path d="M14.1997 2.2C13.553 2.068 12.8864 2.00133 12.1997 2C6.67671 2 2.19971 6.477 2.19971 12C2.19971 17.523 6.67671 22 12.1997 22C17.7227 22 22.1997 17.523 22.1997 12C22.1984 11.3133 22.1317 10.6467 21.9997 10" stroke="white" stroke-width="2" stroke-linecap="round" stroke-linejoin="round"/>
<path d="M11.9995 12L17.0321 6.96678M20.5216 3.57961L19.9103 1.38193C19.8859 1.2982 19.8412 1.2218 19.7802 1.15947C19.7192 1.09713 19.6438 1.0508 19.5606 1.02457C19.4774 0.998338 19.3891 0.993013 19.3034 1.00907C19.2177 1.02512 19.1372 1.06206 19.0692 1.11661C17.4819 2.41333 15.7532 4.16109 17.1647 6.91703C20.0098 8.2436 21.6346 6.45494 22.8792 4.9504C22.9355 4.8811 22.9737 4.79886 22.9902 4.71111C23.0068 4.62337 23.0012 4.53289 22.974 4.44784C22.9467 4.3628 22.8988 4.28588 22.8344 4.22404C22.77 4.1622 22.6912 4.11739 22.6051 4.09365L20.5216 3.57961Z" stroke="white" stroke-width="1.2" stroke-linecap="round" stroke-linejoin="round"/>
</svg>
