<svg width="201" height="186" viewBox="0 0 201 186" fill="none" xmlns="http://www.w3.org/2000/svg">
<path d="M82.5 170V157V151.5L96 153.5L115 174.5C115 184 89 195.5 82.5 170Z" fill="#E9A662"/>
<path d="M79.5 170C74.5 180 60.5 185 53.5 168.5L61.5 157L75.5 152L81 156.5L79.5 170Z" fill="#EAA464"/>
<path d="M53 168.5L50 165L67.5 145L98.5 146.5L121.5 170L155 177C155 177.8 152.333 179 151 179.5L131 182C129 182 126.833 181.333 126 181L114.5 175L94.5 156C88.5 154 84.3333 156.167 83 157.5V170H80V157C76.8 153.4 69.5 154 67.5 155L53 168.5Z" fill="#DF8648"/>
<path d="M49.7188 165.686L32.7188 148.686L132.219 47.1855L171.219 8.68555C173.885 11.6855 178.919 20.4855 177.719 31.6855L162.219 47.1855L148.719 63.6855L49.7188 165.686Z" fill="#6D311D"/>
<path d="M114.719 29.1853L14.7188 129.685L32.7188 148.685L171.219 8.68527C166.819 0.28527 153.052 -0.481397 146.719 0.185269L114.719 29.1853Z" fill="#843D20"/>
<path d="M102.5 109H98.5L100.5 117.5L126.5 118.5L130 108.5L112.5 108L107 105L102.5 109Z" fill="#DD884C"/>
<path d="M12.4972 104C1.69724 118 7.99977 127 14.4972 129.5L18 128.5L92 56.4999C83.2 54.4999 70 55.3332 64.5 55.9999C52.9 57.9999 42.6665 66.1666 38.9998 69.9999C24.9998 84.3999 16 98.4999 12.4972 104Z" fill="#EBA565"/>
<path d="M174 102C160.8 98.0001 141.5 80.5001 135.5 76.0001L106.5 105.5L111.5 109L122.5 108.5C127.5 108.5 127.5 117 122.5 117H110C106.4 117 100.833 111.667 98.5 109H58C26 111.5 38.5 147.5 58 146H93C96.2 146 98.6667 147.667 99.5 148.5L121 170L155 177.5C187 148 193.5 137 193.5 129.5C195.167 121.333 199 104.6 201 103H179C177.8 103 175.167 102.333 174 102Z" fill="#EBA565"/>
<path d="M5.21875 159.686L14.7188 129.686L50.2188 165.686L19.2188 174.186L5.21875 159.686Z" fill="#FEB74C"/>
<path d="M15.0636 131.686L6.21875 159.787L15.0636 168.686L32.5106 151.132L33.2188 150.42L15.0636 131.686Z" fill="#F3A63B"/>
<path d="M47.9688 164.886L32.9688 150.386L14.9688 168.386L19.4688 172.886L47.9688 164.886Z" fill="#EC9538"/>
<path d="M0.218556 177.686C-0.981444 175.686 3.05189 164.852 5.21856 159.686L19.2188 174.186L4.71875 178.686C5.55208 178.352 6.61875 177.886 4.21875 178.686C1.81875 179.486 0.551954 178.352 0.218556 177.686Z" fill="#612E1C"/>
<g filter="url(#filter0_i_1587_71)">
<rect x="109.512" y="24.6309" width="22" height="60.6951" rx="6" transform="rotate(-44.4768 109.512 24.6309)" fill="#F2A43B"/>
</g>
<rect x="110.219" y="24.6373" width="21" height="59.6951" rx="5.5" transform="rotate(-44.4768 110.219 24.6373)" stroke="#FCBB56"/>
<defs>
<filter id="filter0_i_1587_71" x="111.996" y="11.7021" width="53.252" height="53.752" filterUnits="userSpaceOnUse" color-interpolation-filters="sRGB">
<feFlood flood-opacity="0" result="BackgroundImageFix"/>
<feBlend mode="normal" in="SourceGraphic" in2="BackgroundImageFix" result="shape"/>
<feColorMatrix in="SourceAlpha" type="matrix" values="0 0 0 0 0 0 0 0 0 0 0 0 0 0 0 0 0 0 127 0" result="hardAlpha"/>
<feOffset dx="-19" dy="-19"/>
<feComposite in2="hardAlpha" operator="arithmetic" k2="-1" k3="1"/>
<feColorMatrix type="matrix" values="0 0 0 0 0.923715 0 0 0 0 0.564421 0 0 0 0 0.0614099 0 0 0 0.84 0"/>
<feBlend mode="normal" in2="shape" result="effect1_innerShadow_1587_71"/>
</filter>
</defs>
</svg>
