<svg width="139" height="141" viewBox="0 0 139 141" fill="none" xmlns="http://www.w3.org/2000/svg">
<path d="M2.99544 140.034C-2.19783 135.582 0.522451 123.959 2.53175 118.704L8.09638 122.877L20.1522 137.715C10.8785 141.054 4.85031 140.652 2.99544 140.034Z" fill="#503F56"/>
<path d="M2.53125 118.704L2.99494 117.776C8.9301 118.889 17.8329 131.223 21.5423 137.251L20.1513 137.715L2.53125 118.704Z" fill="#FDD7BA"/>
<path d="M48.4377 131.687C43.123 125.195 41.4228 119.012 42.1956 115.921L15.5156 129.369L21.5435 137.251C26.7368 136.509 41.6368 133.233 48.4377 131.687Z" fill="#E39C6A"/>
<path d="M42.6595 114.994L12.9837 93.6641C9.27419 97.3735 8.56055 114.994 8.56055 122.877L15.5158 129.369C30.7247 127.143 40.3411 118.394 42.6595 114.994Z" fill="#EEB78A"/>
<path d="M76.0781 20.4727L86.5492 9.93229C91.9985 4.44695 100.863 4.41772 106.348 9.867L128.839 32.21C134.324 37.6593 134.354 46.5236 128.904 52.0089L118.433 62.5493L76.0781 20.4727Z" fill="#E2604F"/>
<path d="M67.5215 29.1318L76.0083 20.5889L118.363 62.6655L109.877 71.2085L67.5215 29.1318Z" fill="#6F515F"/>
<path d="M2.99609 117.776L7.16926 89.9551L12.9834 93.6637C9.6449 97.0022 8.56032 114.376 8.56032 122.413L2.99609 117.776Z" fill="#F6C89B"/>
<path d="M110.107 71.4084L97.5874 59.3525L41.4815 116.849C39.2558 122.414 45.191 129.06 48.4368 131.687L110.107 71.4084Z" fill="#E37124"/>
<path d="M7.16992 89.9556L67.449 29.2129L82.4518 44.0508L22.9352 103.866C19.9676 98.6729 11.1885 92.4286 7.16992 89.9556Z" fill="#FEB730"/>
<path d="M41.4824 116.85C40.3768 116.85 39.5816 116.782 39.0284 116.673C34.5385 117.738 21.6838 112.412 22.7214 103.402L82.4515 44.0908L97.5882 59.3526L41.4824 116.85Z" fill="#F28B23"/>
</svg>
