<svg width="262" height="302" viewBox="0 0 262 302" fill="none" xmlns="http://www.w3.org/2000/svg">
<path d="M99.5 14.2129L18.5 78.2129C3.7 88.6129 0 104.546 0 111.213V190.213C0 211.813 13.3333 225.213 20 229.213L104 292.213C123.5 307.713 146.667 299.546 156 292.213L234.5 236.213C256.9 220.213 261 202.213 261.5 193.713V119.713C261.5 96.5129 250.5 82.7129 236.5 73.7129L161 13.2129C134.2 -11.1871 108.833 3.71288 99.5 14.2129Z" fill="#66A44F"/>
<path d="M105.904 42.5905L40.8566 93.8272C28.9713 102.153 26 114.909 26 120.246V183.492C26 200.784 36.7075 211.512 42.0612 214.714L109.518 265.15C125.178 277.559 143.782 271.021 151.277 265.15L182.797 242.734L214.317 220.318C232.306 207.509 235.598 193.098 236 186.294V127.051C236.5 104.212 227.166 97.4298 215.924 90.2247L155.293 41.7899C133.5 21.7124 122.5 28.2123 105.904 42.5905Z" fill="#467D3B"/>
<path d="M109.94 168.69C104.22 168.397 99.49 168.25 95.75 168.25C92.01 168.25 88.71 168.323 85.85 168.47C84.97 170.743 83.87 174.153 82.55 178.7C81.3033 183.173 80.35 186.363 79.69 188.27C78.37 192.157 75.95 194.1 72.43 194.1C70.3767 194.1 68.7267 193.477 67.48 192.23C66.2333 190.983 65.61 189.26 65.61 187.06C65.61 184.787 67.5167 178.7 71.33 168.8C67.5167 167.92 65.61 165.72 65.61 162.2C65.61 157.433 69.02 155.05 75.84 155.05C76.8667 151.897 78.8467 146.213 81.78 138C84.7133 129.787 86.5833 124.433 87.39 121.94C88.27 119.373 88.93 117.54 89.37 116.44C89.8833 115.34 90.5433 114.167 91.35 112.92C92.89 110.573 95.2 109.4 98.28 109.4C100.553 109.4 102.57 110.097 104.33 111.49C105.43 112.37 106.42 114.093 107.3 116.66C108.18 119.153 109.06 121.793 109.94 124.58C110.893 127.293 111.883 130.117 112.91 133.05C114.01 135.91 115.477 140.09 117.31 145.59C119.217 151.09 120.317 154.243 120.61 155.05C120.977 154.977 121.637 154.94 122.59 154.94C125.083 154.94 127.137 155.673 128.75 157.14C130.363 158.533 131.17 160.257 131.17 162.31C131.17 165.683 129.117 167.92 125.01 169.02C129.117 179.653 131.17 185.813 131.17 187.5C131.17 189.187 130.473 190.727 129.08 192.12C127.76 193.44 126 194.1 123.8 194.1C120.5 194.1 118.08 192.267 116.54 188.6C116.173 187.72 113.973 181.083 109.94 168.69ZM89.81 155.82C91.6433 155.967 94.3567 156.04 97.95 156.04C101.543 156.04 104.257 155.967 106.09 155.82C101.323 138.513 98.6467 129.86 98.06 129.86C97.5467 129.86 95.42 136.35 91.68 149.33L89.81 155.82ZM162.012 145.15L161.682 134.48C161.682 131.84 162.305 129.75 163.552 128.21C164.872 126.67 166.632 125.9 168.832 125.9C171.032 125.9 172.792 126.707 174.112 128.32C175.432 129.86 176.092 131.95 176.092 134.59L175.762 145.15L187.752 144.93C190.025 144.93 191.895 145.59 193.362 146.91C194.902 148.23 195.672 149.88 195.672 151.86C195.672 153.767 194.902 155.38 193.362 156.7C191.895 157.947 190.282 158.57 188.522 158.57C186.762 158.57 182.509 158.497 175.762 158.35L176.092 170.34C176.092 172.98 175.432 175.107 174.112 176.72C172.865 178.333 171.105 179.14 168.832 179.14C166.632 179.14 164.872 178.333 163.552 176.72C162.305 175.033 161.682 172.87 161.682 170.23L162.012 158.24L150.022 158.46C147.675 158.46 145.732 157.837 144.192 156.59C142.725 155.27 141.992 153.657 141.992 151.75C141.992 149.77 142.762 148.157 144.302 146.91C145.842 145.59 147.492 144.93 149.252 144.93C151.012 144.93 155.265 145.003 162.012 145.15Z" fill="white"/>
</svg>
