<svg width="263" height="303" viewBox="0 0 263 303" fill="none" xmlns="http://www.w3.org/2000/svg">
<path d="M100.5 15.2129L19.5 79.2129C4.7 89.6129 1 105.546 1 112.213V191.213C1 212.813 14.3333 226.213 21 230.213L105 293.213C124.5 308.713 147.667 300.546 157 293.213L235.5 237.213C257.9 221.213 262 203.213 262.5 194.713V120.713C262.5 97.5129 251.5 83.7129 237.5 74.7129L162 14.2129C135.2 -10.1871 109.833 4.71288 100.5 15.2129Z" fill="#FFD15C" stroke="black"/>
<path d="M106.904 43.5905L41.8566 94.8272C29.9713 103.153 27 115.909 27 121.246V184.492C27 201.784 37.7075 212.512 43.0612 215.714L110.518 266.15C126.178 278.559 144.782 272.021 152.277 266.15L183.797 243.734L215.317 221.318C233.306 208.509 236.598 194.098 237 187.294V128.051C237.5 105.212 228.166 98.4298 216.924 91.2247L156.293 42.7899C134.5 22.7124 123.5 29.2123 106.904 43.5905Z" fill="#EBB720"/>
<path d="M165.49 180.69C165.49 184.063 162.703 187.4 157.13 190.7C151.557 194 144.847 195.65 137 195.65C126.367 195.65 117.53 191.47 110.49 183.11C103.45 174.75 99.93 164.593 99.93 152.64C99.93 140.687 103.45 130.567 110.49 122.28C117.603 113.993 126.477 109.85 137.11 109.85C143.857 109.85 149.907 111.243 155.26 114.03C160.687 116.817 163.4 119.97 163.4 123.49C163.4 125.617 162.703 127.34 161.31 128.66C159.917 129.907 158.12 130.53 155.92 130.53C153.793 130.53 151.117 129.43 147.89 127.23C144.663 124.957 141.07 123.82 137.11 123.82C130.877 123.82 125.707 126.68 121.6 132.4C117.567 138.047 115.55 144.793 115.55 152.64C115.55 160.413 117.567 167.233 121.6 173.1C125.633 178.893 130.62 181.79 136.56 181.79C142.573 181.79 148.22 180.213 153.5 177.06C155.92 175.593 157.973 174.86 159.66 174.86C161.42 174.86 162.813 175.41 163.84 176.51C164.94 177.61 165.49 179.003 165.49 180.69Z" fill="white"/>
</svg>
