<svg width="262" height="302" viewBox="0 0 262 302" fill="none" xmlns="http://www.w3.org/2000/svg">
<g filter="url(#filter0_ii_1570_29)">
<path d="M99.5 14.2129L18.5 78.2129C3.7 88.6129 0 104.546 0 111.213V190.213C0 211.813 13.3333 225.213 20 229.213L104 292.213C123.5 307.713 146.667 299.546 156 292.213L234.5 236.213C256.9 220.213 261 202.213 261.5 193.713V119.713C261.5 96.5129 250.5 82.7129 236.5 73.7129L161 13.2129C134.2 -11.1871 108.833 3.71288 99.5 14.2129Z" fill="#FD890E"/>
</g>
<g filter="url(#filter1_iii_1570_29)">
<path d="M105.904 42.5905L40.8566 93.8272C28.9713 102.153 26 114.909 26 120.246V183.492C26 200.784 36.7075 211.512 42.0612 214.714L109.518 265.15C125.178 277.559 143.782 271.021 151.277 265.15L182.797 242.734L214.317 220.318C232.306 207.509 235.598 193.098 236 186.294V127.051C236.5 104.212 227.166 97.4298 215.924 90.2247L155.293 41.7899C133.5 21.7124 122.5 28.2123 105.904 42.5905Z" fill="#F79B3A"/>
</g>
<path d="M100.65 151.75L100.1 126.67C97.0933 125.79 95.59 123.7 95.59 120.4C95.59 118.2 97.1667 116.183 100.32 114.35C103.547 112.517 107.213 111.197 111.32 110.39C115.427 109.51 119.313 109.07 122.98 109.07C130.167 109.07 136.583 110.28 142.23 112.7C147.95 115.12 152.533 118.347 155.98 122.38C162.947 130.667 166.43 140.567 166.43 152.08C166.43 163.153 163.057 172.833 156.31 181.12C153.01 185.227 148.573 188.527 143 191.02C137.5 193.44 130.937 194.65 123.31 194.65C115.683 194.65 109.083 193.55 103.51 191.35C97.9367 189.15 95.15 186.4 95.15 183.1C95.15 179.8 96.8733 177.747 100.32 176.94L100.65 151.75ZM150.92 151.64C150.92 143.72 148.5 136.937 143.66 131.29C138.893 125.643 132 122.82 122.98 122.82C120.487 122.82 118.14 123.15 115.94 123.81C115.72 128.283 115.61 137.45 115.61 151.31C115.61 165.17 115.757 174.74 116.05 180.02C118.397 180.533 121.037 180.79 123.97 180.79C129.91 180.79 134.97 179.36 139.15 176.5C146.997 171 150.92 162.713 150.92 151.64Z" fill="white"/>
<defs>
<filter id="filter0_ii_1570_29" x="-1.6" y="-1.6" width="263.7" height="303.234" filterUnits="userSpaceOnUse" color-interpolation-filters="sRGB">
<feFlood flood-opacity="0" result="BackgroundImageFix"/>
<feBlend mode="normal" in="SourceGraphic" in2="BackgroundImageFix" result="shape"/>
<feColorMatrix in="SourceAlpha" type="matrix" values="0 0 0 0 0 0 0 0 0 0 0 0 0 0 0 0 0 0 127 0" result="hardAlpha"/>
<feOffset dx="6" dy="4"/>
<feGaussianBlur stdDeviation="0.3"/>
<feComposite in2="hardAlpha" operator="arithmetic" k2="-1" k3="1"/>
<feColorMatrix type="matrix" values="0 0 0 0 1 0 0 0 0 0.63396 0 0 0 0 0.245831 0 0 0 1 0"/>
<feBlend mode="normal" in2="shape" result="effect1_innerShadow_1570_29"/>
<feColorMatrix in="SourceAlpha" type="matrix" values="0 0 0 0 0 0 0 0 0 0 0 0 0 0 0 0 0 0 127 0" result="hardAlpha"/>
<feOffset dx="-7" dy="-2"/>
<feGaussianBlur stdDeviation="0.8"/>
<feComposite in2="hardAlpha" operator="arithmetic" k2="-1" k3="1"/>
<feColorMatrix type="matrix" values="0 0 0 0 0.851375 0 0 0 0 0.445155 0 0 0 0 0.014422 0 0 0 1 0"/>
<feBlend mode="normal" in2="effect1_innerShadow_1570_29" result="effect2_innerShadow_1570_29"/>
</filter>
<filter id="filter1_iii_1570_29" x="22" y="29.127" width="214.02" height="245.085" filterUnits="userSpaceOnUse" color-interpolation-filters="sRGB">
<feFlood flood-opacity="0" result="BackgroundImageFix"/>
<feBlend mode="normal" in="SourceGraphic" in2="BackgroundImageFix" result="shape"/>
<feColorMatrix in="SourceAlpha" type="matrix" values="0 0 0 0 0 0 0 0 0 0 0 0 0 0 0 0 0 0 127 0" result="hardAlpha"/>
<feOffset dx="-8" dy="8"/>
<feComposite in2="hardAlpha" operator="arithmetic" k2="-1" k3="1"/>
<feColorMatrix type="matrix" values="0 0 0 0 0.878431 0 0 0 0 0.458824 0 0 0 0 0.0156863 0 0 0 1 0"/>
<feBlend mode="normal" in2="shape" result="effect1_innerShadow_1570_29"/>
<feColorMatrix in="SourceAlpha" type="matrix" values="0 0 0 0 0 0 0 0 0 0 0 0 0 0 0 0 0 0 127 0" result="hardAlpha"/>
<feOffset dx="13" dy="4"/>
<feComposite in2="hardAlpha" operator="arithmetic" k2="-1" k3="1"/>
<feColorMatrix type="matrix" values="0 0 0 0 0.877535 0 0 0 0 0.458306 0 0 0 0 0.0137774 0 0 0 1 0"/>
<feBlend mode="normal" in2="effect1_innerShadow_1570_29" result="effect2_innerShadow_1570_29"/>
<feColorMatrix in="SourceAlpha" type="matrix" values="0 0 0 0 0 0 0 0 0 0 0 0 0 0 0 0 0 0 127 0" result="hardAlpha"/>
<feOffset dx="-4" dy="2"/>
<feGaussianBlur stdDeviation="3.8"/>
<feComposite in2="hardAlpha" operator="arithmetic" k2="-1" k3="1"/>
<feColorMatrix type="matrix" values="0 0 0 0 0.896109 0 0 0 0 0.47044 0 0 0 0 0.019084 0 0 0 1 0"/>
<feBlend mode="normal" in2="effect2_innerShadow_1570_29" result="effect3_innerShadow_1570_29"/>
</filter>
</defs>
</svg>
