<svg width="20" height="22" viewBox="0 0 20 22" fill="none" xmlns="http://www.w3.org/2000/svg">
<path d="M7.38344 7.50014C8.18344 5.90014 8.71678 6.83348 8.88344 7.50014L10.3838 11.5C10.8838 11.6667 12.3838 12.2 14.3838 13C16.3838 13.8 15.2171 14.6667 14.3838 15L10.3838 16L8.88379 20.5C8.08379 21.7 7.55046 21 7.38379 20.5L5.88379 16L1.88344 15C0.283443 14.2 1.21678 13.3333 1.88344 13L5.88344 11.5L7.38344 7.50014Z" stroke="#9D9D9D" stroke-width="1.5"/>
<path d="M16.067 10.7422V7.79332H16.7361V10.7422H16.067ZM14.9271 9.60227V8.93324H17.876V9.60227H14.9271Z" fill="#9D9D9D"/>
<path d="M12.594 7.68466V3.66193H13.6111V7.68466H12.594ZM11.0912 6.18182V5.16477H15.1139V6.18182H11.0912Z" fill="#9D9D9D"/>
</svg>
