<svg width="246" height="231" viewBox="0 0 246 231" fill="none" xmlns="http://www.w3.org/2000/svg">
<path d="M196.5 137C208 168.878 170 230.622 105 230.622C40 230.622 5 174.378 5 130C5 85.6221 42 38.5 97 38.5C152 38.5 196.5 90.3319 196.5 137Z" fill="#4D4D4D"/>
<g filter="url(#filter0_ddi_1933_98)">
<path d="M196.996 134.125C196.996 186 163.496 211.625 122.496 211.625C68.5 211.625 24 174.376 24 122.5C24 74.8757 50.9999 38.6247 110.479 41.1227C146 42.6145 196.996 81.563 196.996 134.125Z" fill="#B24026"/>
</g>
<path d="M49.7454 141.725C29.7339 92.7579 75.3335 42.4207 126.034 57.5103L133.097 59.6121C154.691 66.0391 171.21 83.5093 176.419 105.43L180 120.5V120.5C184.049 160.987 148.763 194.389 108.559 188.128L101.162 186.976C79.3407 183.578 60.8924 169.002 52.5381 148.559L49.7454 141.725Z" fill="#D8CFCA"/>
<path d="M65.7493 136.095C50.9211 99.7419 84.6869 62.3616 122.356 73.4292V73.4292C124.781 74.1419 127.145 75.0497 129.424 76.1437L135.414 79.0185C145.49 83.8553 153.573 92.0436 158.279 102.182V102.182C176.176 140.742 139.028 181.906 98.8395 168.048L96.3643 167.195C83.1046 162.622 72.4619 152.552 67.1645 139.565L65.7493 136.095Z" fill="#B24026"/>
<path d="M85.3979 129.395C75.6809 106.138 97.4358 82.0735 121.552 89.4028V89.4028C123.005 89.8443 124.422 90.3962 125.79 91.0537L128.646 92.4255C135.403 95.6718 140.747 101.268 143.678 108.167V108.167C154.383 133.36 129.163 158.879 103.705 148.822V148.822C95.9299 145.75 89.6821 139.649 86.4592 131.935L85.3979 129.395Z" fill="#D8CFCA"/>
<path d="M124.4 49.0663L130.203 69.9079L153.128 57.3102L172.703 23.4097L163.703 23.4097L152.203 29.3331L141.972 34.3198L139.879 29.3331L137.219 19.7715L130.208 13.41L126.014 24.9103L124.4 33.4103L119.215 27.4139L124.4 49.0663Z" fill="#3D94E6" stroke="#4D4847" stroke-width="1.5"/>
<path d="M148.055 27.9199L148.411 28.1748L148.277 28.5918L116.777 126.592L116.713 126.791L116.539 126.907L113.539 128.907L112.816 129.389L112.621 128.543L111.121 122.043L111.085 121.885L111.133 121.73L140.133 28.2305L140.192 28.0371L140.357 27.9199L144.206 25.1709L148.055 27.9199Z" fill="url(#paint0_linear_1933_98)" stroke="#4D4847" stroke-width="1.2"/>
<path d="M129.714 63.915L140.214 29.915L138.714 29.415L128.714 61.915L129.714 63.915Z" fill="#3D94E6"/>
<path d="M137.214 65.415L147.714 32.415L146.714 31.915L135.714 65.415H137.214Z" fill="#3D94E6"/>
<path d="M183.381 103.111L169.071 119.336L189.697 132.425L219.693 126.927L219.712 126.914L206.212 112.914L205.323 109.806L208.363 105.332L212.212 97.914L213.212 92.414L203.712 94.5772L198.708 99.414L191.214 95.4141L183.381 103.111Z" fill="#3D94E6" stroke="#4D4847" stroke-width="1.5"/>
<path d="M214.005 111.417L213.985 111.855L213.563 111.97L114.23 138.976L114.028 139.031L113.836 138.948L110.524 137.523L109.727 137.18L110.329 136.555L114.961 131.755L115.074 131.638L115.229 131.594L209.426 104.944L209.621 104.889L209.809 104.963L214.212 106.692L214.005 111.417Z" fill="url(#paint1_linear_1933_98)" stroke="#4D4847" stroke-width="1.2"/>
<path d="M173.829 115.659L207.714 106.414L208.215 103.914L174.961 113.731L173.829 115.659Z" fill="#3D94E6"/>
<path d="M176.161 122.765L206.714 114.414L206.215 113.414L175.343 121.507L176.161 122.765Z" fill="#3D94E6"/>
<path d="M177.48 60.4689L171.629 81.2972L197.763 82.4204L232.085 63.5944L224.391 58.9253L211.486 58.023L200.153 56.9786L200.951 51.6294L203.637 42.0751L200.944 32.9998L191.392 40.6554L185.602 47.0846L182.477 49.4327L177.48 60.4689Z" fill="#3D94E6" stroke="#4D4847" stroke-width="1.5"/>
<path d="M208.673 54.6632L208.848 55.0697L208.51 55.3571L122.678 128.358L122.521 128.492L122.315 128.501L118.713 128.654L117.845 128.691L118.117 127.867L120.207 121.532L120.258 121.375L120.384 121.266L201.744 50.8149L201.895 50.6848L202.093 50.6699L206.809 50.3164L208.673 54.6632Z" fill="url(#paint2_linear_1933_98)" stroke="#4D4847" stroke-width="1.2"/>
<path d="M174.32 75.9198L200.936 52.3005L199.913 51.0949L174.616 73.1973L174.32 75.9198Z" fill="#3D94E6"/>
<path d="M179.954 81.093L206.05 58.3286L205.455 57.3823L178.316 80.1826L179.954 81.093Z" fill="#3D94E6"/>
<defs>
<filter id="filter0_ddi_1933_98" x="24" y="37.001" width="176.996" height="174.624" filterUnits="userSpaceOnUse" color-interpolation-filters="sRGB">
<feFlood flood-opacity="0" result="BackgroundImageFix"/>
<feColorMatrix in="SourceAlpha" type="matrix" values="0 0 0 0 0 0 0 0 0 0 0 0 0 0 0 0 0 0 127 0" result="hardAlpha"/>
<feOffset dy="-4"/>
<feComposite in2="hardAlpha" operator="out"/>
<feColorMatrix type="matrix" values="0 0 0 0 0.301961 0 0 0 0 0.301961 0 0 0 0 0.301961 0 0 0 1 0"/>
<feBlend mode="normal" in2="BackgroundImageFix" result="effect1_dropShadow_1933_98"/>
<feColorMatrix in="SourceAlpha" type="matrix" values="0 0 0 0 0 0 0 0 0 0 0 0 0 0 0 0 0 0 127 0" result="hardAlpha"/>
<feOffset dx="4" dy="-2"/>
<feComposite in2="hardAlpha" operator="out"/>
<feColorMatrix type="matrix" values="0 0 0 0 0.301961 0 0 0 0 0.301961 0 0 0 0 0.301961 0 0 0 1 0"/>
<feBlend mode="normal" in2="effect1_dropShadow_1933_98" result="effect2_dropShadow_1933_98"/>
<feBlend mode="normal" in="SourceGraphic" in2="effect2_dropShadow_1933_98" result="shape"/>
<feColorMatrix in="SourceAlpha" type="matrix" values="0 0 0 0 0 0 0 0 0 0 0 0 0 0 0 0 0 0 127 0" result="hardAlpha"/>
<feOffset dx="3" dy="-4"/>
<feComposite in2="hardAlpha" operator="arithmetic" k2="-1" k3="1"/>
<feColorMatrix type="matrix" values="0 0 0 0 0.921569 0 0 0 0 0.329412 0 0 0 0 0.207843 0 0 0 1 0"/>
<feBlend mode="normal" in2="shape" result="effect3_innerShadow_1933_98"/>
</filter>
<linearGradient id="paint0_linear_1933_98" x1="123.706" y1="75.9082" x2="133.206" y2="78.9082" gradientUnits="userSpaceOnUse">
<stop stop-color="#A8621D"/>
<stop offset="0.490844" stop-color="#A8621D"/>
<stop offset="0.527463" stop-color="#70492A"/>
<stop offset="1" stop-color="#674333"/>
</linearGradient>
<linearGradient id="paint1_linear_1933_98" x1="160.5" y1="117.16" x2="163.163" y2="126.759" gradientUnits="userSpaceOnUse">
<stop stop-color="#A8621D"/>
<stop offset="0.490844" stop-color="#A8621D"/>
<stop offset="0.527463" stop-color="#70492A"/>
<stop offset="1" stop-color="#674333"/>
</linearGradient>
<linearGradient id="paint2_linear_1933_98" x1="162.966" y1="83.0599" x2="169.531" y2="90.5531" gradientUnits="userSpaceOnUse">
<stop stop-color="#A8621D"/>
<stop offset="0.490844" stop-color="#A8621D"/>
<stop offset="0.527463" stop-color="#70492A"/>
<stop offset="1" stop-color="#674333"/>
</linearGradient>
</defs>
</svg>
