<svg width="85" height="125" viewBox="0 0 85 125" fill="none" xmlns="http://www.w3.org/2000/svg">
<g filter="url(#filter0_d_1096_448)">
<path d="M23.807 107.054C22.988 107.32 22.185 107.642 21.386 107.991L20.453 108.402C19.305 108.956 18.168 109.598 17.026 110.344C15.637 111.261 14.388 112.241 13.207 113.34C12.391 114.102 11.996 114.556 11.979 114.576C11.843 114.733 11.86 114.97 12.017 115.106C12.089 115.168 12.176 115.198 12.264 115.198C12.369 115.198 12.473 115.153 12.548 115.068C12.552 115.063 12.938 114.62 13.72 113.89C14.87 112.819 16.088 111.865 17.44 110.973C18.751 110.117 20.056 109.412 21.38 108.813L22.306 108.402C22.879 108.169 23.456 107.956 24.041 107.766C24.479 107.613 24.937 107.481 25.403 107.358C26.071 107.298 26.707 107.395 27.245 107.51C27.3655 107.541 27.4816 107.58 27.5966 107.618L27.618 107.626C27.559 107.916 27.806 108.314 28.23 108.753C28.503 109.035 28.844 109.332 29.216 109.619C29.586 109.906 29.961 110.187 30.516 110.404C32.597 111.298 34.356 111.244 35.089 110.663C35.824 110.006 35.283 109.22 33.189 108.315C32.146 107.873 30.938 107.51 29.914 107.328C29.212 107.195 28.602 107.154 28.178 107.234C27.923 107.13 27.658 107.033 27.373 106.961C27.337 106.954 27.294 106.947 27.257 106.939C28.307 106.735 29.402 106.564 30.531 106.389C30.812 106.346 31.098 106.295 31.382 106.251C32.296 106.278 33.163 106.456 33.981 106.699C33.861 107.041 34.167 107.537 34.765 108.034C35.488 108.61 36.65 109.186 37.951 109.564C40.584 110.397 42.579 109.811 43.322 108.992C44.079 108.14 43.255 107.255 40.701 106.716C39.442 106.493 37.956 106.204 36.727 106.117C35.817 106.049 35.045 106.102 34.545 106.271C34.154 106.145 33.747 106.031 33.33 105.933C33.345 105.93 33.361 105.928 33.377 105.925C33.997 105.854 34.603 105.683 35.19 105.517C35.463 105.439 35.739 105.362 36.029 105.29C36.341 105.204 36.656 105.119 36.973 105.035C37.548 104.882 38.129 104.727 38.736 104.545L38.895 104.485C39.737 104.383 40.439 104.361 41.101 104.417C41.277 104.428 41.451 104.457 41.626 104.478C41.534 104.895 41.968 105.387 42.757 105.841C43.227 106.11 43.827 106.375 44.499 106.581C45.157 106.754 45.894 106.883 46.659 106.948C48.181 107.063 49.557 106.97 50.559 106.597C51.558 106.216 52.26 105.693 52.587 105.136C53.256 104.011 52.132 103.218 49.168 103.19C48.798 103.183 48.423 103.197 48.036 103.204C47.639 103.194 47.239 103.193 46.845 103.201C46.056 103.217 45.288 103.27 44.598 103.36C43.55 103.53 42.644 103.692 42.111 103.965C41.792 103.917 41.47 103.873 41.145 103.853C40.974 103.838 40.797 103.832 40.62 103.827L42.825 102.986L46.275 101.261C47.01 101.054 47.771 100.86 48.551 100.763C48.722 100.742 48.897 100.726 49.074 100.712C49.05 101.147 49.566 101.554 50.426 101.855C51.425 102.188 52.986 102.47 54.476 102.269C55.994 102.11 57.282 101.715 58.244 101.221C59.184 100.7 59.748 100.024 59.974 99.4216C60.422 98.1856 59.179 97.6086 56.282 98.1316C54.785 98.3296 53.117 98.6656 51.811 99.1096C51.169 99.3496 50.545 99.5226 50.078 99.7446C49.822 99.8646 49.612 99.9906 49.447 100.124C49.115 100.141 48.792 100.164 48.483 100.201C48.293 100.225 48.111 100.273 47.923 100.306L49.534 99.2926C50.42 98.7838 51.2366 98.1443 52.0263 97.5259L52.037 97.5176L53.042 96.7396C53.929 96.3106 54.825 95.9706 55.738 95.7166C55.884 96.6506 58.546 96.9886 61.339 96.2836C64.245 95.3996 66.1 93.8286 66.235 92.5016C66.432 91.1866 65.159 90.8786 62.359 91.8706C60.906 92.3186 59.36 92.9736 58.16 93.6486C57.153 94.1126 56.364 94.6006 55.981 95.0646C55.502 95.1846 55.029 95.3276 54.56 95.4926L54.701 95.3616C56.257 93.9856 57.71 92.5016 59.06 90.9386C59.668 90.5016 60.318 90.1586 60.954 89.8236C61.102 89.7436 61.255 89.6666 61.411 89.5896C61.697 90.5126 64.354 90.3496 67.017 89.1666C68.407 88.5076 69.416 87.6496 70.135 86.8466C70.844 86.0356 71.23 85.2556 71.184 84.5876C71.164 83.9306 70.819 83.5636 70.166 83.5636C69.505 83.5566 68.59 83.9446 67.225 84.6346C65.866 85.3276 64.546 86.3006 63.403 87.1226C62.512 87.7566 61.835 88.3786 61.542 88.9046C61.244 89.0406 60.957 89.1796 60.687 89.3266C60.52 89.4136 60.347 89.5066 60.174 89.6006C61.526 87.9126 62.755 86.1386 63.851 84.2926C64.321 83.7916 64.861 83.3266 65.492 82.8846C65.643 82.7726 65.783 82.6736 65.924 82.5716C66.366 83.4406 68.939 82.8026 71.329 81.1476C72.661 80.2846 73.434 79.2346 74.001 78.3166C74.543 77.3866 74.759 76.5406 74.662 75.9116C74.356 74.6016 73.12 74.7756 70.738 76.6536C68.748 78.3836 66.356 80.5686 65.924 81.8796C65.681 82.0486 65.431 82.2276 65.161 82.4276C65.008 82.5356 64.867 82.6466 64.723 82.7566C65.732 80.8966 66.614 78.9766 67.344 77.0106C67.844 76.2006 68.453 75.4946 69.097 74.8656C69.359 75.1986 70.019 75.1706 70.88 74.8456C71.867 74.4476 73.06 73.5946 74.154 72.4906C74.698 71.9386 75.16 71.3796 75.541 70.8336C75.875 70.2796 76.121 69.7376 76.298 69.2306C76.649 68.2156 76.698 67.3426 76.481 66.7396C76.047 65.5166 74.717 65.8926 72.783 68.1766C72.3 68.7446 71.825 69.3716 71.393 70.0046C70.896 70.6256 70.439 71.2526 70.062 71.8426C69.472 72.7396 69.115 73.5626 69.013 74.1546C68.655 74.4906 68.302 74.8486 67.96 75.2306C68.285 74.2236 68.576 73.2076 68.823 72.1836L69.448 69.6036L69.503 69.2106C69.779 68.4736 70.102 67.7806 70.525 67.1376C70.616 66.9896 70.724 66.8486 70.827 66.7046C71.147 66.9886 71.789 66.8426 72.57 66.3666C73.022 66.0816 73.575 65.6846 74.037 65.1896C74.506 64.6946 74.973 64.1096 75.398 63.4696C76.227 62.1896 76.822 60.9366 76.957 59.8816C77.101 58.8246 76.977 57.9596 76.645 57.4066C75.978 56.2836 74.743 56.8866 73.299 59.4716C73.118 59.7926 72.943 60.1286 72.775 60.4716L72.7737 60.4738C72.5801 60.8161 72.3826 61.1653 72.202 61.5146C71.837 62.2146 71.513 62.9136 71.26 63.5626C71.002 64.2106 70.836 64.8116 70.727 65.3156C70.655 65.5836 70.619 65.8196 70.613 66.0276C70.413 66.2876 70.22 66.5536 70.048 66.8326C69.941 66.9956 69.861 67.1736 69.764 67.3406L70.056 65.2526C70.076 64.7276 70.102 64.2036 70.128 63.6806C70.171 62.8196 70.213 61.9436 70.225 61.0676C70.413 60.2466 70.602 59.5256 70.874 58.8516C70.938 58.6926 71.009 58.5306 71.081 58.3686C71.451 58.5976 72.055 58.3396 72.731 57.7306C73.131 57.3696 73.555 56.8866 73.966 56.3136C74.388 55.7376 74.776 55.0786 75.063 54.3996C75.67 53.0276 75.963 51.7526 76.011 50.7066C76.021 49.6656 75.753 48.8586 75.349 48.3746C74.525 47.3966 73.385 48.1376 72.349 50.8756C71.785 52.2486 71.258 53.8506 71.006 55.2026C70.788 56.2556 70.638 57.1736 70.741 57.7656C70.598 58.0636 70.464 58.3556 70.35 58.6436C70.2918 58.7881 70.2411 58.9352 70.1902 59.0824L70.175 59.1266C70.159 58.8566 70.147 58.5846 70.119 58.3166C70.03 56.5536 69.819 54.7786 69.54 53.0016C69.595 52.0296 69.75 51.0796 70.004 50.1426C70.878 50.4806 72.54 48.3586 73.357 45.6766C73.764 44.2306 73.873 42.9216 73.771 41.8736C73.66 40.8276 73.251 40.0666 72.786 39.6396C71.824 38.7796 70.807 39.6856 70.182 42.5466C69.792 43.9976 69.516 45.6516 69.451 47.0266C69.364 48.1116 69.368 49.0406 69.568 49.6056C69.423 50.0886 69.304 50.5756 69.21 51.0656C68.816 49.0486 68.318 47.0296 67.686 45.0226C67.609 44.0736 67.63 43.1186 67.75 42.1486C68.668 42.3626 69.994 40.0316 70.426 37.2316C70.606 35.7336 70.509 34.4116 70.243 33.3826C69.999 32.3426 69.44 31.6556 68.917 31.2986C67.815 30.5906 66.978 31.6496 66.799 34.5886C66.63 36.0916 66.616 37.7676 66.76 39.1376C66.811 40.2346 66.958 41.1496 67.24 41.6796C67.162 42.1986 67.113 42.7146 67.089 43.2256C66.34 41.0606 65.54 39.0906 64.676 37.2946C64.475 36.4136 64.361 35.5096 64.331 34.5626C65.277 34.6386 66.209 32.1346 66.19 29.2616C66.024 26.2236 64.915 24.0706 63.655 23.6116C62.426 23.1006 61.819 24.2866 62.144 27.2346C62.236 28.7536 62.516 30.4066 62.878 31.7386C63.096 32.8206 63.391 33.6976 63.755 34.1766C63.759 34.6746 63.784 35.1616 63.831 35.6366C63.425 34.8796 63.008 34.1496 62.575 33.4556L62.314 33.0036C62.151 32.7186 61.988 32.4336 61.804 32.1476L60.957 30.9416C60.795 30.7176 60.639 30.4926 60.483 30.2666C60.239 29.6716 60.071 29.0576 59.908 28.4586L59.817 28.1266C59.773 27.9636 59.735 27.7956 59.697 27.6256C60.659 27.5636 61.131 24.9346 60.592 22.0536C59.834 19.0996 58.335 17.1346 56.992 16.9356C55.665 16.6736 55.331 17.9366 56.204 20.7956C56.582 22.2806 57.189 23.8366 57.771 25.0986C58.178 26.1176 58.622 26.9246 59.063 27.3346C59.125 27.6586 59.192 27.9736 59.272 28.2736L59.363 28.6056C59.378 28.6626 59.395 28.7216 59.411 28.7796C59.361 28.7146 59.315 28.6476 59.263 28.5836C58.903 28.1736 58.556 27.7596 58.213 27.3486C57.352 26.3206 56.539 25.3506 55.604 24.5266C55.465 24.3896 55.323 24.2706 55.183 24.1366C54.767 23.5136 54.438 22.8386 54.095 22.0966C54.021 21.9466 53.95 21.7906 53.88 21.6316C54.817 21.3876 54.767 18.7256 53.654 15.9896C53.014 14.5836 52.172 13.5256 51.37 12.7756C50.966 12.4046 50.565 12.1176 50.187 11.9186C49.797 11.7396 49.419 11.6686 49.088 11.6676C48.421 11.6706 48.048 12.0086 48.041 12.6646C48.037 12.9926 48.123 13.3986 48.304 13.8806C48.493 14.3476 48.752 14.9346 49.086 15.6276C49.7518 17.005 50.6804 18.3587 51.4722 19.5131L51.487 19.5346C52.09 20.4546 52.685 21.1566 53.2 21.4716C53.323 21.7746 53.45 22.0676 53.585 22.3406C53.674 22.5316 53.762 22.7156 53.85 22.8996C52.152 21.4076 50.446 20.1716 48.794 19.1266C48.258 18.6116 47.764 18.0156 47.294 17.3056C47.192 17.1736 47.097 17.0236 46.998 16.8856C47.858 16.4396 47.263 13.8706 45.613 11.4436C45.18 10.7666 44.692 10.2496 44.2 9.82057C43.711 9.38357 43.221 9.02756 42.751 8.75256C41.81 8.20556 40.958 7.97057 40.321 8.07957C39.674 8.22657 39.375 8.63456 39.495 9.27256C39.619 9.88556 40.141 10.8216 41.081 12.0106C41.552 12.6016 42.081 13.1956 42.623 13.7496C42.894 14.0276 43.17 14.2906 43.44 14.5476C43.699 14.8326 43.957 15.1026 44.209 15.3506C44.997 16.1266 45.732 16.6876 46.305 16.8816C46.48 17.1386 46.654 17.4006 46.836 17.6346C46.961 17.8236 47.09 18.0016 47.219 18.1766C45.273 17.0646 43.465 16.2326 41.918 15.6266C41.286 15.2596 40.684 14.8196 40.103 14.2506C39.986 14.1336 39.888 14.0106 39.776 13.8906C40.392 13.3326 39.479 11.0196 37.663 9.30357C36.679 8.33357 35.671 7.61856 34.776 7.26956C33.877 6.96256 33.099 6.92457 32.554 7.12457C31.45 7.52457 31.74 8.72657 33.76 10.4526C34.286 10.8946 34.834 11.3556 35.37 11.8066C35.927 12.2546 36.491 12.6646 37.023 13.0036C37.555 13.3426 38.056 13.6106 38.491 13.7746C38.704 13.8566 38.896 13.9286 39.068 13.9756C39.272 14.2036 39.482 14.4306 39.706 14.6536C39.802 14.7476 39.9 14.8316 39.997 14.9206L38.826 14.5036C38.323 14.3386 37.86 14.2336 37.452 14.1416C37.241 14.0936 37.044 14.0486 36.853 13.9976L35.297 13.6276C35.209 13.5296 35.098 13.4266 34.95 13.3206C34.584 13.0656 34.053 12.7476 33.388 12.5666C32.069 12.1696 30.3 11.7476 28.624 11.6546C25.253 11.6286 23.65 12.2916 23.72 13.1186C23.792 13.9456 25.409 14.6316 28.571 14.6446C30.145 14.7636 31.819 14.8116 33.146 14.6676C34.025 14.5966 34.727 14.5266 35.124 14.3606L36.669 14.7286C36.859 14.7796 37.065 14.8256 37.287 14.8766C37.679 14.9646 38.123 15.0656 38.585 15.2166L38.646 15.2386C38.586 15.2446 38.526 15.2386 38.466 15.2456C38.175 15.2856 37.894 15.3566 37.616 15.4396C37.157 15.2996 36.442 15.2866 35.64 15.3806C34.533 15.5096 33.288 15.8036 32.255 16.3996C30.216 17.4916 29.894 18.5266 30.553 19.1166C31.225 19.7296 32.666 19.5356 34.644 18.7106C36.435 17.8896 38.249 16.6286 38.129 15.8866C38.264 15.8546 38.399 15.8246 38.536 15.8056C39.135 15.7376 39.728 15.7616 40.315 15.8336L41.137 16.1266C42.443 16.6166 43.98 17.2836 45.64 18.1586C45.527 18.1546 45.413 18.1486 45.3 18.1456C45.014 18.1496 44.72 18.1766 44.427 18.2006C43.978 17.9166 43.185 17.7226 42.272 17.6356C41.038 17.6096 39.587 17.8366 38.422 18.1956C37.263 18.5306 36.531 19.0846 36.182 19.5616C35.833 20.0436 35.851 20.4926 36.161 20.8456C36.484 21.1696 36.989 21.4576 37.718 21.5146C38.447 21.5766 39.389 21.4406 40.57 21.0686C42.609 20.5586 44.826 19.5766 44.81 18.7396C44.971 18.7316 45.131 18.7106 45.294 18.7106H45.337C45.748 18.7186 46.174 18.7276 46.564 18.8226C46.758 18.8716 46.949 18.9316 47.14 18.9966C48.813 19.9716 50.571 21.1706 52.338 22.6186C52.217 22.5866 52.102 22.5386 51.98 22.5116C51.696 22.4496 51.403 22.4146 51.111 22.3766C50.733 22.0016 50.015 21.6316 49.114 21.4046C47.902 21.1436 46.463 21.0396 45.259 21.1516C42.773 21.5326 42.062 22.5466 42.504 23.3556C43.001 24.1246 44.319 24.6736 46.747 24.4356C47.368 24.3596 47.956 24.3156 48.518 24.2366C49.081 24.1536 49.615 24.0396 50.067 23.8986C50.805 23.6676 51.316 23.3626 51.382 22.9896C51.54 23.0156 51.703 23.0296 51.859 23.0636C52.284 23.1576 52.704 23.2826 53.101 23.4336C53.274 23.5056 53.439 23.5986 53.601 23.6946C54.1 24.1406 54.6 24.5906 55.094 25.0806C56.002 25.8816 56.797 26.8306 57.639 27.8366C57.768 27.9896 57.899 28.1396 58.028 28.2926C57.905 28.2336 57.779 28.1706 57.67 28.1226C57.405 28.0046 57.124 27.9116 56.844 27.8166C56.549 27.3716 55.925 26.8576 55.063 26.4776C53.93 25.9756 52.553 25.5676 51.342 25.4396C48.804 25.3366 47.934 26.1506 48.189 27.0506C48.314 27.5166 48.75 27.8746 49.392 28.2186C50.024 28.5766 50.928 28.8376 52.143 28.9776C53.389 29.0836 54.564 29.2226 55.525 29.1076C56.294 29.0286 56.853 28.8276 56.99 28.4726C57.139 28.5296 57.296 28.5756 57.441 28.6396C57.909 28.8476 58.54 29.1646 59.11 29.6506C59.323 29.9426 59.538 30.2246 59.753 30.5366C59.95 30.8196 60.147 31.1046 60.347 31.3826L61.183 32.5716C61.352 32.8345 61.5079 33.1075 61.6639 33.3804L61.664 33.3806L61.936 33.8506C62.163 34.2136 62.384 34.5866 62.603 34.9666C62.481 34.8746 62.357 34.7816 62.238 34.6986C62 34.5366 61.741 34.3946 61.484 34.2516C61.41 34.0826 61.298 33.8996 61.151 33.7086C60.881 33.3406 60.476 32.9536 59.955 32.6086C58.932 31.9056 57.673 31.2236 56.476 30.8836C54.01 30.2756 52.992 30.8966 53.073 31.8416C53.114 32.3236 53.453 32.7876 54.051 33.2346C54.613 33.7166 55.459 34.1566 56.63 34.5316C57.83 34.8826 58.998 35.2156 59.953 35.2856C60.726 35.3466 61.312 35.2476 61.508 34.9206C61.643 35.0026 61.788 35.0756 61.917 35.1626C62.433 35.5236 62.994 35.9606 63.446 36.5166C64.337 38.2396 65.162 40.1336 65.933 42.2226C65.628 41.9096 65.314 41.6296 65 41.3836C64.693 40.1816 62.548 38.1796 60.581 37.2196C58.261 36.1716 57.143 36.5906 57.062 37.5516C57.025 38.0376 57.264 38.5776 57.801 39.1206C58.28 39.7016 59.046 40.2946 60.14 40.8716C61.261 41.4336 62.395 41.9406 63.314 42.1706C64.077 42.3596 64.66 42.3376 64.9 42.0336C65.477 42.5176 66.049 43.1116 66.511 43.8546C66.666 44.3106 66.82 44.7696 66.97 45.2436C67.465 46.8166 67.861 48.3956 68.208 49.9766C67.968 49.6436 67.694 49.3206 67.396 49.0056C67.274 47.7736 65.444 45.4626 63.628 44.1966C61.505 42.7826 60.33 43.0076 60.102 43.9586C59.991 44.4396 60.143 45.0226 60.589 45.6546C61.005 46.3006 61.655 47.0226 62.655 47.7646C63.15 48.1376 63.687 48.4816 64.2 48.7826C64.691 49.0896 65.177 49.3476 65.616 49.5276C66.333 49.8216 66.908 49.8886 67.194 49.6346C67.817 50.3406 68.289 51.0916 68.617 51.8966C68.983 53.9176 69.217 55.9376 69.337 57.9486C69.147 57.5766 68.929 57.2186 68.687 56.8716C68.716 56.3376 68.482 55.5576 68.005 54.7206C67.391 53.6326 66.62 52.4396 65.631 51.5886C63.737 49.8766 62.542 49.9216 62.179 50.8406C61.999 51.3056 62.066 51.9106 62.415 52.6086C62.764 53.3076 63.286 54.1236 64.178 55.0006C64.617 55.4406 65.094 55.8586 65.568 56.2276C66.025 56.5936 66.448 56.9076 66.858 57.1446C67.52 57.5306 68.087 57.6936 68.409 57.4836C68.882 58.2236 69.235 59.0236 69.465 59.8796C69.501 61.1376 69.442 62.4086 69.38 63.6496C69.353 64.1766 69.327 64.7046 69.311 65.1936L69.195 66.0206C69.077 65.6046 68.925 65.2026 68.742 64.8156C68.836 64.2926 68.682 63.4726 68.399 62.5746C68.212 61.9926 67.962 61.3786 67.673 60.7916C67.369 60.2036 66.944 59.6426 66.553 59.1546C64.949 57.2146 63.766 57.1176 63.262 57.9436C63.012 58.3636 62.982 58.9486 63.218 59.6636C63.324 60.0216 63.548 60.4136 63.751 60.8376C63.958 61.2606 64.234 61.7186 64.584 62.2096C65.285 63.1896 66.149 64.1356 66.908 64.7496C67.492 65.2406 68.005 65.4996 68.362 65.3606C68.69 66.1466 68.881 66.9916 68.933 67.8926L68.712 69.4676L68.093 72.0106C67.949 72.6066 67.786 73.2016 67.613 73.7956C67.601 73.6816 67.594 73.5666 67.576 73.4546C67.5194 73.184 67.438 72.9134 67.3568 72.6436L67.342 72.5946C67.761 71.4356 67.364 68.5966 66.212 66.6656C65.028 64.4816 63.884 64.1796 63.224 64.8986C62.892 65.2656 62.743 65.8316 62.83 66.5726C62.888 67.3096 63.309 68.2466 63.754 69.3236C64.654 71.2726 66.083 73.2726 66.893 73.0916C66.934 73.2456 66.988 73.4026 67.02 73.5566C67.123 74.2066 67.119 74.9106 67.019 75.6516C66.364 77.5556 65.569 79.4346 64.638 81.2636C64.655 80.8346 64.638 80.4156 64.595 80.0126C64.863 79.5526 65.038 78.7636 65.11 77.8586C65.169 76.6356 64.909 75.1686 64.555 73.9966C64.212 72.8246 63.691 72.0986 63.204 71.7446C62.724 71.3946 62.274 71.4116 61.919 71.7216C61.185 72.3486 60.926 73.8136 61.674 76.1816C62.187 78.2636 63.224 80.4936 64.063 80.4296C64.113 81.1896 64.068 81.9936 63.821 82.7966C62.795 84.6376 61.632 86.4146 60.358 88.1096C60.386 87.9816 60.431 87.8606 60.454 87.7316C60.5014 87.4656 60.5255 87.1918 60.5496 86.9182L60.555 86.8566C60.914 86.4616 61.251 85.7226 61.464 84.8176C61.691 83.5936 61.759 82.1416 61.619 80.9236C61.234 78.4406 60.193 77.7176 59.392 78.1946C58.624 78.7166 58.056 80.0846 58.362 82.5446C58.551 84.7116 59.111 87.0366 59.953 87.1486C59.933 87.3086 59.925 87.4736 59.897 87.6316C59.82 88.0636 59.711 88.4886 59.575 88.8946C59.516 89.0666 59.435 89.2336 59.346 89.4026C57.996 91.0716 56.533 92.6436 54.971 94.0936C55.153 93.6756 55.295 93.2616 55.405 92.8626C55.547 92.7526 55.693 92.6056 55.84 92.4256C55.983 92.2486 56.131 92.0446 56.269 91.8116C56.392 91.5636 56.511 91.2926 56.624 91.0046C57.071 89.8476 57.422 88.4536 57.491 87.2236C57.502 84.6716 56.664 83.8196 55.763 84.1276C55.299 84.2806 54.94 84.7386 54.626 85.4126C54.29 86.0716 54.062 86.9976 53.974 88.2236C53.915 89.4756 53.878 90.6876 54.026 91.6246C54.147 92.3976 54.384 92.9486 54.756 93.0546C54.51 93.8296 54.132 94.6456 53.542 95.4036L51.572 96.9276L51.5687 96.9301C50.7619 97.5622 49.9998 98.1592 49.145 98.6506L48.581 99.0056C48.828 98.6496 49.046 98.2776 49.237 97.8926C49.406 97.8126 49.586 97.6936 49.775 97.5376C50.109 97.2236 50.445 96.7616 50.776 96.2446C51.104 95.7246 51.418 95.1356 51.687 94.5326C51.964 93.9376 52.181 93.3116 52.29 92.6716C52.771 90.1836 52.1 89.1996 51.15 89.3346C50.671 89.4076 50.204 89.7576 49.804 90.3986C49.392 91.0276 48.966 91.8516 48.663 93.0416C48.357 94.2256 48.174 95.5076 48.127 96.4176C48.106 97.1846 48.236 97.7606 48.576 97.9416C48.161 98.7016 47.624 99.3976 46.965 100.025L46.541 100.292L42.525 102.299L41.452 102.708C41.761 102.407 42.04 102.087 42.29 101.748C42.8 101.593 43.442 101.046 44.1 100.368C44.521 99.9226 44.939 99.4076 45.315 98.8716C45.694 98.3376 45.977 97.6856 46.219 97.1126C47.15 94.7766 46.666 93.6946 45.701 93.6466C44.698 93.5796 43.676 94.7436 42.594 96.8426C42.069 97.9256 41.66 99.1526 41.477 100.097C41.317 100.835 41.35 101.407 41.648 101.651C41.115 102.31 40.457 102.89 39.675 103.385L38.499 103.833C37.925 104.004 37.352 104.157 36.785 104.308C36.465 104.393 36.148 104.478 35.844 104.562C35.5867 104.624 35.3325 104.695 35.0802 104.766L34.99 104.792C34.781 104.851 34.578 104.904 34.374 104.957C34.399 104.937 34.427 104.92 34.451 104.899C34.662 104.719 34.861 104.516 35.06 104.313C35.519 104.221 36.134 103.903 36.775 103.45C37.213 103.131 37.673 102.788 38.08 102.35C38.483 101.899 38.855 101.423 39.162 100.956C40.382 99.0916 40.161 98.0666 39.319 97.8636C38.893 97.7646 38.382 97.8966 37.832 98.2866C37.556 98.4816 37.27 98.7406 36.976 99.0696C36.68 99.3916 36.355 99.7196 36.033 100.152C34.892 101.665 33.966 103.579 34.405 104.161C34.298 104.263 34.196 104.375 34.085 104.47C33.722 104.781 33.285 105.037 32.724 105.269C31.949 105.401 31.176 105.526 30.423 105.643C29.678 105.758 28.953 105.875 28.239 105.997C28.417 105.874 28.594 105.748 28.765 105.613C29.785 105.483 31.556 104.376 32.676 103.233C33.008 102.894 33.255 102.589 33.426 102.304C33.593 102.001 33.687 101.737 33.72 101.512C33.786 101.063 33.61 100.77 33.262 100.65C32.553 100.389 31.414 100.755 30.086 102.127C29.752 102.467 29.435 102.836 29.155 103.201C28.814 103.57 28.532 103.934 28.338 104.263C28.043 104.762 27.94 105.179 28.078 105.419C27.613 105.755 27.126 106.052 26.616 106.306C25.636 106.51 24.691 106.745 23.807 107.054Z" fill="#FFD700"/>
</g>
<defs>
<filter id="filter0_d_1096_448" x="0.0999999" y="0.0999999" width="84.8162" height="123.997" filterUnits="userSpaceOnUse" color-interpolation-filters="sRGB">
<feFlood flood-opacity="0" result="BackgroundImageFix"/>
<feColorMatrix in="SourceAlpha" type="matrix" values="0 0 0 0 0 0 0 0 0 0 0 0 0 0 0 0 0 0 127 0" result="hardAlpha"/>
<feOffset dy="1"/>
<feGaussianBlur stdDeviation="3.95"/>
<feComposite in2="hardAlpha" operator="out"/>
<feColorMatrix type="matrix" values="0 0 0 0 0 0 0 0 0 0 0 0 0 0 0 0 0 0 0.09 0"/>
<feBlend mode="normal" in2="BackgroundImageFix" result="effect1_dropShadow_1096_448"/>
<feBlend mode="normal" in="SourceGraphic" in2="effect1_dropShadow_1096_448" result="shape"/>
</filter>
</defs>
</svg>
