<svg width="86" height="125" viewBox="0 0 86 125" fill="none" xmlns="http://www.w3.org/2000/svg">
<g filter="url(#filter0_d_1084_445)">
<path d="M61.322 107.018C62.141 107.284 62.944 107.606 63.743 107.955L64.676 108.366C65.824 108.92 66.961 109.562 68.103 110.308C69.492 111.225 70.741 112.205 71.922 113.304C72.738 114.066 73.133 114.52 73.15 114.54C73.286 114.697 73.269 114.934 73.112 115.07C73.04 115.132 72.953 115.162 72.865 115.162C72.76 115.162 72.656 115.117 72.581 115.032C72.577 115.027 72.191 114.584 71.409 113.854C70.259 112.783 69.041 111.829 67.689 110.937C66.378 110.081 65.073 109.376 63.749 108.777L62.823 108.366C62.25 108.133 61.673 107.92 61.088 107.73C60.65 107.577 60.192 107.445 59.726 107.322C59.058 107.262 58.422 107.359 57.884 107.474C57.7635 107.505 57.6474 107.545 57.5324 107.583L57.511 107.59C57.57 107.88 57.323 108.278 56.899 108.717C56.626 108.999 56.285 109.296 55.913 109.583C55.543 109.87 55.168 110.151 54.613 110.368C52.532 111.262 50.773 111.208 50.04 110.627C49.305 109.97 49.846 109.184 51.94 108.279C52.983 107.837 54.191 107.474 55.215 107.292C55.917 107.159 56.527 107.118 56.951 107.198C57.206 107.094 57.471 106.997 57.756 106.925C57.792 106.918 57.835 106.911 57.872 106.903C56.822 106.699 55.727 106.528 54.598 106.353C54.317 106.31 54.031 106.259 53.747 106.215C52.833 106.242 51.966 106.42 51.148 106.663C51.268 107.005 50.962 107.501 50.364 107.998C49.641 108.574 48.479 109.15 47.178 109.528C44.545 110.361 42.55 109.775 41.807 108.956C41.05 108.104 41.874 107.219 44.428 106.68C45.687 106.457 47.173 106.168 48.402 106.081C49.312 106.013 50.084 106.066 50.584 106.235C50.975 106.109 51.382 105.995 51.799 105.897C51.784 105.894 51.768 105.892 51.752 105.889C51.132 105.818 50.526 105.647 49.939 105.481C49.666 105.403 49.39 105.326 49.1 105.254C48.788 105.168 48.473 105.083 48.156 104.999C47.581 104.846 47 104.691 46.393 104.509L46.234 104.449C45.392 104.347 44.69 104.325 44.028 104.381C43.852 104.392 43.678 104.421 43.503 104.442C43.595 104.859 43.161 105.351 42.372 105.805C41.902 106.074 41.302 106.339 40.63 106.545C39.972 106.718 39.235 106.847 38.47 106.912C36.948 107.027 35.572 106.934 34.57 106.561C33.571 106.18 32.869 105.657 32.542 105.1C31.873 103.975 32.997 103.182 35.961 103.154C36.331 103.147 36.706 103.161 37.093 103.168C37.49 103.158 37.89 103.157 38.284 103.165C39.073 103.181 39.841 103.234 40.531 103.324C41.579 103.494 42.485 103.656 43.018 103.929C43.337 103.881 43.659 103.837 43.984 103.817C44.155 103.802 44.332 103.796 44.509 103.791L42.304 102.95L38.854 101.225C38.119 101.018 37.358 100.824 36.578 100.727C36.407 100.706 36.232 100.69 36.055 100.676C36.079 101.111 35.563 101.518 34.703 101.819C33.704 102.152 32.143 102.434 30.653 102.233C29.135 102.074 27.847 101.679 26.885 101.185C25.945 100.664 25.381 99.9884 25.155 99.3864C24.707 98.1504 25.95 97.5734 28.847 98.0964C30.344 98.2944 32.012 98.6304 33.318 99.0744C33.96 99.3144 34.584 99.4874 35.051 99.7094C35.307 99.8294 35.517 99.9554 35.682 100.088C36.014 100.105 36.337 100.128 36.646 100.165C36.836 100.189 37.018 100.237 37.206 100.27L35.595 99.2574C34.709 98.7487 33.8924 98.1092 33.1027 97.4908L33.092 97.4824L32.087 96.7044C31.2 96.2754 30.304 95.9354 29.391 95.6814C29.245 96.6154 26.583 96.9534 23.79 96.2484C20.884 95.3644 19.029 93.7934 18.894 92.4664C18.697 91.1514 19.97 90.8434 22.77 91.8354C24.223 92.2834 25.769 92.9384 26.969 93.6134C27.976 94.0774 28.765 94.5654 29.148 95.0294C29.627 95.1494 30.1 95.2924 30.569 95.4574L30.428 95.3264C28.872 93.9504 27.419 92.4664 26.069 90.9034C25.461 90.4664 24.811 90.1234 24.175 89.7884C24.027 89.7084 23.874 89.6314 23.718 89.5544C23.432 90.4774 20.775 90.3144 18.112 89.1314C16.722 88.4724 15.713 87.6144 14.994 86.8114C14.285 86.0004 13.899 85.2204 13.945 84.5524C13.965 83.8954 14.31 83.5284 14.963 83.5284C15.624 83.5214 16.539 83.9094 17.904 84.5994C19.263 85.2924 20.583 86.2654 21.726 87.0874C22.617 87.7214 23.294 88.3434 23.587 88.8694C23.885 89.0054 24.172 89.1444 24.442 89.2914C24.609 89.3784 24.782 89.4714 24.955 89.5654C23.603 87.8774 22.374 86.1034 21.278 84.2574C20.808 83.7564 20.268 83.2914 19.637 82.8494C19.486 82.7374 19.346 82.6384 19.205 82.5364C18.763 83.4054 16.19 82.7674 13.8 81.1124C12.468 80.2494 11.695 79.1994 11.128 78.2814C10.586 77.3514 10.37 76.5054 10.467 75.8764C10.773 74.5664 12.009 74.7404 14.391 76.6184C16.381 78.3484 18.773 80.5334 19.205 81.8444C19.448 82.0134 19.698 82.1924 19.968 82.3924C20.121 82.5004 20.262 82.6114 20.406 82.7214C19.397 80.8614 18.515 78.9414 17.785 76.9754C17.285 76.1654 16.676 75.4594 16.032 74.8304C15.77 75.1634 15.11 75.1354 14.249 74.8104C13.262 74.4124 12.069 73.5594 10.975 72.4554C10.431 71.9034 9.96904 71.3444 9.58804 70.7984C9.25404 70.2444 9.00804 69.7024 8.83104 69.1954C8.48004 68.1804 8.43104 67.3074 8.64804 66.7044C9.08204 65.4814 10.412 65.8574 12.346 68.1414C12.829 68.7094 13.304 69.3364 13.736 69.9694C14.233 70.5904 14.69 71.2174 15.067 71.8074C15.657 72.7044 16.014 73.5274 16.116 74.1194C16.474 74.4554 16.827 74.8134 17.169 75.1954C16.844 74.1884 16.553 73.1724 16.306 72.1484L15.681 69.5684L15.626 69.1754C15.35 68.4384 15.027 67.7454 14.604 67.1024C14.513 66.9544 14.405 66.8134 14.302 66.6694C13.982 66.9534 13.34 66.8074 12.559 66.3314C12.107 66.0464 11.554 65.6494 11.092 65.1544C10.623 64.6594 10.156 64.0744 9.73104 63.4344C8.90204 62.1544 8.30704 60.9014 8.17204 59.8464C8.02804 58.7894 8.15204 57.9244 8.48404 57.3714C9.15104 56.2484 10.386 56.8514 11.83 59.4364C12.011 59.7574 12.186 60.0934 12.354 60.4364L12.3553 60.4386C12.5489 60.7809 12.7464 61.1302 12.927 61.4794C13.292 62.1794 13.616 62.8784 13.869 63.5274C14.127 64.1754 14.293 64.7764 14.402 65.2804C14.474 65.5484 14.51 65.7844 14.516 65.9924C14.716 66.2524 14.909 66.5184 15.081 66.7974C15.188 66.9604 15.268 67.1384 15.365 67.3054L15.073 65.2174C15.053 64.6924 15.027 64.1684 15.001 63.6454C14.958 62.7844 14.916 61.9084 14.904 61.0324C14.716 60.2114 14.527 59.4904 14.255 58.8164C14.191 58.6574 14.12 58.4954 14.048 58.3334C13.678 58.5624 13.074 58.3044 12.398 57.6954C11.998 57.3344 11.574 56.8514 11.163 56.2784C10.741 55.7024 10.353 55.0434 10.066 54.3644C9.45904 52.9924 9.16604 51.7174 9.11804 50.6714C9.10804 49.6304 9.37604 48.8234 9.78004 48.3394C10.604 47.3614 11.744 48.1024 12.78 50.8404C13.344 52.2134 13.871 53.8154 14.123 55.1674C14.341 56.2204 14.491 57.1384 14.388 57.7304C14.531 58.0284 14.665 58.3204 14.779 58.6084C14.8372 58.753 14.888 58.9 14.9388 59.0473L14.954 59.0914C14.97 58.8214 14.982 58.5494 15.01 58.2814C15.099 56.5184 15.31 54.7434 15.589 52.9664C15.534 51.9944 15.379 51.0444 15.125 50.1074C14.251 50.4454 12.589 48.3234 11.772 45.6414C11.365 44.1954 11.256 42.8864 11.358 41.8384C11.469 40.7924 11.878 40.0314 12.343 39.6044C13.305 38.7444 14.322 39.6504 14.947 42.5114C15.337 43.9624 15.613 45.6164 15.678 46.9914C15.765 48.0764 15.761 49.0054 15.561 49.5704C15.706 50.0534 15.825 50.5404 15.919 51.0304C16.313 49.0134 16.811 46.9944 17.443 44.9874C17.52 44.0384 17.499 43.0834 17.379 42.1134C16.461 42.3274 15.135 39.9964 14.703 37.1964C14.523 35.6984 14.62 34.3764 14.886 33.3474C15.13 32.3074 15.689 31.6204 16.212 31.2634C17.314 30.5554 18.151 31.6144 18.33 34.5534C18.499 36.0564 18.513 37.7324 18.369 39.1024C18.318 40.1994 18.171 41.1144 17.889 41.6444C17.967 42.1634 18.016 42.6794 18.04 43.1904C18.789 41.0254 19.589 39.0554 20.453 37.2594C20.654 36.3784 20.768 35.4744 20.798 34.5274C19.852 34.6034 18.92 32.0994 18.939 29.2264C19.105 26.1884 20.214 24.0354 21.474 23.5764C22.703 23.0654 23.31 24.2514 22.985 27.1994C22.893 28.7184 22.613 30.3714 22.251 31.7034C22.033 32.7854 21.738 33.6624 21.374 34.1414C21.37 34.6394 21.345 35.1264 21.298 35.6014C21.704 34.8444 22.121 34.1144 22.554 33.4204L22.815 32.9684C22.978 32.6834 23.141 32.3984 23.325 32.1124L24.172 30.9064C24.334 30.6824 24.49 30.4574 24.646 30.2314C24.89 29.6364 25.058 29.0224 25.221 28.4234L25.312 28.0914C25.356 27.9284 25.394 27.7604 25.432 27.5904C24.47 27.5284 23.998 24.8994 24.537 22.0184C25.295 19.0644 26.794 17.0994 28.137 16.9004C29.464 16.6384 29.798 17.9014 28.925 20.7604C28.547 22.2454 27.94 23.8014 27.358 25.0634C26.951 26.0824 26.507 26.8894 26.066 27.2994C26.004 27.6234 25.937 27.9384 25.857 28.2384L25.766 28.5704C25.751 28.6274 25.734 28.6864 25.718 28.7444C25.768 28.6794 25.814 28.6124 25.866 28.5484C26.226 28.1384 26.573 27.7244 26.916 27.3134C27.777 26.2854 28.59 25.3154 29.525 24.4914C29.664 24.3544 29.806 24.2354 29.946 24.1014C30.362 23.4784 30.691 22.8034 31.034 22.0614C31.108 21.9114 31.179 21.7554 31.249 21.5964C30.312 21.3524 30.362 18.6904 31.475 15.9544C32.115 14.5484 32.957 13.4904 33.759 12.7404C34.163 12.3694 34.564 12.0824 34.942 11.8834C35.332 11.7044 35.71 11.6334 36.041 11.6324C36.708 11.6354 37.081 11.9734 37.088 12.6294C37.092 12.9574 37.006 13.3634 36.825 13.8454C36.636 14.3124 36.377 14.8994 36.043 15.5924C35.3772 16.9698 34.4486 18.3236 33.6568 19.4779L33.642 19.4994C33.039 20.4194 32.444 21.1214 31.929 21.4364C31.806 21.7394 31.679 22.0324 31.544 22.3054C31.455 22.4964 31.367 22.6804 31.279 22.8644C32.977 21.3724 34.683 20.1364 36.335 19.0914C36.871 18.5764 37.365 17.9804 37.835 17.2704C37.937 17.1384 38.032 16.9884 38.131 16.8504C37.271 16.4044 37.866 13.8354 39.516 11.4084C39.949 10.7314 40.437 10.2144 40.929 9.78541C41.418 9.34841 41.908 8.9924 42.378 8.7174C43.319 8.1704 44.171 7.93542 44.808 8.04442C45.455 8.19142 45.754 8.59941 45.634 9.23741C45.51 9.85041 44.988 10.7864 44.048 11.9754C43.577 12.5664 43.048 13.1604 42.506 13.7144C42.235 13.9924 41.959 14.2554 41.689 14.5124C41.43 14.7974 41.172 15.0674 40.92 15.3154C40.132 16.0914 39.397 16.6524 38.824 16.8464C38.649 17.1034 38.475 17.3654 38.293 17.5994C38.168 17.7884 38.039 17.9664 37.91 18.1414C39.856 17.0294 41.664 16.1974 43.211 15.5914C43.843 15.2244 44.445 14.7844 45.026 14.2154C45.143 14.0984 45.241 13.9754 45.353 13.8554C44.737 13.2974 45.65 10.9844 47.466 9.26841C48.45 8.29841 49.458 7.5834 50.353 7.2344C51.252 6.9274 52.03 6.88941 52.575 7.08941C53.679 7.48941 53.389 8.69142 51.369 10.4174C50.843 10.8594 50.295 11.3204 49.759 11.7714C49.202 12.2194 48.638 12.6294 48.106 12.9684C47.574 13.3074 47.073 13.5754 46.638 13.7394C46.425 13.8214 46.233 13.8934 46.061 13.9404C45.857 14.1684 45.647 14.3954 45.423 14.6184C45.327 14.7124 45.229 14.7964 45.132 14.8854L46.303 14.4684C46.806 14.3034 47.269 14.1984 47.677 14.1064C47.888 14.0584 48.085 14.0134 48.276 13.9624L49.832 13.5924C49.92 13.4944 50.031 13.3914 50.179 13.2854C50.545 13.0304 51.076 12.7124 51.741 12.5314C53.06 12.1344 54.829 11.7124 56.505 11.6194C59.876 11.5934 61.479 12.2564 61.409 13.0834C61.337 13.9104 59.72 14.5964 56.558 14.6094C54.984 14.7284 53.31 14.7764 51.983 14.6324C51.104 14.5614 50.402 14.4914 50.005 14.3254L48.46 14.6934C48.27 14.7444 48.064 14.7904 47.842 14.8414C47.45 14.9294 47.006 15.0304 46.544 15.1814L46.483 15.2034C46.543 15.2094 46.603 15.2034 46.663 15.2104C46.954 15.2504 47.235 15.3214 47.513 15.4044C47.972 15.2644 48.687 15.2514 49.489 15.3454C50.596 15.4744 51.841 15.7684 52.874 16.3644C54.913 17.4564 55.235 18.4914 54.576 19.0814C53.904 19.6944 52.463 19.5004 50.485 18.6754C48.694 17.8544 46.88 16.5934 47 15.8514C46.865 15.8194 46.73 15.7894 46.593 15.7704C45.994 15.7024 45.401 15.7264 44.814 15.7984L43.992 16.0914C42.686 16.5814 41.149 17.2484 39.489 18.1234C39.602 18.1194 39.716 18.1134 39.829 18.1104C40.115 18.1144 40.409 18.1414 40.702 18.1654C41.151 17.8814 41.944 17.6874 42.857 17.6004C44.091 17.5744 45.542 17.8014 46.707 18.1604C47.866 18.4954 48.598 19.0494 48.947 19.5264C49.296 20.0084 49.278 20.4574 48.968 20.8104C48.645 21.1344 48.14 21.4224 47.411 21.4794C46.682 21.5414 45.74 21.4054 44.559 21.0334C42.52 20.5234 40.303 19.5414 40.319 18.7044C40.158 18.6964 39.998 18.6754 39.835 18.6754H39.792C39.381 18.6834 38.955 18.6924 38.565 18.7874C38.371 18.8364 38.18 18.8964 37.989 18.9614C36.316 19.9364 34.558 21.1354 32.791 22.5834C32.912 22.5514 33.027 22.5034 33.149 22.4764C33.433 22.4144 33.726 22.3794 34.018 22.3414C34.396 21.9664 35.114 21.5964 36.015 21.3694C37.227 21.1084 38.666 21.0044 39.87 21.1164C42.356 21.4974 43.067 22.5114 42.625 23.3204C42.128 24.0894 40.81 24.6384 38.382 24.4004C37.761 24.3244 37.173 24.2804 36.611 24.2014C36.048 24.1184 35.514 24.0044 35.062 23.8634C34.324 23.6324 33.813 23.3274 33.747 22.9544C33.589 22.9804 33.426 22.9944 33.27 23.0284C32.845 23.1224 32.425 23.2474 32.028 23.3984C31.855 23.4704 31.69 23.5634 31.528 23.6594C31.029 24.1054 30.529 24.5554 30.035 25.0454C29.127 25.8464 28.332 26.7954 27.49 27.8014C27.361 27.9544 27.23 28.1044 27.101 28.2574C27.224 28.1984 27.35 28.1354 27.459 28.0874C27.724 27.9694 28.005 27.8764 28.285 27.7814C28.58 27.3364 29.204 26.8224 30.066 26.4424C31.199 25.9404 32.576 25.5324 33.787 25.4044C36.325 25.3014 37.195 26.1154 36.94 27.0154C36.815 27.4814 36.379 27.8394 35.737 28.1834C35.105 28.5414 34.201 28.8024 32.986 28.9424C31.74 29.0484 30.565 29.1874 29.604 29.0724C28.835 28.9934 28.276 28.7924 28.139 28.4374C27.99 28.4944 27.833 28.5404 27.688 28.6044C27.22 28.8124 26.589 29.1294 26.019 29.6154C25.806 29.9074 25.591 30.1894 25.376 30.5014C25.179 30.7844 24.982 31.0694 24.782 31.3474L23.946 32.5364C23.7771 32.7994 23.6211 33.0723 23.4651 33.3453L23.465 33.3454L23.193 33.8154C22.966 34.1784 22.745 34.5514 22.526 34.9314C22.648 34.8394 22.772 34.7464 22.891 34.6634C23.129 34.5014 23.388 34.3594 23.645 34.2164C23.719 34.0474 23.831 33.8644 23.978 33.6734C24.248 33.3054 24.653 32.9184 25.174 32.5734C26.197 31.8704 27.456 31.1884 28.653 30.8484C31.119 30.2404 32.137 30.8614 32.056 31.8064C32.015 32.2884 31.676 32.7524 31.078 33.1994C30.516 33.6814 29.67 34.1214 28.499 34.4964C27.299 34.8474 26.131 35.1804 25.176 35.2504C24.403 35.3114 23.817 35.2124 23.621 34.8854C23.486 34.9674 23.341 35.0404 23.212 35.1274C22.696 35.4884 22.135 35.9254 21.683 36.4814C20.792 38.2044 19.967 40.0984 19.196 42.1874C19.501 41.8744 19.815 41.5944 20.129 41.3484C20.436 40.1464 22.581 38.1444 24.548 37.1844C26.868 36.1364 27.986 36.5554 28.067 37.5164C28.104 38.0024 27.865 38.5424 27.328 39.0854C26.849 39.6664 26.083 40.2594 24.989 40.8364C23.868 41.3984 22.734 41.9054 21.815 42.1354C21.052 42.3244 20.469 42.3024 20.229 41.9984C19.652 42.4824 19.08 43.0764 18.618 43.8194C18.463 44.2754 18.309 44.7344 18.159 45.2084C17.664 46.7814 17.268 48.3604 16.921 49.9414C17.161 49.6084 17.435 49.2854 17.733 48.9704C17.855 47.7384 19.685 45.4274 21.501 44.1614C23.624 42.7474 24.799 42.9724 25.027 43.9234C25.138 44.4044 24.986 44.9874 24.54 45.6194C24.124 46.2654 23.474 46.9874 22.474 47.7294C21.979 48.1024 21.442 48.4464 20.929 48.7474C20.438 49.0544 19.952 49.3124 19.513 49.4924C18.796 49.7864 18.221 49.8534 17.935 49.5994C17.312 50.3054 16.84 51.0564 16.512 51.8614C16.146 53.8824 15.912 55.9024 15.792 57.9134C15.982 57.5414 16.2 57.1834 16.442 56.8364C16.413 56.3024 16.647 55.5224 17.124 54.6854C17.738 53.5974 18.509 52.4044 19.498 51.5534C21.392 49.8414 22.587 49.8864 22.95 50.8054C23.13 51.2704 23.063 51.8754 22.714 52.5734C22.365 53.2724 21.843 54.0884 20.951 54.9654C20.512 55.4054 20.035 55.8234 19.561 56.1924C19.104 56.5584 18.681 56.8724 18.271 57.1094C17.609 57.4954 17.042 57.6584 16.72 57.4484C16.247 58.1884 15.894 58.9884 15.664 59.8444C15.628 61.1024 15.687 62.3734 15.749 63.6144C15.776 64.1414 15.802 64.6694 15.818 65.1584L15.934 65.9854C16.052 65.5694 16.204 65.1674 16.387 64.7804C16.293 64.2574 16.447 63.4374 16.73 62.5394C16.917 61.9574 17.167 61.3434 17.456 60.7564C17.76 60.1684 18.185 59.6074 18.576 59.1194C20.18 57.1794 21.363 57.0824 21.867 57.9084C22.117 58.3284 22.147 58.9134 21.911 59.6284C21.805 59.9864 21.581 60.3784 21.378 60.8024C21.171 61.2254 20.895 61.6834 20.545 62.1744C19.844 63.1544 18.98 64.1004 18.221 64.7144C17.637 65.2054 17.124 65.4644 16.767 65.3254C16.439 66.1114 16.248 66.9564 16.196 67.8574L16.417 69.4324L17.036 71.9754C17.18 72.5714 17.343 73.1664 17.516 73.7604C17.528 73.6464 17.535 73.5314 17.553 73.4194C17.6096 73.1488 17.6911 72.8782 17.7723 72.6085L17.787 72.5594C17.368 71.4004 17.765 68.5614 18.917 66.6304C20.101 64.4464 21.245 64.1444 21.905 64.8634C22.237 65.2304 22.386 65.7964 22.299 66.5374C22.241 67.2744 21.82 68.2114 21.375 69.2884C20.475 71.2374 19.046 73.2374 18.236 73.0564C18.195 73.2104 18.141 73.3674 18.109 73.5214C18.006 74.1714 18.01 74.8754 18.11 75.6164C18.765 77.5204 19.56 79.3994 20.491 81.2284C20.474 80.7994 20.491 80.3804 20.534 79.9774C20.266 79.5174 20.091 78.7284 20.019 77.8234C19.96 76.6004 20.22 75.1334 20.574 73.9614C20.917 72.7894 21.438 72.0634 21.925 71.7094C22.405 71.3594 22.855 71.3764 23.21 71.6864C23.944 72.3134 24.203 73.7784 23.455 76.1464C22.942 78.2284 21.905 80.4584 21.066 80.3944C21.016 81.1544 21.061 81.9584 21.308 82.7614C22.334 84.6024 23.497 86.3794 24.771 88.0744C24.743 87.9464 24.698 87.8254 24.675 87.6964C24.6276 87.4304 24.6035 87.1566 24.5795 86.8831L24.574 86.8214C24.215 86.4264 23.878 85.6874 23.665 84.7824C23.438 83.5584 23.37 82.1064 23.51 80.8884C23.895 78.4054 24.936 77.6824 25.737 78.1594C26.505 78.6814 27.073 80.0494 26.767 82.5094C26.578 84.6764 26.018 87.0014 25.176 87.1134C25.196 87.2734 25.204 87.4384 25.232 87.5964C25.309 88.0284 25.418 88.4534 25.554 88.8594C25.613 89.0314 25.694 89.1984 25.783 89.3674C27.133 91.0364 28.596 92.6084 30.158 94.0584C29.976 93.6404 29.834 93.2264 29.724 92.8274C29.582 92.7174 29.436 92.5704 29.289 92.3904C29.146 92.2134 28.998 92.0094 28.86 91.7764C28.737 91.5284 28.618 91.2574 28.505 90.9694C28.058 89.8124 27.707 88.4184 27.638 87.1884C27.627 84.6364 28.465 83.7844 29.366 84.0924C29.83 84.2454 30.189 84.7034 30.503 85.3774C30.839 86.0364 31.067 86.9624 31.155 88.1884C31.214 89.4404 31.251 90.6524 31.103 91.5894C30.982 92.3624 30.745 92.9134 30.373 93.0194C30.619 93.7944 30.997 94.6104 31.587 95.3684L33.557 96.8924L33.5603 96.895C34.3671 97.527 35.1292 98.1241 35.984 98.6154L36.548 98.9704C36.301 98.6144 36.083 98.2424 35.892 97.8574C35.723 97.7774 35.543 97.6584 35.354 97.5024C35.02 97.1884 34.684 96.7264 34.353 96.2094C34.025 95.6894 33.711 95.1004 33.442 94.4974C33.165 93.9024 32.948 93.2764 32.839 92.6364C32.358 90.1484 33.029 89.1644 33.979 89.2994C34.458 89.3724 34.925 89.7224 35.325 90.3634C35.737 90.9924 36.163 91.8164 36.466 93.0064C36.772 94.1904 36.955 95.4724 37.002 96.3824C37.023 97.1494 36.893 97.7254 36.553 97.9064C36.968 98.6664 37.505 99.3624 38.164 99.9894L38.588 100.256L42.604 102.263L43.677 102.672C43.368 102.371 43.089 102.051 42.839 101.712C42.329 101.557 41.687 101.01 41.029 100.332C40.608 99.8874 40.19 99.3724 39.814 98.8364C39.435 98.3024 39.152 97.6504 38.91 97.0774C37.979 94.7414 38.463 93.6594 39.428 93.6114C40.431 93.5444 41.453 94.7084 42.535 96.8074C43.06 97.8904 43.469 99.1174 43.652 100.061C43.812 100.799 43.779 101.371 43.481 101.615C44.014 102.274 44.672 102.854 45.454 103.349L46.63 103.797C47.204 103.968 47.777 104.121 48.344 104.272C48.664 104.357 48.981 104.442 49.285 104.526C49.5424 104.589 49.7965 104.66 50.0488 104.731L50.139 104.756C50.348 104.815 50.551 104.868 50.755 104.921C50.73 104.901 50.702 104.884 50.678 104.863C50.467 104.683 50.268 104.48 50.069 104.277C49.61 104.185 48.995 103.867 48.354 103.414C47.916 103.095 47.456 102.752 47.049 102.314C46.646 101.863 46.274 101.387 45.967 100.92C44.747 99.0564 44.968 98.0314 45.81 97.8284C46.236 97.7294 46.747 97.8614 47.297 98.2514C47.573 98.4464 47.859 98.7054 48.153 99.0344C48.449 99.3564 48.774 99.6844 49.096 100.116C50.237 101.629 51.163 103.543 50.724 104.125C50.831 104.227 50.933 104.339 51.044 104.434C51.407 104.745 51.844 105.001 52.405 105.233C53.18 105.365 53.953 105.49 54.706 105.607C55.451 105.722 56.176 105.839 56.89 105.961C56.712 105.838 56.535 105.712 56.364 105.577C55.344 105.447 53.573 104.34 52.453 103.197C52.121 102.858 51.874 102.553 51.703 102.268C51.536 101.965 51.442 101.701 51.409 101.476C51.343 101.027 51.519 100.734 51.867 100.614C52.576 100.353 53.715 100.719 55.043 102.091C55.377 102.431 55.694 102.8 55.974 103.165C56.315 103.534 56.597 103.898 56.791 104.227C57.086 104.726 57.189 105.143 57.051 105.383C57.516 105.719 58.003 106.016 58.513 106.27C59.493 106.474 60.438 106.709 61.322 107.018Z" fill="#FFD700"/>
</g>
<defs>
<filter id="filter0_d_1084_445" x="0.212793" y="0.0648437" width="84.8162" height="123.997" filterUnits="userSpaceOnUse" color-interpolation-filters="sRGB">
<feFlood flood-opacity="0" result="BackgroundImageFix"/>
<feColorMatrix in="SourceAlpha" type="matrix" values="0 0 0 0 0 0 0 0 0 0 0 0 0 0 0 0 0 0 127 0" result="hardAlpha"/>
<feOffset dy="1"/>
<feGaussianBlur stdDeviation="3.95"/>
<feComposite in2="hardAlpha" operator="out"/>
<feColorMatrix type="matrix" values="0 0 0 0 0 0 0 0 0 0 0 0 0 0 0 0 0 0 0.09 0"/>
<feBlend mode="normal" in2="BackgroundImageFix" result="effect1_dropShadow_1084_445"/>
<feBlend mode="normal" in="SourceGraphic" in2="effect1_dropShadow_1084_445" result="shape"/>
</filter>
</defs>
</svg>
